<svg width="56" height="56" viewBox="0 0 56 56" fill="none" xmlns="http://www.w3.org/2000/svg">
<circle cx="28" cy="28" r="25" fill="white"/>
<path d="M28 56C12.5 56 0 43.5 0 28C0 12.5 12.5 0 28 0C43.5 0 56 12.5 56 28C56 43.5 43.5 56 28 56ZM28 6C15.8 6 6 15.8 6 28C6 40.2 15.8 50 28 50C40.2 50 50 40.2 50 28C50 15.9 40.1 6 28 6Z" fill="black"/>
<path d="M39.0984 34.9008C40.2984 36.1008 40.2984 38.0008 39.1984 39.1008C38.0984 40.2008 36.0984 40.3008 34.9984 39.2008C34.9984 39.2008 34.9984 39.2008 34.8984 39.1008L27.9984 32.2008L21.0984 39.1008C19.8984 40.3008 17.9984 40.2008 16.8984 39.0008C15.7984 37.8008 15.7984 36.0008 16.8984 34.8008L23.7984 27.9008L16.8984 21.0008C15.6984 19.8008 15.7984 17.9008 16.9984 16.8008C18.1984 15.7008 19.9984 15.7008 21.1984 16.8008L28.0984 23.7008L34.9984 16.8008C36.1984 15.6008 38.0984 15.7008 39.1984 16.9008C40.2984 18.1008 40.2984 19.9008 39.1984 21.1008L32.1984 28.0008L39.0984 34.9008Z" fill="black"/>
</svg>
