<?xml version="1.0" encoding="UTF-8"?><svg id="Layer_2" xmlns="http://www.w3.org/2000/svg" viewBox="0 0 20.2 17.02"><defs><style>.cls-1{fill:#adadad;stroke-width:0px;}</style></defs><g id="Layer_1-2"><path class="cls-1" d="m16.84,8.72c0,1.54-1.27,2.79-2.81,2.78l-6.81-.03v-2.19S.5,13.11.5,13.11l6.69,3.9v-2.19s6.82.03,6.82.03c1.64,0,3.19-.62,4.36-1.78,1.17-1.16,1.81-2.69,1.82-4.34,0-.68-.1-1.35-.32-1.98l-3.05,1.74c0,.07,0,.15,0,.22Z"/><path class="cls-1" d="m3.36,8.3c0-1.54,1.27-2.79,2.81-2.78l6.81.03v2.19s6.72-3.84,6.72-3.84L13,0v2.19s-6.82-.03-6.82-.03c-1.64,0-3.19.62-4.36,1.78C.65,5.1,0,6.64,0,8.28c0,.68.1,1.35.32,1.98l3.05-1.74c0-.07,0-.15,0-.22Z"/></g></svg>