<svg width="23" height="17" viewBox="0 0 23 17" fill="none" xmlns="http://www.w3.org/2000/svg">
<path id="Vector" d="M19 8.49994C19 7.26794 18.954 6.04694 18.862 4.83794C18.7912 3.88009 18.3787 2.97953 17.6996 2.30038C17.0204 1.62123 16.1199 1.2087 15.162 1.13794C12.7241 0.95402 10.2759 0.95402 7.838 1.13794C6.88015 1.2087 5.9796 1.62123 5.30045 2.30038C4.6213 2.97953 4.20876 3.88009 4.138 4.83794C4.121 5.05794 4.106 5.27894 4.092 5.49994M19 8.49994L22 5.49994M19 8.49994L16 5.49994M4 8.49994C4 9.73194 4.046 10.9529 4.138 12.1619C4.20876 13.1198 4.6213 14.0203 5.30045 14.6995C5.9796 15.3786 6.88015 15.7912 7.838 15.8619C10.2759 16.0459 12.7241 16.0459 15.162 15.8619C16.1199 15.7912 17.0204 15.3786 17.6996 14.6995C18.3787 14.0203 18.7912 13.1198 18.862 12.1619C18.879 11.9419 18.894 11.7209 18.908 11.4999M4 8.49994L7 11.4999M4 8.49994L1 11.4999" stroke="#4B4B4B" stroke-width="1.5" stroke-linecap="round" stroke-linejoin="round"/>
</svg>
