<svg xmlns="http://www.w3.org/2000/svg" viewBox="0 0 76.73 58.24"><defs><style>.cls-1{fill:#ffcd00;}.cls-2{fill:#231f20;}</style></defs><g id="Layer_2" data-name="Layer 2"><g id="Layer_1-2" data-name="Layer 1"><path class="cls-1" d="M53.44,24.83C51.59,23.38,50,22.11,48.66,21a6.53,6.53,0,0,0,.82-3.17,6.39,6.39,0,0,0-6.3-6.46A5.5,5.5,0,0,0,42,11.5h0a16.93,16.93,0,0,1,.07-10.07L42.62,0,41.17.43a25.92,25.92,0,0,0-9.72,6.34,33.41,33.41,0,0,0-3.95,4.68,6.24,6.24,0,0,0-7.17,6.39,6.5,6.5,0,0,0,1.76,4.47h0a56.66,56.66,0,0,0-2.52,11.58C8.57,40.69-1.12,50.73.1,55.18c.54,1.94,2.71,2.65,6.45,2.1,17.41-2.56,27.8-1.27,37-.14a109.35,109.35,0,0,0,13.63,1.1,62.2,62.2,0,0,0,10.86-1c5-.88,7.87-2.71,8.56-5.43C78.41,44.55,64,33.15,53.44,24.83Z"/><path class="cls-2" d="M26.63,15.35a2.93,2.93,0,1,1-2.85,2.92A2.88,2.88,0,0,1,26.63,15.35Zm13.71,2.92a2.84,2.84,0,1,0,2.84-2.92A2.88,2.88,0,0,0,40.34,18.27ZM76.57,51.85C75.88,54.57,73,56.4,68,57.28a62.2,62.2,0,0,1-10.86,1,109.35,109.35,0,0,1-13.63-1.1C34.35,56,24,54.72,6.55,57.28c-3.74.55-5.91-.16-6.45-2.1-1.22-4.45,8.47-14.49,19.47-21.29a56.66,56.66,0,0,1,2.52-11.58h0a6.5,6.5,0,0,1-1.76-4.47,6.24,6.24,0,0,1,7.17-6.39,33.41,33.41,0,0,1,3.95-4.68A25.92,25.92,0,0,1,41.17.43L42.62,0l-.53,1.42A16.93,16.93,0,0,0,42,11.49h0a5.5,5.5,0,0,1,1.16-.12,6.39,6.39,0,0,1,6.3,6.46A6.53,6.53,0,0,1,48.66,21c1.33,1.1,2.93,2.37,4.78,3.82C64,33.15,78.41,44.55,76.57,51.85ZM43.18,12.6a5.25,5.25,0,1,0,5.07,5.24A5.16,5.16,0,0,0,43.18,12.6Zm5.06,9.08,0-.05ZM21.55,17.84a5.08,5.08,0,1,0,5.08-5.24A5.18,5.18,0,0,0,21.55,17.84ZM52.5,26c-1.81-1.43-3.39-2.68-4.72-3.77a6.19,6.19,0,0,1-4.6,2.07,6.39,6.39,0,0,1-6.3-6.47,6.47,6.47,0,0,1,3.75-5.9h0a19.72,19.72,0,0,1-.36-9.54,27.34,27.34,0,0,0-7.83,5.51,31.76,31.76,0,0,0-3.4,4l-.44-.17a6.46,6.46,0,0,1,4.32,6.13,6.39,6.39,0,0,1-6.29,6.47,6.14,6.14,0,0,1-3.3-1,55.39,55.39,0,0,0-2.12,9.56,57.62,57.62,0,0,1,7-3.49c9.83-4.05,17.08-3,20.4,2.86a.75.75,0,0,1-1.31.74c-2-3.64-6.93-7-18.52-2.21A70.35,70.35,0,0,0,9.47,43.38C3.37,49,1.1,53.12,1.56,54.78c.39,1.43,3.16,1.24,4.77,1a130.58,130.58,0,0,1,19.18-1.5,140.09,140.09,0,0,1,18.2,1.35c7.83,1,14.59,1.81,24,.15,4.35-.76,6.83-2.21,7.36-4.31C76.71,45.13,61.56,33.16,52.5,26ZM28.35,11.63l-.17,0Z"/></g></g></svg>