<svg width="38" height="43" viewBox="0 0 38 43" fill="none" xmlns="http://www.w3.org/2000/svg">
<path d="M8.06961 35.443C8.06961 35.443 5.42437 28.3024 13.003 22.999C18.8615 18.9094 19.4392 13.5605 19.4392 13.5605" stroke="#231F20" stroke-width="1.5" stroke-linecap="round" stroke-linejoin="round"/>
<path d="M21.838 6.48418C21.838 6.48418 25.1453 13.1377 19.7478 13.1377C15.4571 13.1377 16.8787 1.12891 23.3667 1.12891C28.2708 1.14189 29.8125 4.83865 30.1565 5.50725C31.0036 7.13006 36.9204 7.10734 36.9204 7.10734C36.9204 7.10734 37.2093 10.9502 35.9208 11.9531C34.6323 12.956 31.5294 12.5146 30.0981 12.8002C28.6668 13.0858 27.6379 14.9098 28.8291 16.9124C34.2266 26.0001 27.5698 27.5548 27.5698 34.3349C27.5698 36.0713 28.7187 36.1524 30.7959 36.2822C33.4281 36.4478 34.3953 38.486 34.3953 40.7742C30.5687 40.7742 26.0314 40.943 22.0295 41.0241" stroke="#231F20" stroke-width="1.5" stroke-linecap="round" stroke-linejoin="round"/>
<path d="M9.86616 25.5874C9.86616 25.5874 7.91875 19.3654 1.49878 22.3709C2.4762 22.5972 3.34375 23.158 3.95129 23.9564C4.55883 24.7548 4.86811 25.7405 4.82561 26.7429C4.82561 32.0625 1.51825 32.5202 2.41082 37.1291C3.09566 40.6376 5.83826 41.277 8.98658 41.277C12.1349 41.277 22.0277 41.0239 22.0277 41.0239C22.0277 41.0239 21.7421 36.7331 16.8801 36.7331C11.106 36.7331 21.0151 35.6717 21.4565 30.0113C21.7032 26.837 18.6457 23.9126 14.5627 26.0743" stroke="#231F20" stroke-width="1.5" stroke-linecap="round" stroke-linejoin="round"/>
<path d="M28.6681 8.02889C30.6059 8.02889 32.1767 6.45804 32.1767 4.5203C32.1767 2.58257 30.6059 1.01172 28.6681 1.01172C26.7304 1.01172 25.1595 2.58257 25.1595 4.5203C25.1595 6.45804 26.7304 8.02889 28.6681 8.02889Z" fill="#FFCD00" stroke="#231F20" stroke-width="1.5" stroke-linecap="round" stroke-linejoin="round"/>
<path d="M29.001 6.6501C30.0388 6.6501 30.8802 5.78403 30.8802 4.71568C30.8802 3.64732 30.0388 2.78125 29.001 2.78125C27.9631 2.78125 27.1217 3.64732 27.1217 4.71568C27.1217 5.78403 27.9631 6.6501 29.001 6.6501Z" fill="#231F20"/>
</svg>
