<svg xmlns="http://www.w3.org/2000/svg" viewBox="0 0 253.46 178.65"><g id="Layer_2" data-name="Layer 2"><g id="Layer_1-2" data-name="Layer 1"><path d="M18.46,82.51h3.32V36.18A36.26,36.26,0,0,1,58,0H195.51a36.28,36.28,0,0,1,36.18,36.18V82.51H235A18.49,18.49,0,0,1,253.46,101v41.72A18.49,18.49,0,0,1,235,161.15h-3.32V172a6.64,6.64,0,0,1-6.65,6.64h-8.37a6.61,6.61,0,0,1-4.68-1.94l0,0A6.61,6.61,0,0,1,210,172V161.15H43.44V172a6.64,6.64,0,0,1-6.65,6.64H28.42a6.61,6.61,0,0,1-4.68-1.94v0A6.62,6.62,0,0,1,21.78,172V161.15H18.46A18.51,18.51,0,0,1,0,142.69V101A18.51,18.51,0,0,1,18.46,82.51ZM134.39,60.84V55.51A15.53,15.53,0,0,1,149.89,40h31.39a15.53,15.53,0,0,1,15.5,15.5v5.33h.13a36.65,36.65,0,0,1,21,6.6,37.25,37.25,0,0,1,6.41,5.68V36.18a28.88,28.88,0,0,0-28.79-28.8H58a28.88,28.88,0,0,0-28.79,28.8V73.12a37.32,37.32,0,0,1,6.42-5.68,36.62,36.62,0,0,1,21-6.6h.13V55.51A15.55,15.55,0,0,1,72.19,40h31.38a15.53,15.53,0,0,1,15.5,15.5v5.33Zm7.38,0H189.4V55.51a8.16,8.16,0,0,0-8.12-8.12H149.89a8.16,8.16,0,0,0-8.12,8.12v5.33Zm-77.7,0h47.62V55.51a8.16,8.16,0,0,0-8.12-8.12H72.19a8.16,8.16,0,0,0-8.12,8.12v5.33ZM224.3,161.15h-6.89v10.12h6.89V161.15Zm-188.24,0h-6.9v10.12h6.9V161.15ZM222.14,82.51a29.94,29.94,0,0,0-8.46-9,29.26,29.26,0,0,0-16.77-5.27H56.55A29.23,29.23,0,0,0,39.79,73.5a29.7,29.7,0,0,0-8.46,9ZM227.9,139a3.7,3.7,0,0,1,0,7.39H25.37a3.7,3.7,0,0,1,0-7.39ZM235,89.89H18.46A11.13,11.13,0,0,0,7.38,101v41.72a11.13,11.13,0,0,0,11.08,11.08H235a11.11,11.11,0,0,0,11.07-11.08V101A11.11,11.11,0,0,0,235,89.89Z"/></g></g></svg>