<svg xmlns="http://www.w3.org/2000/svg" viewBox="0 0 187.41 197.38"><defs><style>.cls-1{fill:#db3854;}</style></defs><g id="Layer_2" data-name="Layer 2"><g id="Layer_1-2" data-name="Layer 1"><path class="cls-1" d="M183.58,160.26,126.4,98.75l56.25-60.51A14.32,14.32,0,0,0,181.91,18L167.74,4.84a14.3,14.3,0,0,0-20.22.74L93.65,63.52,38.85,4.57a14.32,14.32,0,0,0-20.23-.74L4.57,16.9a14.3,14.3,0,0,0-.74,20.22L61,98.63,4.23,159.71A14.32,14.32,0,0,0,5,179.94l14.17,13.17a14.32,14.32,0,0,0,20.23-.74l54.39-58.51,54.8,59a14.33,14.33,0,0,0,20.23.73l14.05-13.06A14.32,14.32,0,0,0,183.58,160.26Z"/></g></g></svg>