<svg xmlns="http://www.w3.org/2000/svg" viewBox="0 0 177 85.01"><g id="Layer_2" data-name="Layer 2"><g id="Layer_1-2" data-name="Layer 1"><path d="M173.91,37.12,159.54,21.06A13.83,13.83,0,0,0,150.2,17h-18l1-9.5A6.68,6.68,0,0,0,126.47,0H40.8a7.79,7.79,0,0,0-7.66,6.92l-.41,4h-12a2.72,2.72,0,0,0,0,5.44H63.6a2.72,2.72,0,1,0,0-5.44H38.2l.36-3.4a2.41,2.41,0,0,1,2.24-2h85.67a1.24,1.24,0,0,1,1,.41,1.29,1.29,0,0,1,.31,1.07L121.35,68H71.75a12.87,12.87,0,0,0-3.23-7.3,13,13,0,0,0-9.82-4.26A16,16,0,0,0,43.7,68H33.65a1.24,1.24,0,0,1-1-.41,1.32,1.32,0,0,1-.31-1.07L34.19,49H47.11a2.72,2.72,0,0,0,0-5.44H2.72a2.72,2.72,0,1,0,0,5.44h26L26.94,66a6.68,6.68,0,0,0,6.71,7.48h9.57a12.81,12.81,0,0,0,3.23,7.3A13,13,0,0,0,56.27,85a16,16,0,0,0,15-11.56h61.9A12.86,12.86,0,0,0,146.22,85a16,16,0,0,0,15-11.56h6a7.79,7.79,0,0,0,7.65-6.92L177,46.86A14,14,0,0,0,173.91,37.12ZM66.34,70.44a9.89,9.89,0,0,1-.83,3,10.4,10.4,0,0,1-9.24,6.12,7.64,7.64,0,0,1-5.78-2.47,7.36,7.36,0,0,1-1.77-3.65A8.25,8.25,0,0,1,48.63,71a9.63,9.63,0,0,1,.83-3,10.4,10.4,0,0,1,9.24-6.12,7.64,7.64,0,0,1,5.78,2.46A7.43,7.43,0,0,1,66.25,68,8.55,8.55,0,0,1,66.34,70.44Zm89.95,0a9.89,9.89,0,0,1-.83,3,10.4,10.4,0,0,1-9.24,6.12,7.66,7.66,0,0,1-5.78-2.46,7.43,7.43,0,0,1-1.77-3.66,8.25,8.25,0,0,1-.09-2.44,9.63,9.63,0,0,1,.83-3,10.4,10.4,0,0,1,9.24-6.12,7.63,7.63,0,0,1,5.78,2.46A7.43,7.43,0,0,1,156.2,68,8.55,8.55,0,0,1,156.29,70.44Zm15.25-24.15L169.47,66a2.41,2.41,0,0,1-2.24,2H161.7a12.86,12.86,0,0,0-13-11.56,16,16,0,0,0-15,11.56h-6.83l4.79-45.59H150.2a8.59,8.59,0,0,1,5.29,2.27l14.36,16.05A8.71,8.71,0,0,1,171.54,46.29Z"/><path d="M152.83,29.72a7.38,7.38,0,0,0-4.28-1.86H137.83a1.54,1.54,0,0,0-1.5,1.37l-1.37,13a1.21,1.21,0,0,0,1.22,1.36h27.66c.75,0,1-.43.5-1Z"/><path d="M9.88,27.2H55.44a2.72,2.72,0,0,0,0-5.44H9.88a2.72,2.72,0,0,0,0,5.44Z"/><path d="M15.32,32.64a2.72,2.72,0,0,0,0,5.44H67.69a2.72,2.72,0,0,0,0-5.44Z"/></g></g></svg>