<svg xmlns="http://www.w3.org/2000/svg" viewBox="0 0 95.49 149.14"><defs><style>.cls-1,.cls-2{fill:none;stroke:#000;stroke-width:5.5px;}.cls-1{stroke-linecap:round;stroke-linejoin:round;}.cls-2{stroke-miterlimit:10;}</style></defs><g id="Layer_2" data-name="Layer 2"><g id="Layer_1-2" data-name="Layer 1"><circle class="cls-1" cx="46.96" cy="46.38" r="25.3" transform="translate(-7.12 84.22) rotate(-79.63)"/><polygon points="59.55 40 57.2 37.65 44.44 50.41 36.72 42.68 34.37 45.03 42.09 52.76 44.44 55.11 46.79 52.76 46.79 52.76 59.55 40"/><path class="cls-2" d="M3.33,46.38c0-3.73,4.52-6.8,5.44-10.24s-1.4-8.47.4-11.58S16.45,21,19,18.42s3-8,6.13-9.83,8,.54,11.58-.41S43.24,2.75,47,2.75s6.8,4.52,10.24,5.43,8.47-1.39,11.58.41,3.57,7.27,6.13,9.83,8,3,9.84,6.14-.55,8,.4,11.58,5.44,6.51,5.44,10.24-4.52,6.8-5.44,10.23,1.4,8.47-.4,11.59-7.28,3.57-9.84,6.13-3,8-6.13,9.84-8-.55-11.58.4S50.68,90,47,90s-6.8-4.51-10.24-5.43S28.25,86,25.14,84.16,21.57,76.89,19,74.33s-8-3-9.84-6.13.55-8-.4-11.59S3.33,50.1,3.33,46.38Z"/><path class="cls-2" d="M74.91,74.33c-2.56,2.56-3,8-6.13,9.84s-8-.55-11.58.4S50.68,90,47,90s-6.8-4.51-10.24-5.43S28.25,86,25.14,84.16,21.57,76.89,19,74.33s-8-3-9.84-6.13.55-8-.4-11.59S3.33,50.1,3.33,46.38s4.52-6.8,5.44-10.24-1.4-8.47.4-11.58S16.45,21,19,18.42s3-8,6.13-9.83,8,.54,11.58-.41S43.24,2.75,47,2.75s6.8,4.52,10.24,5.43,8.47-1.39,11.58.41,3.57,7.27,6.13,9.83,8,3,9.84,6.14-.55,8,.4,11.58,5.44,6.51,5.44,10.24-4.52,6.8-5.44,10.23,1.4,8.47-.4,11.59"/><path class="cls-2" d="M44.46,89.37c-2.67-1.27-5.1-4.09-7.74-4.8-3.55-.95-8.47,1.39-11.58-.41A4.66,4.66,0,0,1,24,83.25L4.91,129l5.79-2,12.47-4.32,5.19,13.09,2.42,6.09,17.8-42.62Z"/><path class="cls-2" d="M68.78,84.17c-3.11,1.79-8-.55-11.58.4S50.68,90,47,90a5.6,5.6,0,0,1-2.38-.58l20.13,48.21,2.42-6.09,5.19-13.09,12.47,4.32,5.8,2L71.87,80C71.1,81.71,70.23,83.32,68.78,84.17Z"/></g></g></svg>