<svg width="29" height="29" viewBox="0 0 29 29" fill="none" xmlns="http://www.w3.org/2000/svg">
<g clip-path="url(#clip0_1319_14107)">
<path d="M2.55873 19.5021C2.1033 19.5021 1.70461 19.2106 1.56706 18.777C1.1339 17.4124 0.914062 15.988 0.914062 14.5437C0.914062 10.8051 2.37246 7.29007 5.02069 4.64641C7.66892 2.00276 11.19 0.546875 14.9351 0.546875C16.8501 0.546875 18.7048 0.923523 20.4481 1.66674C21.954 2.30882 23.318 3.19884 24.5117 4.31781L24.4371 2.05347C24.4184 1.48108 24.8693 1.00004 25.443 0.981059C25.4546 0.980762 25.4662 0.980465 25.4781 0.980465C26.0422 0.980465 26.4986 1.42177 26.5173 1.98526L26.6857 7.10412C26.6961 7.42086 26.5639 7.7207 26.323 7.92682C26.1346 8.08815 25.894 8.17713 25.6456 8.17713C25.5812 8.17713 25.5164 8.17119 25.4531 8.15903L20.274 7.18538C19.7101 7.07951 19.3379 6.53529 19.4439 5.9724C19.5366 5.48186 19.9662 5.12568 20.4656 5.12568C20.5301 5.12568 20.5952 5.13191 20.659 5.14377L22.7624 5.5391C21.8153 4.71463 20.752 4.05119 19.591 3.56125C18.118 2.93963 16.5515 2.62438 14.9351 2.62438C8.35133 2.62438 2.99515 7.9713 2.99515 14.5437C2.99515 15.7748 3.18202 16.988 3.551 18.1494C3.7242 18.6954 3.42028 19.2803 2.87335 19.4535C2.77115 19.4858 2.66539 19.5021 2.55873 19.5021Z" fill="black"/>
<path d="M14.9348 28.7007C13.0198 28.7007 11.1651 28.3241 9.42179 27.5809C7.91586 26.9388 6.55194 26.0488 5.35824 24.9301L5.43281 27.1944C5.44202 27.4717 5.3422 27.736 5.15236 27.9385C4.96252 28.1411 4.70465 28.2576 4.42687 28.2668C4.41588 28.2671 4.404 28.2674 4.39212 28.2674C3.82765 28.2674 3.37103 27.8261 3.35261 27.2626L3.18416 22.1438C3.17376 21.827 3.30597 21.5272 3.5469 21.3211C3.73526 21.1597 3.9759 21.0711 4.22426 21.0711C4.28873 21.0711 4.35349 21.077 4.41677 21.0892L9.59589 22.0628C10.1597 22.169 10.532 22.7129 10.4259 23.2758C10.3335 23.7663 9.90367 24.1225 9.40427 24.1225C9.3398 24.1225 9.27474 24.1163 9.21086 24.1044L7.10749 23.7091C8.0546 24.5336 9.11787 25.197 10.2789 25.6869C11.7518 26.3086 13.3184 26.6238 14.9348 26.6238C21.5186 26.6238 26.8747 21.2769 26.8747 14.7045C26.8747 13.4734 26.6879 12.2605 26.3189 11.0988C26.1457 10.5528 26.4493 9.96763 26.9962 9.79472C27.0984 9.7624 27.2042 9.74609 27.3109 9.74609C27.7663 9.74609 28.165 10.0376 28.3025 10.4712C28.736 11.8361 28.9555 13.2602 28.9555 14.7045C28.9555 18.4431 27.4971 21.9581 24.8489 24.6018C22.2007 27.2454 18.6799 28.7007 14.9348 28.7007Z" fill="black"/>
</g>
<defs>
<clipPath id="clip0_1319_14107">
<rect width="29" height="29" fill="white"/>
</clipPath>
</defs>
</svg>
