<svg width="29" height="29" viewBox="0 0 29 29" fill="none" xmlns="http://www.w3.org/2000/svg">
<path d="M2.55922 19.5016C2.10379 19.5016 1.7051 19.2101 1.56755 18.7765C1.13439 17.4119 0.914551 15.9875 0.914551 14.5432C0.914551 10.8046 2.37295 7.28958 5.02118 4.64592C7.66941 2.00227 11.1905 0.546387 14.9356 0.546387C16.8506 0.546387 18.7053 0.923035 20.4486 1.66625C21.9545 2.30833 23.3185 3.19835 24.5122 4.31732L24.4376 2.05298C24.4189 1.48059 24.8698 0.999551 25.4435 0.980571C25.4551 0.980274 25.4667 0.979977 25.4786 0.979977C26.0427 0.979977 26.4991 1.42128 26.5178 1.98477L26.6862 7.10363C26.6966 7.42037 26.5644 7.72021 26.3235 7.92633C26.1351 8.08766 25.8945 8.17664 25.6461 8.17664C25.5817 8.17664 25.5169 8.1707 25.4536 8.15854L20.2745 7.18489C19.7106 7.07902 19.3384 6.5348 19.4444 5.97191C19.5371 5.48137 19.9667 5.12519 20.4661 5.12519C20.5306 5.12519 20.5957 5.13142 20.6595 5.14328L22.7629 5.53861C21.8158 4.71414 20.7525 4.0507 19.5915 3.56076C18.1185 2.93914 16.552 2.62389 14.9356 2.62389C8.35182 2.62389 2.99564 7.97081 2.99564 14.5432C2.99564 15.7743 3.18251 16.9875 3.55149 18.1489C3.72469 18.6949 3.42077 19.2798 2.87384 19.453C2.77164 19.4853 2.66588 19.5016 2.55922 19.5016Z" fill="#3C6447"/>
<path d="M14.9358 28.7002C13.0208 28.7002 11.1661 28.3236 9.42277 27.5804C7.91684 26.9383 6.55292 26.0483 5.35922 24.9296L5.43379 27.1939C5.443 27.4712 5.34318 27.7355 5.15334 27.938C4.9635 28.1406 4.70563 28.2571 4.42785 28.2663C4.41686 28.2666 4.40498 28.2669 4.3931 28.2669C3.82863 28.2669 3.37201 27.8256 3.35359 27.2621L3.18514 22.1433C3.17474 21.8265 3.30695 21.5267 3.54788 21.3206C3.73624 21.1592 3.97688 21.0706 4.22524 21.0706C4.28971 21.0706 4.35447 21.0765 4.41775 21.0887L9.59687 22.0623C10.1607 22.1685 10.533 22.7124 10.4269 23.2753C10.3345 23.7658 9.90465 24.122 9.40525 24.122C9.34078 24.122 9.27572 24.1158 9.21184 24.1039L7.10847 23.7086C8.05558 24.5331 9.11885 25.1965 10.2799 25.6864C11.7528 26.3081 13.3194 26.6233 14.9358 26.6233C21.5196 26.6233 26.8757 21.2764 26.8757 14.704C26.8757 13.4729 26.6889 12.26 26.3199 11.0983C26.1467 10.5523 26.4503 9.96715 26.9972 9.79424C27.0994 9.76192 27.2052 9.74561 27.3119 9.74561C27.7673 9.74561 28.166 10.0371 28.3035 10.4707C28.737 11.8356 28.9565 13.2597 28.9565 14.704C28.9565 18.4426 27.4981 21.9576 24.8499 24.6013C22.2017 27.2449 18.6806 28.7008 14.9355 28.7008L14.9358 28.7002Z" fill="#3C6447"/>
</svg>
