<svg width="50" height="39" viewBox="0 0 50 39" fill="none" xmlns="http://www.w3.org/2000/svg">
<g id="mastercard">
<path id="Vector" d="M9.09187 38.714V36.1397C9.09187 35.1529 8.49119 34.5094 7.46146 34.5094C6.9466 34.5094 6.38883 34.681 6.00268 35.2387C5.70234 34.7668 5.27329 34.5094 4.62971 34.5094C4.20065 34.5094 3.7716 34.6381 3.42836 35.11V34.5952H2.52734V38.714H3.42836V36.4401C3.42836 35.7107 3.81451 35.3675 4.41518 35.3675C5.01586 35.3675 5.31619 35.7536 5.31619 36.4401V38.714H6.21721V36.4401C6.21721 35.7107 6.64626 35.3675 7.20403 35.3675C7.80471 35.3675 8.10504 35.7536 8.10504 36.4401V38.714H9.09187ZM22.4354 34.5952H20.9767V33.351H20.0756V34.5952H19.2604V35.4104H20.0756V37.2981C20.0756 38.242 20.4618 38.7998 21.4915 38.7998C21.8777 38.7998 22.3067 38.6711 22.6071 38.4994L22.3496 37.7272C22.0922 37.8988 21.7919 37.9417 21.5773 37.9417C21.1483 37.9417 20.9767 37.6843 20.9767 37.2552V35.4104H22.4354V34.5952ZM30.0726 34.5094C29.5577 34.5094 29.2145 34.7668 29 35.11V34.5952H28.0989V38.714H29V36.3972C29 35.7107 29.3003 35.3246 29.8581 35.3246C30.0297 35.3246 30.2442 35.3675 30.4158 35.4104L30.6733 34.5523C30.5017 34.5094 30.2442 34.5094 30.0726 34.5094ZM18.531 34.9384C18.102 34.6381 17.5013 34.5094 16.8577 34.5094C15.828 34.5094 15.1415 35.0242 15.1415 35.8394C15.1415 36.5259 15.6564 36.912 16.5574 37.0407L16.9865 37.0836C17.4584 37.1694 17.7158 37.2981 17.7158 37.5127C17.7158 37.813 17.3726 38.0275 16.7719 38.0275C16.1713 38.0275 15.6993 37.813 15.399 37.5985L14.9699 38.2849C15.4419 38.6282 16.0854 38.7998 16.729 38.7998C17.9304 38.7998 18.6169 38.242 18.6169 37.4697C18.6169 36.7404 18.0591 36.3542 17.201 36.2255L16.7719 36.1826C16.3858 36.1397 16.0854 36.0539 16.0854 35.7965C16.0854 35.4962 16.3858 35.3246 16.8577 35.3246C17.3726 35.3246 17.8875 35.5391 18.1449 35.6678L18.531 34.9384ZM42.4723 34.5094C41.9574 34.5094 41.6141 34.7668 41.3996 35.11V34.5952H40.4986V38.714H41.3996V36.3972C41.3996 35.7107 41.7 35.3246 42.2577 35.3246C42.4293 35.3246 42.6439 35.3675 42.8155 35.4104L43.0729 34.5523C42.9013 34.5094 42.6439 34.5094 42.4723 34.5094ZM30.9736 36.6546C30.9736 37.8988 31.8317 38.7998 33.1618 38.7998C33.7625 38.7998 34.1915 38.6711 34.6206 38.3278L34.1915 37.5985C33.8483 37.8559 33.505 37.9846 33.1189 37.9846C32.3895 37.9846 31.8746 37.4697 31.8746 36.6546C31.8746 35.8823 32.3895 35.3675 33.1189 35.3246C33.505 35.3246 33.8483 35.4533 34.1915 35.7107L34.6206 34.9813C34.1915 34.6381 33.7625 34.5094 33.1618 34.5094C31.8317 34.5094 30.9736 35.4104 30.9736 36.6546ZM39.2973 36.6546V34.5952H38.3962V35.11C38.0959 34.7239 37.6669 34.5094 37.1091 34.5094C35.9506 34.5094 35.0496 35.4104 35.0496 36.6546C35.0496 37.8988 35.9506 38.7998 37.1091 38.7998C37.7098 38.7998 38.1388 38.5853 38.3962 38.1991V38.714H39.2973V36.6546ZM35.9935 36.6546C35.9935 35.9252 36.4655 35.3246 37.2378 35.3246C37.9672 35.3246 38.4821 35.8823 38.4821 36.6546C38.4821 37.3839 37.9672 37.9846 37.2378 37.9846C36.4655 37.9417 35.9935 37.3839 35.9935 36.6546ZM25.2243 34.5094C24.0229 34.5094 23.1648 35.3675 23.1648 36.6546C23.1648 37.9417 24.0229 38.7998 25.2672 38.7998C25.8679 38.7998 26.4685 38.6282 26.9405 38.242L26.5115 37.5985C26.1682 37.8559 25.7392 38.0275 25.3101 38.0275C24.7523 38.0275 24.1946 37.7701 24.0658 37.0407H27.1121V36.6975C27.155 35.3675 26.3827 34.5094 25.2243 34.5094ZM25.2243 35.2817C25.7821 35.2817 26.1682 35.6249 26.254 36.2684H24.1088C24.1946 35.7107 24.5807 35.2817 25.2243 35.2817ZM47.578 36.6546V32.9648H46.677V35.11C46.3766 34.7239 45.9476 34.5094 45.3898 34.5094C44.2314 34.5094 43.3304 35.4104 43.3304 36.6546C43.3304 37.8988 44.2314 38.7998 45.3898 38.7998C45.9905 38.7998 46.4196 38.5853 46.677 38.1991V38.714H47.578V36.6546ZM44.2743 36.6546C44.2743 35.9252 44.7462 35.3246 45.5185 35.3246C46.2479 35.3246 46.7628 35.8823 46.7628 36.6546C46.7628 37.3839 46.2479 37.9846 45.5185 37.9846C44.7462 37.9417 44.2743 37.3839 44.2743 36.6546ZM14.1547 36.6546V34.5952H13.2537V35.11C12.9534 34.7239 12.5243 34.5094 11.9665 34.5094C10.8081 34.5094 9.90707 35.4104 9.90707 36.6546C9.90707 37.8988 10.8081 38.7998 11.9665 38.7998C12.5672 38.7998 12.9963 38.5853 13.2537 38.1991V38.714H14.1547V36.6546ZM10.8081 36.6546C10.8081 35.9252 11.28 35.3246 12.0523 35.3246C12.7817 35.3246 13.2966 35.8823 13.2966 36.6546C13.2966 37.3839 12.7817 37.9846 12.0523 37.9846C11.28 37.9417 10.8081 37.3839 10.8081 36.6546Z" fill="black"/>
<path id="Vector_2" d="M31.7467 3.29688H18.2305V27.5801H31.7467V3.29688Z" fill="#FF5F00"/>
<path id="Vector_3" d="M19.0942 15.443C19.0942 10.5098 21.4112 6.13431 24.9726 3.30309C22.3552 1.24402 19.0513 0 15.447 0C6.90823 0 0 6.90646 0 15.443C0 23.9796 6.90823 30.886 15.447 30.886C19.0513 30.886 22.3552 29.642 24.9726 27.5829C21.4112 24.7946 19.0942 20.3762 19.0942 15.443Z" fill="#EB001B"/>
<path id="Vector_4" d="M49.9999 15.443C49.9999 23.9796 43.0917 30.886 34.553 30.886C30.9487 30.886 27.6447 29.642 25.0273 27.5829C28.6316 24.7517 30.9058 20.3762 30.9058 15.443C30.9058 10.5098 28.5887 6.13431 25.0273 3.30309C27.6447 1.24402 30.9487 0 34.553 0C43.0917 0 49.9999 6.94935 49.9999 15.443Z" fill="#F79E1B"/>
</g>
</svg>
