<svg width="41" height="33" viewBox="0 0 41 33" fill="none" xmlns="http://www.w3.org/2000/svg">
<path d="M6.11116 0.664063C4.57741 0.664063 3.10647 1.27334 2.02194 2.35787C0.937408 3.4424 0.328125 4.91334 0.328125 6.4471V7.89286H40.8094V6.4471C40.8094 5.68766 40.6598 4.93566 40.3692 4.23403C40.0785 3.5324 39.6526 2.89488 39.1156 2.35787C38.5786 1.82087 37.941 1.39489 37.2394 1.10427C36.5378 0.813644 35.7858 0.664062 35.0263 0.664063H6.11116Z" fill="white"/>
<path fill-rule="evenodd" clip-rule="evenodd" d="M40.8094 12.2305H0.328125V26.6881C0.328126 28.2218 0.937408 29.6928 2.02194 30.7773C3.10647 31.8618 4.57741 32.4711 6.11116 32.4711H35.0263C36.5601 32.4711 38.031 31.8618 39.1156 30.7773C40.2001 29.6928 40.8094 28.2218 40.8094 26.6881V12.2305ZM6.11116 19.4593C6.11116 19.2694 6.14856 19.0814 6.22121 18.906C6.29387 18.7306 6.40036 18.5712 6.53461 18.437C6.66887 18.3027 6.82824 18.1962 7.00365 18.1236C7.17906 18.0509 7.36706 18.0135 7.55692 18.0135H19.123C19.5064 18.0135 19.8742 18.1658 20.1453 18.437C20.4164 18.7081 20.5688 19.0758 20.5688 19.4593C20.5688 19.8427 20.4164 20.2104 20.1453 20.4816C19.8742 20.7527 19.5064 20.905 19.123 20.905H7.55692C7.36706 20.905 7.17906 20.8676 7.00365 20.795C6.82824 20.7223 6.66887 20.6158 6.53461 20.4816C6.40036 20.3473 6.29387 20.1879 6.22121 20.0125C6.14856 19.8371 6.11116 19.6491 6.11116 19.4593ZM7.55692 23.7965C7.17348 23.7965 6.80575 23.9489 6.53461 24.22C6.26348 24.4911 6.11116 24.8589 6.11116 25.2423C6.11116 25.6257 6.26348 25.9935 6.53461 26.2646C6.80575 26.5357 7.17348 26.6881 7.55692 26.6881H13.34C13.7234 26.6881 14.0911 26.5357 14.3623 26.2646C14.6334 25.9935 14.7857 25.6257 14.7857 25.2423C14.7857 24.8589 14.6334 24.4911 14.3623 24.22C14.0911 23.9489 13.7234 23.7965 13.34 23.7965H7.55692Z" fill="white"/>
</svg>
