<!-- Generator: Adobe Illustrator 24.3.0, SVG Export Plug-In  -->
<svg version="1.1" xmlns="http://www.w3.org/2000/svg" xmlns:xlink="http://www.w3.org/1999/xlink" x="0px" y="0px" width="571px"
	 height="540px" viewBox="0 0 571 540" style="overflow:visible;enable-background:new 0 0 571 540;" xml:space="preserve">
<style type="text/css">
	.st0{fill:#231F20;}
</style>
<defs>
</defs>
<g id="g1087-9_1_" transform="matrix(1.1609628,0,0,1.1609628,-425.94408,-10.480339)">
	<path id="path1081-6_1_" class="st0" d="M607.9,9c-57,0-109.3,36.9-125.1,102.2c-11.1,13.9-23.1,27.8-27.1,40.8
		c2.7,6.9,6.6,6.3,11.4,6.5C492.5,94.1,581,82.9,635.7,83.4c-52.8,7.6-101.4,24.1-139.4,53.8c93.6,107.3,153.4-32.5,278.1,30.3
		C744.9,57.7,673.4,9.1,607.9,9L607.9,9z"/>
	<path id="path1083-1_1_" class="st0" d="M841.5,399c28.5-49.4,22.8-113.1-26-159.5c-6.5-16.5-12.6-33.9-21.8-43.9
		c-7.3-1.1-8.8,2.6-11.4,6.6c43.2,54.2,8.7,136.5-19.2,183.6c19.8-49.5,29.8-99.8,23.1-147.6c-139.7,27.4-48.5,149.1-165.3,225.7
		C730.9,493.3,808.8,455.6,841.5,399L841.5,399z"/>
	<path id="path1085-9_1_" class="st0" d="M385.4,403.9c28.5,49.4,86.6,76.3,151.1,57.3c17.5,2.7,35.6,6.1,48.9,3
		c4.6-5.8,2.1-8.9,0-13.2c-68.6,10.3-122.5-60.7-149.4-108.4c33,42,71.5,75.8,116.3,93.8c46.1-134.7-104.9-116.6-112.8-256
		C359,260.9,352.7,347.2,385.4,403.9L385.4,403.9z"/>
</g>
</svg>
