<!-- Generator: Adobe Illustrator 24.3.0, SVG Export Plug-In  -->
<svg version="1.1" xmlns="http://www.w3.org/2000/svg" xmlns:xlink="http://www.w3.org/1999/xlink" x="0px" y="0px" width="456.4px"
	 height="539.8px" viewBox="0 0 456.4 539.8" style="overflow:visible;enable-background:new 0 0 456.4 539.8;"
	 xml:space="preserve">
<style type="text/css">
	.st0{fill:#231F20;}
</style>
<defs>
</defs>
<g id="g1079-1_1_" transform="translate(115.07039,-216.27752)">
	<path id="path1073-1_1_" class="st0" d="M-44.8,659c-14.6-54.5,9-111.4,46.6-162.8c-37-15.5-76.7-30.6-116.9-46.8l27.4-127.1
		c47,25.6,106.1,58,160.6,95.1c63.2-59.2,127.5-99.1,128-98.4c0,0-45.9,54.1-92.3,124c57,43.4,103.5,92.2,116.3,143.7
		c22,81.9-24.5,142.6-100.8,163C47.8,770.3-22.8,741-44.8,659z M121.6,739.5c41.5-11.1,79.1-44.9,64.8-98.2
		c-17.1-51.5-64.2-87.4-125.8-118.3C28.9,582.4,6.8,643,15.9,687C30.2,740.3,80.1,750.6,121.6,739.5z"/>
	<path id="path1075-0_1_" class="st0" d="M177.6,317.4c-13.9,1.6-53.5,4-75.8-18.3c-22.3-22.3-19.9-61.9-18.3-75.8L177.6,317.4z
		 M183.7,311.4l-94.1-94.1c13.9-1.6,53.5-4,75.8,18.3C187.6,257.9,185.3,297.5,183.7,311.4z"/>
	<path id="path1077-7_1_" class="st0" d="M341.3,298.5c-5.6,12.8-23.3,48.3-53.8,56.5c-30.4,8.2-63.6-13.7-74.8-22L341.3,298.5z
		 M339.1,290.2l-128.6,34.4c5.6-12.8,23.3-48.3,53.8-56.5C294.8,260,327.9,281.9,339.1,290.2z"/>
</g>
</svg>
