<svg xmlns="http://www.w3.org/2000/svg" viewBox="0 0 127.43 127.43"><g id="Layer_2" data-name="Layer 2"><g id="Layer_1-2" data-name="Layer 1"><path d="M64.32,36.88a4.54,4.54,0,0,0,.87,1.76,2.11,2.11,0,0,0,1.72.72,2.17,2.17,0,0,0,1.75-.72,4.57,4.57,0,0,0,.89-1.76,9.86,9.86,0,0,0,.32-2.13c0-.74,0-1.37,0-1.89,0-.31,0-.69,0-1.13A12.46,12.46,0,0,0,69.55,29,4.75,4.75,0,0,0,69,27.74a2.78,2.78,0,0,0-.86-.88,2.25,2.25,0,0,0-1.27-.34,2.15,2.15,0,0,0-1.26.34,2.72,2.72,0,0,0-.84.88,5.11,5.11,0,0,0-.5,1.24,9.45,9.45,0,0,0-.26,1.39c0,.47-.08.92-.09,1.36s0,.82,0,1.13q0,.78.06,1.89A9.86,9.86,0,0,0,64.32,36.88Z"/><path d="M82.14,91a3.21,3.21,0,0,0-1.47.3,2.68,2.68,0,0,0-.93.74,2.64,2.64,0,0,0-.5.93,4.91,4.91,0,0,0-.17.89h6a4.21,4.21,0,0,0-.92-2.13A2.59,2.59,0,0,0,82.14,91Z"/><path d="M49.86,36.88a4.7,4.7,0,0,0,.88,1.76,2.09,2.09,0,0,0,1.71.72,2.19,2.19,0,0,0,1.76-.72,4.56,4.56,0,0,0,.88-1.76,10.52,10.52,0,0,0,.33-2.13c0-.74,0-1.37,0-1.89,0-.31,0-.69,0-1.13a10.76,10.76,0,0,0-.1-1.36A13.08,13.08,0,0,0,55.09,29a4.15,4.15,0,0,0-.51-1.24,2.75,2.75,0,0,0-.85-.88,2.29,2.29,0,0,0-1.28-.34,2.2,2.2,0,0,0-1.26.34,2.59,2.59,0,0,0-.83.88A4.75,4.75,0,0,0,49.85,29a9.45,9.45,0,0,0-.26,1.39c-.05.47-.08.92-.09,1.36s0,.82,0,1.13c0,.52,0,1.15,0,1.89A9.86,9.86,0,0,0,49.86,36.88Z"/><path d="M53.73,69.94a3.31,3.31,0,0,0,1.69-.37,2.45,2.45,0,0,0,.88-.87,2.74,2.74,0,0,0,.35-1,7.88,7.88,0,0,0,.07-.83V65.46a1.77,1.77,0,0,1-.59.33,5.13,5.13,0,0,1-.75.19,7.21,7.21,0,0,1-.85.13l-.88.13a7.58,7.58,0,0,0-.82.21,2.7,2.7,0,0,0-.7.35,1.66,1.66,0,0,0-.67,1.42,1.62,1.62,0,0,0,.19.83,1.32,1.32,0,0,0,.49.53,2.06,2.06,0,0,0,.73.28A4.74,4.74,0,0,0,53.73,69.94Z"/><path d="M67.22,91a3.21,3.21,0,0,0-1.47.3,2.81,2.81,0,0,0-.94.74,2.78,2.78,0,0,0-.49.93,4.17,4.17,0,0,0-.17.89h6a4.21,4.21,0,0,0-.93-2.13A2.56,2.56,0,0,0,67.22,91Z"/><path d="M63.72,0a63.72,63.72,0,1,0,63.71,63.72A63.72,63.72,0,0,0,63.72,0Zm30,23.27L83,42.59H80.77L91.53,23.27ZM76.37,26.62A4.46,4.46,0,0,1,77.18,25a3.77,3.77,0,0,1,1.38-1.11,4.44,4.44,0,0,1,2-.4,4.5,4.5,0,0,1,2,.41A3.69,3.69,0,0,1,83.87,25a4.55,4.55,0,0,1,.72,1.68,9.5,9.5,0,0,1,.21,2,7.15,7.15,0,0,1-.26,2,4.3,4.3,0,0,1-.8,1.55,3.57,3.57,0,0,1-1.36,1,4.83,4.83,0,0,1-2,.37,4.77,4.77,0,0,1-2-.38,3.46,3.46,0,0,1-1.33-1,4.16,4.16,0,0,1-.73-1.59,8.28,8.28,0,0,1-.22-2A7.63,7.63,0,0,1,76.37,26.62ZM76,58.6h2.24v-4h3.69v4h2.7v2.47h-2.7v6.66A1.77,1.77,0,0,0,82.22,69a1.79,1.79,0,0,0,1.25.32,5.74,5.74,0,0,0,.6,0,4.37,4.37,0,0,0,.54-.08V72a9.79,9.79,0,0,1-1,.11l-1.12,0a10.45,10.45,0,0,1-1.62-.12,3.77,3.77,0,0,1-1.35-.45,2.52,2.52,0,0,1-.93-1A3.51,3.51,0,0,1,78.22,69V61.07H76ZM60.78,28.4a8,8,0,0,1,1.45-2.89A5.07,5.07,0,0,1,64.35,24a7.26,7.26,0,0,1,5.14,0,5.26,5.26,0,0,1,2.14,1.56,7.83,7.83,0,0,1,1.45,2.89,15.85,15.85,0,0,1,.54,4.46,16.49,16.49,0,0,1-.54,4.57,7.9,7.9,0,0,1-1.45,2.92,5.26,5.26,0,0,1-2.14,1.56,7.26,7.26,0,0,1-5.14,0,5.07,5.07,0,0,1-2.12-1.56,8.06,8.06,0,0,1-1.45-2.92,16.92,16.92,0,0,1-.53-4.57A16.27,16.27,0,0,1,60.78,28.4Zm-14.45,0a7.82,7.82,0,0,1,1.44-2.89A5.14,5.14,0,0,1,49.89,24a6.88,6.88,0,0,1,2.56-.47A7,7,0,0,1,55,24a5.3,5.3,0,0,1,2.13,1.56,7.84,7.84,0,0,1,1.46,2.89,16.27,16.27,0,0,1,.53,4.46,16.92,16.92,0,0,1-.53,4.57,7.91,7.91,0,0,1-1.46,2.92A5.3,5.3,0,0,1,55,41.91a7.17,7.17,0,0,1-2.59.47,7.09,7.09,0,0,1-2.56-.47,5.14,5.14,0,0,1-2.12-1.56,7.89,7.89,0,0,1-1.44-2.92,16.53,16.53,0,0,1-.53-4.57A15.89,15.89,0,0,1,46.33,28.4ZM41.74,53.48h3.69V72H41.74ZM39.06,68.06A6.55,6.55,0,0,1,38,70.27a5.35,5.35,0,0,1-4.44,2.11,5.2,5.2,0,0,1-2.3-.51,4.36,4.36,0,0,1-1.73-1.49h0v6.37H25.75V58.6h3.51v1.72h0A4,4,0,0,1,31,58.73a5.23,5.23,0,0,1,2.29-.49,5.85,5.85,0,0,1,2.73.59,5.62,5.62,0,0,1,1.89,1.59,6.49,6.49,0,0,1,1.12,2.3,10.35,10.35,0,0,1,.37,2.74A9.34,9.34,0,0,1,39.06,68.06ZM41,42h-3.7V30.24H32.72V27.46a8.76,8.76,0,0,0,1.86-.15,4.79,4.79,0,0,0,1.61-.6,3.94,3.94,0,0,0,1.21-1.13,4.05,4.05,0,0,0,.65-1.74H41Zm9.07,44.3a11.67,11.67,0,0,0-1.35-.08,1.41,1.41,0,0,0-1.08.35,1.7,1.7,0,0,0-.33,1.18v.81h2.55v2.47H47.3v11H43.61v-11H41.4V88.6h2.21v-1a4,4,0,0,1,1.12-2.94,4.53,4.53,0,0,1,3.38-1.14c.33,0,.66,0,1,0l1,.06Zm-1-14.92a3.46,3.46,0,0,1-1-1.25,4.26,4.26,0,0,1-.35-1.79,4,4,0,0,1,.4-1.89,3.41,3.41,0,0,1,1-1.18,4.65,4.65,0,0,1,1.46-.67c.55-.14,1.1-.26,1.65-.35s1.1-.15,1.64-.2a10.11,10.11,0,0,0,1.43-.24,2.46,2.46,0,0,0,1-.45,1,1,0,0,0,.34-.87,2,2,0,0,0-.2-1A1.38,1.38,0,0,0,56,61a2,2,0,0,0-.75-.26,6.81,6.81,0,0,0-.93-.06,2.8,2.8,0,0,0-1.71.46,2.11,2.11,0,0,0-.73,1.56H48.19a4.16,4.16,0,0,1,2.1-3.53,6.16,6.16,0,0,1,2-.74,11.17,11.17,0,0,1,2.23-.22,14.32,14.32,0,0,1,2.05.14,6.09,6.09,0,0,1,1.9.56,3.66,3.66,0,0,1,1.4,1.15,3.22,3.22,0,0,1,.55,2v7a13.81,13.81,0,0,0,.1,1.74A3,3,0,0,0,60.88,72H57.13c-.07-.21-.12-.42-.17-.64a6.57,6.57,0,0,1-.09-.66A4.85,4.85,0,0,1,54.79,72a8.43,8.43,0,0,1-2.44.36,6.93,6.93,0,0,1-1.8-.23A4.13,4.13,0,0,1,49.1,71.42Zm11,20.38a4.36,4.36,0,0,0-.62-.09,5.8,5.8,0,0,0-.7,0,3.88,3.88,0,0,0-1.72.34,2.86,2.86,0,0,0-1.13.92,3.59,3.59,0,0,0-.61,1.36A7.55,7.55,0,0,0,55.16,96V102h-3.7V88.6H55v2.5H55a4.18,4.18,0,0,1,.7-1.16,4.37,4.37,0,0,1,1-.91A5.09,5.09,0,0,1,58,88.44a4.44,4.44,0,0,1,1.36-.2,2.72,2.72,0,0,1,.8.13Zm13.73,4.42h-9.7a3.76,3.76,0,0,0,.91,2.6,3.33,3.33,0,0,0,2.39.8,3.25,3.25,0,0,0,1.93-.56,2.37,2.37,0,0,0,1-1.18h3.25a6.15,6.15,0,0,1-2.4,3.46,7,7,0,0,1-3.9,1,7.67,7.67,0,0,1-2.86-.51,5.9,5.9,0,0,1-2.15-1.44,6.44,6.44,0,0,1-1.37-2.24,8.17,8.17,0,0,1-.48-2.86,7.78,7.78,0,0,1,.49-2.8,6.56,6.56,0,0,1,3.58-3.75,7,7,0,0,1,2.79-.54,6.4,6.4,0,0,1,3,.66,6,6,0,0,1,2.1,1.78,7.28,7.28,0,0,1,1.18,2.55A9.54,9.54,0,0,1,73.85,96.22ZM74.54,70a4.26,4.26,0,0,1-1.39,1.44,5.64,5.64,0,0,1-2,.77,11.12,11.12,0,0,1-2.24.22,11.55,11.55,0,0,1-2.29-.23,6.18,6.18,0,0,1-2-.78,4.3,4.3,0,0,1-2-3.7h3.51a2.09,2.09,0,0,0,.24,1,2.16,2.16,0,0,0,.64.7,2.85,2.85,0,0,0,.9.41,4.57,4.57,0,0,0,1,.13,3.46,3.46,0,0,0,.82-.1,2.67,2.67,0,0,0,.78-.28,1.83,1.83,0,0,0,.59-.52,1.42,1.42,0,0,0,.23-.82c0-.56-.37-1-1.11-1.25a21.73,21.73,0,0,0-3.08-.83c-.53-.12-1.06-.26-1.57-.43a5,5,0,0,1-1.36-.65,3.33,3.33,0,0,1-1-1,2.92,2.92,0,0,1-.36-1.5,4,4,0,0,1,.51-2.13,3.58,3.58,0,0,1,1.34-1.31,5.78,5.78,0,0,1,1.87-.68,11.48,11.48,0,0,1,2.13-.19,10.59,10.59,0,0,1,2.12.2,5.68,5.68,0,0,1,1.83.71,4,4,0,0,1,1.34,1.31,4.33,4.33,0,0,1,.64,2.07H71.2a1.6,1.6,0,0,0-.81-1.45,3.68,3.68,0,0,0-1.71-.37l-.68,0a2.66,2.66,0,0,0-.66.17,1.48,1.48,0,0,0-.51.38A1.1,1.1,0,0,0,67,62.76a2.7,2.7,0,0,0,.94.51,13.53,13.53,0,0,0,1.34.35c.51.1,1,.21,1.54.34a14,14,0,0,1,1.57.44,5,5,0,0,1,1.37.69,3.48,3.48,0,0,1,1,1.06,3.18,3.18,0,0,1,.36,1.58A4.34,4.34,0,0,1,74.54,70ZM88.77,96.22h-9.7a3.76,3.76,0,0,0,.92,2.6,3.32,3.32,0,0,0,2.39.8,3.24,3.24,0,0,0,1.92-.56,2.27,2.27,0,0,0,1-1.18h3.25a6.19,6.19,0,0,1-2.39,3.46,7.09,7.09,0,0,1-3.9,1,7.63,7.63,0,0,1-2.86-.51,6,6,0,0,1-2.16-1.44,6.44,6.44,0,0,1-1.37-2.24,8.17,8.17,0,0,1-.48-2.86,7.78,7.78,0,0,1,.5-2.8,6.49,6.49,0,0,1,1.4-2.25,6.64,6.64,0,0,1,2.17-1.5,7,7,0,0,1,2.8-.54,6.43,6.43,0,0,1,3,.66,5.92,5.92,0,0,1,2.09,1.78,7.11,7.11,0,0,1,1.18,2.55A9.25,9.25,0,0,1,88.77,96.22ZM90.18,72h-3.7V58.6h3.7Zm0-15.52h-3.7v-3h3.7Zm.3-15.61a4.45,4.45,0,0,1-.73-1.62,8.66,8.66,0,0,1-.22-2,6.85,6.85,0,0,1,.26-2,4.41,4.41,0,0,1,.8-1.59A3.93,3.93,0,0,1,92,32.66a4.63,4.63,0,0,1,2-.39,4.53,4.53,0,0,1,2,.4,3.67,3.67,0,0,1,1.31,1.09A4.24,4.24,0,0,1,98,35.39a9.09,9.09,0,0,1,.21,2,7.22,7.22,0,0,1-.26,2A4.56,4.56,0,0,1,97.16,41a3.59,3.59,0,0,1-1.37,1,5.36,5.36,0,0,1-4,0A3.42,3.42,0,0,1,90.48,40.91ZM103.85,71a6.74,6.74,0,0,1-4.39,1.4,7.3,7.3,0,0,1-2.77-.51,6.28,6.28,0,0,1-2.15-1.41,6.57,6.57,0,0,1-1.37-2.18,7.49,7.49,0,0,1-.5-2.76,8.77,8.77,0,0,1,.46-2.9,6.43,6.43,0,0,1,1.34-2.32,6.27,6.27,0,0,1,2.15-1.52,7.42,7.42,0,0,1,2.92-.54,8.4,8.4,0,0,1,2.3.31,6.1,6.1,0,0,1,2,1,5,5,0,0,1,1.42,1.58,5.1,5.1,0,0,1,.62,2.25h-3.61A2.47,2.47,0,0,0,99.51,61a2.58,2.58,0,0,0-1.48.4,3.25,3.25,0,0,0-1,1,4.46,4.46,0,0,0-.53,1.4,8,8,0,0,0-.16,1.53,7.69,7.69,0,0,0,.16,1.48A4.26,4.26,0,0,0,97,68.23a2.84,2.84,0,0,0,1,1,2.6,2.6,0,0,0,1.45.39,2.66,2.66,0,0,0,2-.74,3.44,3.44,0,0,0,.9-2h3.56A6.07,6.07,0,0,1,103.85,71Z"/><path d="M35,62.38a3.37,3.37,0,0,0-1-1,3.27,3.27,0,0,0-3,0,3.09,3.09,0,0,0-1,1,4,4,0,0,0-.53,1.38,7.84,7.84,0,0,0,0,3.2A4,4,0,0,0,30,68.31a2.85,2.85,0,0,0,1,1,3.37,3.37,0,0,0,3,0,3.1,3.1,0,0,0,1-1A4,4,0,0,0,35.58,67a8.4,8.4,0,0,0,.15-1.59,7.66,7.66,0,0,0-.16-1.59A4.41,4.41,0,0,0,35,62.38Z"/><path d="M94.79,40.12a2,2,0,0,0,.52-.82,4.2,4.2,0,0,0,.21-1c0-.35,0-.67,0-.94s0-.57,0-.93a4.75,4.75,0,0,0-.19-1,2.23,2.23,0,0,0-.49-.83,1.12,1.12,0,0,0-.89-.35,1.42,1.42,0,0,0-1,.31,2,2,0,0,0-.53.78,3.31,3.31,0,0,0-.22,1c0,.37,0,.69,0,1s0,.6,0,1a3.42,3.42,0,0,0,.18,1,2.07,2.07,0,0,0,.49.82,1.51,1.51,0,0,0,1.91,0Z"/><path d="M79,30.59a1.91,1.91,0,0,0,.5.77,1.38,1.38,0,0,0,1,.31,1.43,1.43,0,0,0,.95-.31,2.06,2.06,0,0,0,.52-.77,3.42,3.42,0,0,0,.2-1c0-.34,0-.65,0-.93s0-.57,0-.95a4.7,4.7,0,0,0-.19-1.07,2.31,2.31,0,0,0-.48-.89,1.16,1.16,0,0,0-.9-.36,1.32,1.32,0,0,0-1,.34,2.06,2.06,0,0,0-.54.83,4,4,0,0,0-.22,1.06c0,.38,0,.72,0,1s0,.59,0,.93A3.79,3.79,0,0,0,79,30.59Z"/></g></g></svg>