<svg width="33" height="67" viewBox="0 0 33 67" fill="none" xmlns="http://www.w3.org/2000/svg">
<g id="Layer 1">
<path id="Vector" d="M7.72437 7.20173L32.3972 2.73828L32.0253 59.2747L8.34439 65.846L7.72437 7.20173Z" fill="#FFCD00" stroke="black" stroke-width="0.5" stroke-linecap="round" stroke-linejoin="bevel"/>
<path id="Vector_2" d="M0.905273 4.35156L1.77306 61.508L8.34436 65.8476L7.2285 6.95524L0.905273 4.35156Z" fill="#E2B700" stroke="black" stroke-width="0.5" stroke-linecap="round" stroke-linejoin="bevel"/>
<path id="Vector_3" d="M25.4539 0.507812L32.5211 2.2437L7.72433 7.20299L0.905273 3.8554L25.4539 0.507812Z" fill="#F4C500" stroke="black" stroke-width="0.5" stroke-linecap="round" stroke-linejoin="bevel"/>
<path id="Vector_4" d="M9.28342 66.0442L31.3692 59.9531C31.5585 59.9009 31.7256 59.7886 31.8454 59.6331C31.9653 59.4775 32.0312 59.2872 32.0333 59.0909L32.6518 2.82227L7.44116 6.78988L8.33585 65.3331C8.3379 65.4473 8.36599 65.5596 8.41799 65.6613C8.46998 65.7631 8.54451 65.8516 8.63589 65.9202C8.72727 65.9887 8.8331 66.0356 8.94531 66.057C9.05753 66.0785 9.17316 66.0741 9.28342 66.0442Z" stroke="black" stroke-width="0.5" stroke-linejoin="round"/>
<path id="Vector_5" d="M0.946289 4.64062L1.82065 61.3425L8.05471 65.2685" stroke="black" stroke-width="0.5" stroke-linecap="round" stroke-linejoin="bevel"/>
<path id="Vector_6" d="M0.946289 3.97928L25.4124 0.507812L32.5208 2.40888" stroke="black" stroke-width="0.5" stroke-linecap="round" stroke-linejoin="round"/>
<path id="Vector_7" d="M0.333496 3.98047L7.44161 7.03869" stroke="black" stroke-width="0.5" stroke-linejoin="round"/>
<path id="Vector_8" d="M20.7885 12.9012C20.5304 13.1227 20.283 13.3789 20.1003 13.6758C19.9437 13.9275 19.8202 14.1985 19.733 14.4819C19.6623 14.7262 19.6098 14.9227 19.581 15.0638C19.4871 15.4339 19.3933 15.8039 19.2951 16.1734C19.2402 16.3948 19.1681 16.6115 19.0792 16.8216C19.0004 16.9968 18.9328 17.0656 18.9 17.0909C18.823 17.1443 18.7344 17.1787 18.6416 17.1913C18.5196 17.2126 18.4204 17.2057 18.3475 17.1716C18.265 17.1336 18.1933 17.0756 18.1388 17.003C18.0802 16.9246 18.0389 16.8346 18.0178 16.739C17.9924 16.6301 17.9794 16.5186 17.979 16.4068C17.9776 16.2398 17.9933 16.0731 18.0259 15.9094C18.0536 15.7715 18.1047 15.6395 18.177 15.5189C18.2471 15.4059 18.3413 15.3098 18.4529 15.2374C18.5986 15.1459 18.7592 15.081 18.9275 15.0456C18.9736 15.0349 19.0149 15.0095 19.0454 14.9733C19.0758 14.9371 19.0937 14.892 19.0964 14.8448C19.0952 14.3499 19.0937 13.8552 19.092 13.3607C19.092 13.2669 19.0104 13.2043 18.9109 13.2225C18.4986 13.2919 18.0888 13.4208 17.7303 13.6388C17.4175 13.8281 17.1247 14.079 16.9276 14.3727C16.7246 14.6673 16.5739 14.9946 16.4821 15.3403C16.3901 15.6926 16.3595 16.0623 16.3504 16.4415C16.3429 16.7624 16.4077 17.1297 16.4946 17.4366C16.5892 17.7575 16.7398 18.0591 16.9395 18.3275C17.1197 18.5609 17.4234 18.8012 17.699 18.9138C17.7521 18.936 17.8063 18.9553 17.8614 18.9716C17.5604 19.2091 17.2926 19.4384 17.0724 19.7265C16.8418 20.0265 16.6626 20.3628 16.5422 20.7216C16.4273 21.0796 16.3677 21.4531 16.3654 21.829C16.3554 22.3296 16.4505 22.8967 16.6864 23.3469C16.9029 23.7604 17.1688 24.1343 17.5661 24.4105C17.9634 24.6867 18.4076 24.8172 18.8687 24.8797C19.025 24.8984 19.1825 24.9048 19.3398 24.8988C18.472 25.4072 17.5958 25.888 16.6723 26.2884C16.6385 26.3016 16.6093 26.3246 16.5884 26.3544C16.5676 26.3842 16.5561 26.4194 16.5553 26.4558C16.5566 26.9861 16.558 27.5162 16.5597 28.0459C16.5597 28.0808 16.5712 28.1147 16.5924 28.1425C16.6136 28.1702 16.6433 28.1903 16.677 28.1995C18.1392 28.5924 19.6285 28.6978 21.1311 28.8252C20.9844 28.9166 20.8465 29.0213 20.7191 29.138C20.4531 29.382 20.2414 29.6793 20.0978 30.0105C19.9658 29.868 19.8025 29.7582 19.6207 29.6898C19.2829 29.5647 18.9053 29.6113 18.5837 29.6811C18.2488 29.7514 17.9278 29.8762 17.6333 30.0505C17.4012 30.1928 17.1484 30.4259 16.9986 30.6555C16.841 30.9026 16.7288 31.1758 16.6673 31.4623C16.5993 31.7783 16.5678 32.1011 16.5735 32.4243C16.576 33.3394 16.5786 34.2544 16.5813 35.1693V35.7421C16.5863 37.4765 16.5912 39.2108 16.596 40.9451C16.5961 40.9675 16.6011 40.9897 16.6107 41.0099C16.6204 41.0302 16.6343 41.0481 16.6517 41.0623C16.669 41.0766 16.6892 41.0868 16.711 41.0923C16.7327 41.0979 16.7554 41.0986 16.7774 41.0943C17.2401 41.0224 17.6928 40.9307 18.1479 40.8215C18.2477 40.7962 18.3284 40.6986 18.3281 40.6026C18.3264 39.9611 18.3247 39.3193 18.3228 38.6774C19.2613 38.429 20.1841 38.1318 21.1114 37.8459C20.619 38.5154 20.1516 39.2023 19.6883 39.8912C19.4918 40.1827 19.2957 40.4755 19.0939 40.763C18.9477 40.7391 18.7979 40.7488 18.656 40.7915C18.1895 40.9248 17.7028 41.3859 17.7093 41.9064C17.71 41.9444 17.7132 41.9822 17.719 42.0197C17.2216 42.228 16.7095 42.3872 16.1862 42.254C16.1697 42.2499 16.1525 42.2501 16.1361 42.2544C16.1197 42.2587 16.1046 42.2671 16.0923 42.2787C16.0803 42.2898 16.0717 42.304 16.0675 42.3198C16.0632 42.3356 16.0635 42.3522 16.0682 42.3679C16.2381 42.864 16.6179 43.2791 17.0105 43.6029C17.2307 43.777 17.4755 43.9175 17.7369 44.0199C17.7231 44.0807 17.7164 44.1428 17.7168 44.2051C17.7269 44.6775 18.2255 44.9662 18.6685 44.8211C18.9237 44.7375 19.2316 44.5217 19.388 44.2893C19.9511 44.2702 20.4995 44.1716 21.0494 44.054C21.1526 44.1719 21.2615 44.2864 21.3735 44.3981C21.3663 44.3981 21.3588 44.4016 21.351 44.4041C21.2512 44.4353 21.1705 44.5392 21.1708 44.6321C21.172 45.122 21.1734 45.6121 21.1749 46.1024C21.1749 46.1875 21.2443 46.2363 21.3338 46.216C21.6942 46.1337 22.1083 46.1184 22.4396 46.3014C22.7384 46.4665 22.8444 46.8257 22.8407 47.1485C22.8372 47.4529 22.7781 47.7376 22.653 47.9835C22.5218 48.2344 22.349 48.4612 22.1418 48.6542C21.9186 48.8635 21.6718 49.0462 21.4064 49.1985C21.1299 49.3577 20.8407 49.4938 20.5417 49.6052C20.2499 49.7145 19.9471 49.7917 19.6386 49.8354C19.357 49.872 19.1011 49.8595 18.8812 49.7947C18.6732 49.7352 18.4917 49.6068 18.3663 49.4306C18.2396 49.2542 18.1748 49.0033 18.1739 48.688C18.1742 48.5137 18.2035 48.3408 18.2605 48.1762C18.3197 48.0032 18.4019 47.8389 18.5049 47.6878C18.6092 47.5343 18.7315 47.3937 18.869 47.269C19.0018 47.1485 19.1516 47.0481 19.3135 46.9711C19.4021 46.9289 19.4674 46.8351 19.4674 46.7522L19.4631 45.2715C19.4642 45.2498 19.4591 45.2282 19.4483 45.2093C19.4376 45.1904 19.4216 45.175 19.4024 45.1649C19.38 45.1552 19.3558 45.1505 19.3314 45.1512C19.307 45.1519 19.2831 45.158 19.2613 45.1689C18.8358 45.361 18.4245 45.5894 18.0519 45.8862C17.7141 46.1521 17.4154 46.4642 17.1644 46.8132C16.9316 47.1416 16.7339 47.512 16.6238 47.8884C16.5097 48.2718 16.4484 48.669 16.4417 49.069C16.4324 49.5542 16.5325 50.0991 16.7624 50.5449C16.9623 50.9319 17.2598 51.2788 17.6421 51.4978C17.7015 51.5318 17.763 51.5631 17.8266 51.5916C17.5162 51.8346 17.2485 52.1277 17.0346 52.4588C16.8268 52.7793 16.6761 53.1333 16.5891 53.5052C16.5087 53.8754 16.4646 54.2526 16.4574 54.6314C16.4496 54.9442 16.514 55.3037 16.6016 55.6012C16.6826 55.8746 16.8559 56.1996 17.0468 56.4123C17.2538 56.6295 17.5164 56.7857 17.806 56.8641C18.1692 56.9501 18.5515 56.8641 18.889 56.7555C19.2266 56.647 19.5641 56.4374 19.841 56.1946C20.0944 55.9691 20.3144 55.7087 20.4945 55.4213C20.662 55.1494 20.8003 54.8605 20.9071 54.5594C21.005 54.2779 21.0926 53.9766 21.1652 53.6898C21.2349 53.4136 21.31 53.1326 21.3716 52.8639C21.4258 52.6236 21.4954 52.387 21.58 52.1557C21.6447 51.9735 21.7363 51.802 21.8518 51.647C21.9426 51.5296 22.0677 51.4433 22.2097 51.4002C22.3558 51.3526 22.47 51.3495 22.5591 51.3883C22.6578 51.4307 22.7405 51.5035 22.795 51.596C22.8586 51.7031 22.901 51.8214 22.9201 51.9445C22.9428 52.076 22.9548 52.209 22.9558 52.3424C22.9559 52.5295 22.9322 52.7157 22.8851 52.8968C22.8415 53.0704 22.771 53.2361 22.6761 53.3879C22.5802 53.5384 22.4598 53.6717 22.3198 53.7824C22.1545 53.911 21.9687 54.0108 21.7702 54.0777C21.6701 54.1134 21.5894 54.2182 21.5897 54.3111L21.5941 55.7776C21.5941 55.8696 21.676 55.9159 21.7727 55.8802C22.2197 55.7144 22.6536 55.5083 23.0418 55.2117C23.3821 54.956 23.6794 54.6476 23.9224 54.2982C24.1471 53.9698 24.3276 53.5984 24.4208 53.2205C24.5149 52.843 24.5663 52.4561 24.5741 52.0671C24.5828 51.6536 24.5328 51.1981 24.3864 50.8158C24.2681 50.5086 24.113 50.1936 23.8577 49.9577C23.7143 49.8232 23.5467 49.717 23.3637 49.6449L23.395 49.6108C23.7426 49.2385 24.0495 48.8074 24.2515 48.336C24.4536 47.8646 24.5766 47.3325 24.5581 46.8266C24.5453 46.4675 24.5124 46.1043 24.3817 45.7577C24.5162 45.6081 24.5522 45.3547 24.4943 44.9991C24.2234 43.3348 24.2381 41.7037 24.4586 40.0285C24.5397 39.4157 24.6119 38.8013 24.6175 38.1897C24.6219 37.7058 24.5581 37.2168 24.4696 36.7422C24.4445 36.608 24.4081 36.476 24.361 36.3478C24.361 36.0037 24.361 35.8291 24.3585 35.4834C24.3578 35.4611 24.3524 35.4392 24.3427 35.4191C24.3329 35.399 24.3191 35.3812 24.302 35.3669C24.2849 35.3525 24.2649 35.342 24.2435 35.3358C24.222 35.3297 24.1995 35.3282 24.1774 35.3314C22.1606 35.5551 20.2702 36.3012 18.3156 36.8017C18.3143 36.4054 18.3132 36.0098 18.3122 35.6148C20.267 35.1246 22.16 34.3876 24.174 34.1742C24.2208 34.1718 24.2652 34.1521 24.2984 34.1189C24.3317 34.0858 24.3515 34.0415 24.3541 33.9947C24.351 32.8945 24.3478 31.7944 24.3444 30.6943C24.3459 30.3803 24.301 30.0677 24.2112 29.7668C24.1617 29.5999 24.0947 29.4387 24.0113 29.2859L24.0954 29.3088C24.1237 29.3163 24.1532 29.3177 24.182 29.3127C24.2108 29.3077 24.2381 29.2966 24.2622 29.28C24.2855 29.2646 24.3048 29.2438 24.3184 29.2194C24.332 29.1949 24.3394 29.1675 24.3401 29.1395L24.3354 27.6323C24.3348 27.5972 24.3227 27.5632 24.3008 27.5358C24.2789 27.5083 24.2484 27.4889 24.2143 27.4806C23.7106 27.3446 23.1986 27.2418 22.6814 27.1728L22.6749 24.846C23.1754 24.606 23.6797 24.388 24.2015 24.1965C24.236 24.1857 24.2664 24.1644 24.2883 24.1356C24.3102 24.1068 24.3226 24.0719 24.3238 24.0357L24.3191 22.4807C24.3187 22.4533 24.3114 22.4264 24.2977 22.4027C24.284 22.379 24.2644 22.3592 24.2409 22.3452C24.216 22.3304 24.1881 22.3215 24.1593 22.3191C24.1304 22.3167 24.1014 22.3209 24.0745 22.3314L23.9978 22.3627C24.0631 22.256 24.1216 22.1452 24.173 22.0311C24.3778 21.5661 24.4823 21.063 24.4796 20.5549C24.4736 20.1851 24.3857 19.8638 24.239 19.5075C24.1333 19.251 23.9059 18.9757 23.6834 18.8024C23.8749 18.7549 23.9706 18.7333 24.1621 18.6957C24.2016 18.6896 24.2378 18.6698 24.2644 18.6398C24.2909 18.6098 24.3062 18.5715 24.3075 18.5315L24.3047 17.5774C24.3037 17.5546 24.2982 17.5322 24.2886 17.5115C24.2789 17.4909 24.2652 17.4723 24.2484 17.4569C24.2315 17.4416 24.2118 17.4297 24.1903 17.4219C24.1689 17.4142 24.1461 17.4108 24.1233 17.4119C23.9809 17.4138 23.9096 17.4163 23.7673 17.4235C23.7826 17.4044 23.7986 17.385 23.8123 17.3656C24.0428 17.068 24.2122 16.7278 24.3107 16.3645C24.4058 15.995 24.4572 15.6155 24.4639 15.234C24.473 14.811 24.4192 14.3483 24.2763 13.9545C24.1552 13.6223 23.9903 13.2841 23.7476 13.0138C23.5495 12.7864 23.2167 12.5674 22.9301 12.4789C22.5985 12.3756 22.2444 12.3775 21.9103 12.4197C21.5162 12.4695 21.0935 12.6397 20.7885 12.9012ZM19.9971 51.6436C19.9354 51.7853 19.8831 51.931 19.8406 52.0796C19.7684 52.3371 19.7174 52.5414 19.6886 52.6872C19.5948 53.0732 19.5009 53.4595 19.4027 53.8446C19.347 54.0778 19.2749 54.3068 19.1868 54.5297C19.108 54.7174 19.0407 54.7988 19.0076 54.8297C18.9323 54.8952 18.8443 54.9444 18.7492 54.9743C18.6272 55.0168 18.528 55.0271 18.4551 55.0055C18.3742 54.9828 18.3017 54.9369 18.2465 54.8735C18.1869 54.8037 18.1454 54.7203 18.1254 54.6308C18.0998 54.5241 18.0867 54.4148 18.0866 54.3051C18.0855 54.1356 18.1012 53.9663 18.1335 53.7999C18.1624 53.6541 18.2134 53.5136 18.2846 53.3832C18.3554 53.2573 18.449 53.1456 18.5605 53.0538C18.7037 52.9387 18.8638 52.8464 19.0351 52.7801C19.129 52.741 19.2043 52.6402 19.204 52.5505C19.204 52.247 19.204 52.0953 19.2018 51.7915C19.4708 51.766 19.7369 51.7165 19.9971 51.6436ZM18.2052 33.7566L18.2014 32.4868C18.2006 32.361 18.211 32.2354 18.2327 32.1114C18.2512 32.005 18.287 31.9024 18.3387 31.8077C18.3869 31.722 18.4526 31.6474 18.5315 31.5887C18.6326 31.5173 18.7471 31.4671 18.8681 31.441C19.1211 31.3785 19.2948 31.3947 19.3999 31.4977C19.5144 31.6115 19.5729 31.7873 19.5735 32.0216C19.5747 32.4805 19.5761 32.9401 19.5776 33.4006C19.1214 33.5289 18.6653 33.6484 18.2052 33.7566ZM22.3145 30.3173C22.4039 30.3382 22.4843 30.387 22.5441 30.4566C22.6079 30.536 22.6526 30.629 22.6749 30.7284C22.7045 30.8525 22.7193 30.9797 22.719 31.1072L22.7231 32.5535C22.16 32.6786 21.605 32.8215 21.05 32.9767C21.0484 32.4814 21.0469 31.9862 21.0457 31.4911C21.0457 31.2014 21.1139 30.9489 21.2509 30.7428C21.3782 30.5517 21.5975 30.4162 21.921 30.3361C22.0843 30.2976 22.2166 30.2914 22.3145 30.3173ZM21.107 27.0145C20.4325 26.9663 19.7581 26.9228 19.0845 26.8634C19.7602 26.4802 20.4297 26.0866 21.1032 25.6997L21.107 27.0145ZM19.947 21.1646C19.947 21.2584 20.0287 21.3151 20.1284 21.2897C20.5329 21.193 20.9374 21.0964 21.3432 21.005C21.4433 20.9828 21.524 20.8899 21.5237 20.797L21.5196 19.4631C21.7961 19.4318 22.1765 19.5078 22.3955 19.694C22.6771 19.9339 22.7625 20.3274 22.76 20.6797C22.7581 20.986 22.6974 21.2619 22.5723 21.4931C22.4442 21.7285 22.2719 21.937 22.0649 22.1071C21.8401 22.2906 21.593 22.4448 21.3294 22.5661C21.0512 22.6944 20.7616 22.7963 20.4644 22.8704C20.1691 22.9451 19.8662 22.986 19.5616 22.9921C19.3026 22.9992 19.0449 22.9539 18.8039 22.8589C18.5931 22.7716 18.4137 22.6225 18.2893 22.4312C18.1623 22.2388 18.1041 21.9732 18.0966 21.6645C18.0897 21.3776 18.1986 21.0035 18.3697 20.7692C18.5749 20.4876 18.879 20.2783 19.199 20.1413C19.2383 20.1252 19.2723 20.0983 19.297 20.0637C19.3217 20.0291 19.3361 19.9882 19.3386 19.9458C19.3373 19.5704 19.3362 19.195 19.3351 18.8196C19.4752 18.7587 19.6086 18.6833 19.733 18.5947C19.8046 18.5428 19.8731 18.4882 19.9386 18.4311C19.9415 19.3431 19.9443 20.2548 19.947 21.1661V21.1646ZM22.4518 14.2329C22.5512 14.2918 22.6328 14.3765 22.6877 14.4782C22.7501 14.5931 22.7924 14.7178 22.8128 14.847C22.8354 14.9805 22.8473 15.1155 22.8485 15.2509C22.8491 15.4343 22.8253 15.617 22.7778 15.7942C22.7354 15.9579 22.6647 16.1129 22.5688 16.2522C22.4733 16.3869 22.3523 16.5015 22.2125 16.5894C22.0442 16.6927 21.8576 16.7628 21.6629 16.7959C21.5628 16.8153 21.4821 16.907 21.4824 16.9999C21.4824 17.2955 21.4824 17.4435 21.4846 17.7394C21.1038 17.8176 20.7247 17.9018 20.3459 17.9869L20.3865 17.9296C20.5568 17.6834 20.6954 17.4168 20.7992 17.136C20.8983 16.8647 20.9847 16.5801 21.0572 16.3082C21.1276 16.0442 21.2018 15.7764 21.2637 15.5161C21.3173 15.2867 21.3869 15.0613 21.472 14.8417C21.5354 14.6724 21.6273 14.5153 21.7439 14.3771C21.8369 14.2738 21.9639 14.2072 22.1018 14.1894C22.2485 14.166 22.3627 14.1813 22.4518 14.2345V14.2329Z" fill="white" stroke="#231F20" stroke-width="0.5" stroke-miterlimit="10"/>
<path id="Vector_9" d="M20.7885 12.9012C20.5304 13.1227 20.283 13.3789 20.1003 13.6758C19.9437 13.9275 19.8202 14.1985 19.733 14.4819C19.6623 14.7262 19.6098 14.9227 19.581 15.0638C19.4871 15.4339 19.3933 15.8039 19.2951 16.1734C19.2402 16.3948 19.1681 16.6115 19.0792 16.8216C19.0004 16.9968 18.9328 17.0656 18.9 17.0909C18.823 17.1443 18.7344 17.1787 18.6416 17.1913C18.5196 17.2126 18.4204 17.2057 18.3475 17.1716C18.265 17.1336 18.1933 17.0756 18.1388 17.003C18.0802 16.9246 18.0389 16.8346 18.0178 16.739C17.9924 16.6301 17.9794 16.5186 17.979 16.4068C17.9776 16.2398 17.9933 16.0731 18.0259 15.9094C18.0536 15.7715 18.1047 15.6395 18.177 15.5189C18.2471 15.4059 18.3413 15.3098 18.4529 15.2374C18.5986 15.1459 18.7592 15.081 18.9275 15.0456C18.9736 15.0349 19.0149 15.0095 19.0454 14.9733C19.0758 14.9371 19.0937 14.892 19.0964 14.8448C19.0952 14.3499 19.0937 13.8552 19.092 13.3607C19.092 13.2669 19.0104 13.2043 18.9109 13.2225C18.4986 13.2919 18.0888 13.4208 17.7303 13.6388C17.4175 13.8281 17.1247 14.079 16.9276 14.3727C16.7246 14.6673 16.5739 14.9946 16.4821 15.3403C16.3901 15.6926 16.3595 16.0623 16.3504 16.4415C16.3429 16.7624 16.4077 17.1297 16.4946 17.4366C16.5892 17.7575 16.7398 18.0591 16.9395 18.3275C17.1197 18.5609 17.4234 18.8012 17.699 18.9138C17.7521 18.936 17.8063 18.9553 17.8614 18.9716C17.5604 19.2091 17.2926 19.4384 17.0724 19.7265C16.8418 20.0265 16.6626 20.3628 16.5422 20.7216C16.4273 21.0796 16.3677 21.4531 16.3654 21.829C16.3554 22.3296 16.4505 22.8967 16.6864 23.3469C16.9029 23.7604 17.1688 24.1343 17.5661 24.4105C17.9634 24.6867 18.4076 24.8172 18.8687 24.8797C19.025 24.8984 19.1825 24.9048 19.3398 24.8988C18.472 25.4072 17.5958 25.888 16.6723 26.2884C16.6385 26.3016 16.6093 26.3246 16.5884 26.3544C16.5676 26.3842 16.5561 26.4194 16.5553 26.4558C16.5566 26.9861 16.558 27.5162 16.5597 28.0459C16.5597 28.0808 16.5712 28.1147 16.5924 28.1425C16.6136 28.1702 16.6433 28.1903 16.677 28.1995C18.1392 28.5924 19.6285 28.6978 21.1311 28.8252C20.9844 28.9166 20.8465 29.0213 20.7191 29.138C20.4531 29.382 20.2414 29.6793 20.0978 30.0105C19.9658 29.868 19.8025 29.7582 19.6207 29.6898C19.2829 29.5647 18.9053 29.6113 18.5837 29.6811C18.2488 29.7514 17.9278 29.8762 17.6333 30.0505C17.4012 30.1928 17.1484 30.4259 16.9986 30.6555C16.841 30.9026 16.7288 31.1758 16.6673 31.4623C16.5993 31.7783 16.5678 32.1011 16.5735 32.4243C16.576 33.3394 16.5786 34.2544 16.5813 35.1693V35.7421C16.5863 37.4765 16.5912 39.2108 16.596 40.9451C16.5961 40.9675 16.6011 40.9897 16.6107 41.0099C16.6204 41.0302 16.6343 41.0481 16.6517 41.0623C16.669 41.0766 16.6892 41.0868 16.711 41.0923C16.7327 41.0979 16.7554 41.0986 16.7774 41.0943C17.2401 41.0224 17.6928 40.9307 18.1479 40.8215C18.2477 40.7962 18.3284 40.6986 18.3281 40.6026C18.3264 39.9611 18.3247 39.3193 18.3228 38.6774C19.2613 38.429 20.1841 38.1318 21.1114 37.8459C20.619 38.5154 20.1516 39.2023 19.6883 39.8912C19.4918 40.1827 19.2957 40.4755 19.0939 40.763C18.9477 40.7391 18.7979 40.7488 18.656 40.7915C18.1895 40.9248 17.7028 41.3859 17.7093 41.9064C17.71 41.9444 17.7132 41.9822 17.719 42.0197C17.2216 42.228 16.7095 42.3872 16.1862 42.254C16.1697 42.2499 16.1525 42.2501 16.1361 42.2544C16.1197 42.2587 16.1046 42.2671 16.0923 42.2787C16.0803 42.2898 16.0717 42.304 16.0675 42.3198C16.0632 42.3356 16.0635 42.3522 16.0682 42.3679C16.2381 42.864 16.6179 43.2791 17.0105 43.6029C17.2307 43.777 17.4755 43.9175 17.7369 44.0199C17.7231 44.0807 17.7164 44.1428 17.7168 44.2051C17.7269 44.6775 18.2255 44.9662 18.6685 44.8211C18.9237 44.7375 19.2316 44.5217 19.388 44.2893C19.9511 44.2702 20.4995 44.1716 21.0494 44.054C21.1526 44.1719 21.2615 44.2864 21.3735 44.3981C21.3663 44.3981 21.3588 44.4016 21.351 44.4041C21.2512 44.4353 21.1705 44.5392 21.1708 44.6321C21.172 45.122 21.1734 45.6121 21.1749 46.1024C21.1749 46.1875 21.2443 46.2363 21.3338 46.216C21.6942 46.1337 22.1083 46.1184 22.4396 46.3014C22.7384 46.4665 22.8444 46.8257 22.8407 47.1485C22.8372 47.4529 22.7781 47.7376 22.653 47.9835C22.5218 48.2344 22.349 48.4612 22.1418 48.6542C21.9186 48.8635 21.6718 49.0462 21.4064 49.1985C21.1299 49.3577 20.8407 49.4938 20.5417 49.6052C20.2499 49.7145 19.9471 49.7917 19.6386 49.8354C19.357 49.872 19.1011 49.8595 18.8812 49.7947C18.6732 49.7352 18.4917 49.6068 18.3663 49.4306C18.2396 49.2542 18.1748 49.0033 18.1739 48.688C18.1742 48.5137 18.2035 48.3408 18.2605 48.1762C18.3197 48.0032 18.4019 47.8389 18.5049 47.6878C18.6092 47.5343 18.7315 47.3937 18.869 47.269C19.0018 47.1485 19.1516 47.0481 19.3135 46.9711C19.4021 46.9289 19.4674 46.8351 19.4674 46.7522L19.4631 45.2715C19.4642 45.2498 19.4591 45.2282 19.4483 45.2093C19.4376 45.1904 19.4216 45.175 19.4024 45.1649C19.38 45.1552 19.3558 45.1505 19.3314 45.1512C19.307 45.1519 19.2831 45.158 19.2613 45.1689C18.8358 45.361 18.4245 45.5894 18.0519 45.8862C17.7141 46.1521 17.4154 46.4642 17.1644 46.8132C16.9316 47.1416 16.7339 47.512 16.6238 47.8884C16.5097 48.2718 16.4484 48.669 16.4417 49.069C16.4324 49.5542 16.5325 50.0991 16.7624 50.5449C16.9623 50.9319 17.2598 51.2788 17.6421 51.4978C17.7015 51.5318 17.763 51.5631 17.8266 51.5916C17.5162 51.8346 17.2485 52.1277 17.0346 52.4588C16.8268 52.7793 16.6761 53.1333 16.5891 53.5052C16.5087 53.8754 16.4646 54.2526 16.4574 54.6314C16.4496 54.9442 16.514 55.3037 16.6016 55.6012C16.6826 55.8746 16.8559 56.1996 17.0468 56.4123C17.2538 56.6295 17.5164 56.7857 17.806 56.8641C18.1692 56.9501 18.5515 56.8641 18.889 56.7555C19.2266 56.647 19.5641 56.4374 19.841 56.1946C20.0944 55.9691 20.3144 55.7087 20.4945 55.4213C20.662 55.1494 20.8003 54.8605 20.9071 54.5594C21.005 54.2779 21.0926 53.9766 21.1652 53.6898C21.2349 53.4136 21.31 53.1326 21.3716 52.8639C21.4258 52.6236 21.4954 52.387 21.58 52.1557C21.6447 51.9735 21.7363 51.802 21.8518 51.647C21.9426 51.5296 22.0677 51.4433 22.2097 51.4002C22.3558 51.3526 22.47 51.3495 22.5591 51.3883C22.6578 51.4307 22.7405 51.5035 22.795 51.596C22.8586 51.7031 22.901 51.8214 22.9201 51.9445C22.9428 52.076 22.9548 52.209 22.9558 52.3424C22.9559 52.5295 22.9322 52.7157 22.8851 52.8968C22.8415 53.0704 22.771 53.2361 22.6761 53.3879C22.5802 53.5384 22.4598 53.6717 22.3198 53.7824C22.1545 53.911 21.9687 54.0108 21.7702 54.0777C21.6701 54.1134 21.5894 54.2182 21.5897 54.3111L21.5941 55.7776C21.5941 55.8696 21.676 55.9159 21.7727 55.8802C22.2197 55.7144 22.6536 55.5083 23.0418 55.2117C23.3821 54.956 23.6794 54.6476 23.9224 54.2982C24.1471 53.9698 24.3276 53.5984 24.4208 53.2205C24.5149 52.843 24.5663 52.4561 24.5741 52.0671C24.5828 51.6536 24.5328 51.1981 24.3864 50.8158C24.2681 50.5086 24.113 50.1936 23.8577 49.9577C23.7143 49.8232 23.5467 49.717 23.3637 49.6449L23.395 49.6108C23.7426 49.2385 24.0495 48.8074 24.2515 48.336C24.4536 47.8646 24.5766 47.3325 24.5581 46.8266C24.5453 46.4675 24.5124 46.1043 24.3817 45.7577C24.5162 45.6081 24.5522 45.3547 24.4943 44.9991C24.2234 43.3348 24.2381 41.7037 24.4586 40.0285C24.5397 39.4157 24.6119 38.8013 24.6175 38.1897C24.6219 37.7058 24.5581 37.2168 24.4696 36.7422C24.4445 36.608 24.4081 36.476 24.361 36.3478C24.361 36.0037 24.361 35.8291 24.3585 35.4834C24.3578 35.4611 24.3524 35.4392 24.3427 35.4191C24.3329 35.399 24.3191 35.3812 24.302 35.3669C24.2849 35.3525 24.2649 35.342 24.2435 35.3358C24.222 35.3297 24.1995 35.3282 24.1774 35.3314C22.1606 35.5551 20.2702 36.3012 18.3156 36.8017C18.3143 36.4054 18.3132 36.0098 18.3122 35.6148C20.267 35.1246 22.16 34.3876 24.174 34.1742C24.2208 34.1718 24.2652 34.1521 24.2984 34.1189C24.3317 34.0858 24.3515 34.0415 24.3541 33.9947C24.351 32.8945 24.3478 31.7944 24.3444 30.6943C24.3459 30.3803 24.301 30.0677 24.2112 29.7668C24.1617 29.5999 24.0947 29.4387 24.0113 29.2859L24.0954 29.3088C24.1237 29.3163 24.1532 29.3177 24.182 29.3127C24.2108 29.3077 24.2381 29.2966 24.2622 29.28C24.2855 29.2646 24.3048 29.2438 24.3184 29.2194C24.332 29.1949 24.3394 29.1675 24.3401 29.1395L24.3354 27.6323C24.3348 27.5972 24.3227 27.5632 24.3008 27.5358C24.2789 27.5083 24.2484 27.4889 24.2143 27.4806C23.7106 27.3446 23.1986 27.2418 22.6814 27.1728L22.6749 24.846C23.1754 24.606 23.6797 24.388 24.2015 24.1965C24.236 24.1857 24.2664 24.1644 24.2883 24.1356C24.3102 24.1068 24.3226 24.0719 24.3238 24.0357L24.3191 22.4807C24.3187 22.4533 24.3114 22.4264 24.2977 22.4027C24.284 22.379 24.2644 22.3592 24.2409 22.3452C24.216 22.3304 24.1881 22.3215 24.1593 22.3191C24.1304 22.3167 24.1014 22.3209 24.0745 22.3314L23.9978 22.3627C24.0631 22.256 24.1216 22.1452 24.173 22.0311C24.3778 21.5661 24.4823 21.063 24.4796 20.5549C24.4736 20.1851 24.3857 19.8638 24.239 19.5075C24.1333 19.251 23.9059 18.9757 23.6834 18.8024C23.8749 18.7549 23.9706 18.7333 24.1621 18.6957C24.2016 18.6896 24.2378 18.6698 24.2644 18.6398C24.2909 18.6098 24.3062 18.5715 24.3075 18.5315L24.3047 17.5774C24.3037 17.5546 24.2982 17.5322 24.2886 17.5115C24.2789 17.4909 24.2652 17.4723 24.2484 17.4569C24.2315 17.4416 24.2118 17.4297 24.1903 17.4219C24.1689 17.4142 24.1461 17.4108 24.1233 17.4119C23.9809 17.4138 23.9096 17.4163 23.7673 17.4235C23.7826 17.4044 23.7986 17.385 23.8123 17.3656C24.0428 17.068 24.2122 16.7278 24.3107 16.3645C24.4058 15.995 24.4572 15.6155 24.4639 15.234C24.473 14.811 24.4192 14.3483 24.2763 13.9545C24.1552 13.6223 23.9903 13.2841 23.7476 13.0138C23.5495 12.7864 23.2167 12.5674 22.9301 12.4789C22.5985 12.3756 22.2444 12.3775 21.9103 12.4197C21.5162 12.4695 21.0935 12.6397 20.7885 12.9012ZM19.9971 51.6436C19.9354 51.7853 19.8831 51.931 19.8406 52.0796C19.7684 52.3371 19.7174 52.5414 19.6886 52.6872C19.5948 53.0732 19.5009 53.4595 19.4027 53.8446C19.347 54.0778 19.2749 54.3068 19.1868 54.5297C19.108 54.7174 19.0407 54.7988 19.0076 54.8297C18.9323 54.8952 18.8443 54.9444 18.7492 54.9743C18.6272 55.0168 18.528 55.0271 18.4551 55.0055C18.3742 54.9828 18.3017 54.9369 18.2465 54.8735C18.1869 54.8037 18.1454 54.7203 18.1254 54.6308C18.0998 54.5241 18.0867 54.4148 18.0866 54.3051C18.0855 54.1356 18.1012 53.9663 18.1335 53.7999C18.1624 53.6541 18.2134 53.5136 18.2846 53.3832C18.3554 53.2573 18.449 53.1456 18.5605 53.0538C18.7037 52.9387 18.8638 52.8464 19.0351 52.7801C19.129 52.741 19.2043 52.6402 19.204 52.5505C19.204 52.247 19.204 52.0953 19.2018 51.7915C19.4708 51.766 19.7369 51.7165 19.9971 51.6436ZM18.2052 33.7566L18.2014 32.4868C18.2006 32.361 18.211 32.2354 18.2327 32.1114C18.2512 32.005 18.287 31.9024 18.3387 31.8077C18.3869 31.722 18.4526 31.6474 18.5315 31.5887C18.6326 31.5173 18.7471 31.4671 18.8681 31.441C19.1211 31.3785 19.2948 31.3947 19.3999 31.4977C19.5144 31.6115 19.5729 31.7873 19.5735 32.0216C19.5747 32.4805 19.5761 32.9401 19.5776 33.4006C19.1214 33.5289 18.6653 33.6484 18.2052 33.7566ZM22.3145 30.3173C22.4039 30.3382 22.4843 30.387 22.5441 30.4566C22.6079 30.536 22.6526 30.629 22.6749 30.7284C22.7045 30.8525 22.7193 30.9797 22.719 31.1072L22.7231 32.5535C22.16 32.6786 21.605 32.8215 21.05 32.9767C21.0484 32.4814 21.0469 31.9862 21.0457 31.4911C21.0457 31.2014 21.1139 30.9489 21.2509 30.7428C21.3782 30.5517 21.5975 30.4162 21.921 30.3361C22.0843 30.2976 22.2166 30.2914 22.3145 30.3173ZM21.107 27.0145C20.4325 26.9663 19.7581 26.9228 19.0845 26.8634C19.7602 26.4802 20.4297 26.0866 21.1032 25.6997L21.107 27.0145ZM19.947 21.1646C19.947 21.2584 20.0287 21.3151 20.1284 21.2897C20.5329 21.193 20.9374 21.0964 21.3432 21.005C21.4433 20.9828 21.524 20.8899 21.5237 20.797L21.5196 19.4631C21.7961 19.4318 22.1765 19.5078 22.3955 19.694C22.6771 19.9339 22.7625 20.3274 22.76 20.6797C22.7581 20.986 22.6974 21.2619 22.5723 21.4931C22.4442 21.7285 22.2719 21.937 22.0649 22.1071C21.8401 22.2906 21.593 22.4448 21.3294 22.5661C21.0512 22.6944 20.7616 22.7963 20.4644 22.8704C20.1691 22.9451 19.8662 22.986 19.5616 22.9921C19.3026 22.9992 19.0449 22.9539 18.8039 22.8589C18.5931 22.7716 18.4137 22.6225 18.2893 22.4312C18.1623 22.2388 18.1041 21.9732 18.0966 21.6645C18.0897 21.3776 18.1986 21.0035 18.3697 20.7692C18.5749 20.4876 18.879 20.2783 19.199 20.1413C19.2383 20.1252 19.2723 20.0983 19.297 20.0637C19.3217 20.0291 19.3361 19.9882 19.3386 19.9458C19.3373 19.5704 19.3362 19.195 19.3351 18.8196C19.4752 18.7587 19.6086 18.6833 19.733 18.5947C19.8046 18.5428 19.8731 18.4882 19.9386 18.4311C19.9415 19.3431 19.9443 20.2548 19.947 21.1661V21.1646ZM22.4518 14.2329C22.5512 14.2918 22.6328 14.3765 22.6877 14.4782C22.7501 14.5931 22.7924 14.7178 22.8128 14.847C22.8354 14.9805 22.8473 15.1155 22.8485 15.2509C22.8491 15.4343 22.8253 15.617 22.7778 15.7942C22.7354 15.9579 22.6647 16.1129 22.5688 16.2522C22.4733 16.3869 22.3523 16.5015 22.2125 16.5894C22.0442 16.6927 21.8576 16.7628 21.6629 16.7959C21.5628 16.8153 21.4821 16.907 21.4824 16.9999C21.4824 17.2955 21.4824 17.4435 21.4846 17.7394C21.1038 17.8176 20.7247 17.9018 20.3459 17.9869L20.3865 17.9296C20.5568 17.6834 20.6954 17.4168 20.7992 17.136C20.8983 16.8647 20.9847 16.5801 21.0572 16.3082C21.1276 16.0442 21.2018 15.7764 21.2637 15.5161C21.3173 15.2867 21.3869 15.0613 21.472 14.8417C21.5354 14.6724 21.6273 14.5153 21.7439 14.3771C21.8369 14.2738 21.9639 14.2072 22.1018 14.1894C22.2485 14.166 22.3627 14.1813 22.4518 14.2345V14.2329Z" fill="#FFCD00" stroke="#231F20" stroke-width="0.5" stroke-miterlimit="10"/>
<path id="Vector_10" d="M19.6883 39.8918C19.4922 40.1837 19.296 40.4762 19.0939 40.7637C18.9477 40.7397 18.7979 40.7495 18.656 40.7921C18.1895 40.9254 17.7028 41.3865 17.7093 41.9071C17.71 41.945 17.7132 41.9828 17.719 42.0203C17.2216 42.2287 16.7095 42.3876 16.1862 42.2546C16.1697 42.2506 16.1525 42.2507 16.1361 42.255C16.1197 42.2593 16.1046 42.2677 16.0923 42.2793C16.0803 42.2904 16.0717 42.3047 16.0675 42.3205C16.0632 42.3362 16.0635 42.3529 16.0682 42.3685C16.239 42.8653 16.6179 43.2798 17.0105 43.6035C17.2307 43.7776 17.4755 43.9181 17.7369 44.0205C17.7231 44.0813 17.7164 44.1434 17.7168 44.2057C17.7269 44.6781 18.2255 44.9669 18.6685 44.8217C18.9237 44.7382 19.2316 44.5223 19.388 44.2899C19.9511 44.2705 20.4995 44.1723 21.0494 44.0546C21.6663 44.7203 23.1767 46.252 24.2056 45.8766C24.5462 45.7514 24.5547 45.2959 24.4987 44.9959C24.1965 43.3767 24.2425 41.7006 24.463 40.0254C24.544 39.4126 24.6163 38.7982 24.6219 38.1866C24.6263 37.7026 24.5594 37.2168 24.474 36.7391C24.3967 36.3065 24.174 35.734 23.6831 35.6843C22.9255 35.607 22.1903 36.527 21.7473 37.0476C20.9869 37.9382 20.3399 38.9236 19.6883 39.8918ZM18.6544 40.9611C18.9985 40.8635 19.4243 41.0196 19.4261 41.4303C19.428 41.8601 19.0367 42.2399 18.6585 42.3638C18.2993 42.4814 17.8764 42.2653 17.887 41.8651C17.8977 41.465 18.2655 41.0721 18.6544 40.9611ZM18.665 44.6521C18.3078 44.7732 17.883 44.5624 17.8936 44.1616C17.9042 43.7609 18.2724 43.3645 18.661 43.2491C19.0019 43.1481 19.4315 43.2988 19.4327 43.7105C19.434 44.1422 19.0448 44.5245 18.665 44.6528V44.6521ZM23.6368 35.8513C24.0376 35.8923 24.2356 36.4229 24.2938 36.7801C24.4711 37.8694 24.4264 38.9224 24.2816 40.0198C24.1727 40.8413 24.0904 41.6649 24.0867 42.4911C24.0829 43.3417 24.1805 44.1998 24.3179 45.0401C24.361 45.3056 24.3651 45.6513 24.1552 45.7236C23.6212 45.9069 22.8203 45.2931 22.4121 45.011C21.9526 44.6936 21.5372 44.3168 21.1767 43.8904L21.1736 43.8867C20.9265 43.5785 20.7072 43.2807 20.5245 42.9419C20.0612 42.0832 20.0515 41.0146 20.8786 40.3267C20.9221 40.2904 20.9377 40.2328 20.9133 40.2015C20.8889 40.1702 20.8339 40.1702 20.7904 40.2078C19.9167 40.9379 19.8553 42.0985 20.3571 43.0627C20.5153 43.3658 20.706 43.6509 20.9258 43.9129C20.4519 44.0068 19.9802 44.0903 19.4959 44.1097C19.5665 43.9678 19.6061 43.8126 19.6123 43.6542C19.6292 43.1481 19.0548 42.9688 18.6606 43.0824C18.4704 43.1387 18.2945 43.2353 18.1449 43.3656C17.9953 43.4959 17.8754 43.6569 17.7935 43.8375C17.5626 43.7408 17.3445 43.6159 17.1441 43.4659C16.7903 43.1982 16.5027 42.8528 16.3035 42.4564C16.5912 42.4919 16.8831 42.4729 17.1638 42.4004C17.3698 42.3477 17.5692 42.2717 17.7581 42.1739C17.9058 42.5296 18.3165 42.6325 18.6588 42.5334C19.1399 42.3941 19.6004 41.8845 19.6054 41.374C19.6079 41.1043 19.4643 40.9023 19.2472 40.8109C19.4452 40.5294 19.6373 40.2416 19.8294 39.9553C20.4463 39.0369 21.0632 38.1081 21.773 37.2565C22.185 36.7607 22.9298 35.7797 23.6368 35.8519V35.8513Z" fill="#231F20" stroke="#231F20" stroke-width="0.5" stroke-miterlimit="10"/>
<path id="Vector_11" d="M18.7181 44.328C18.9556 44.2567 19.1473 44.0193 19.1467 43.8028C19.1461 43.5863 18.9534 43.4718 18.7159 43.5422C18.4785 43.6126 18.2867 43.8413 18.2874 44.0587C18.288 44.2761 18.4813 44.399 18.7181 44.328Z" fill="#231F20" stroke="#231F20" stroke-width="0.5" stroke-miterlimit="10"/>
<path id="Vector_12" d="M18.7113 42.0395C18.9487 41.9707 19.1405 41.7354 19.1399 41.5189C19.1392 41.3025 18.9465 41.1858 18.7091 41.2537C18.4717 41.3215 18.2799 41.548 18.2805 41.7655C18.2811 41.9829 18.4742 42.1083 18.7113 42.0395Z" fill="#231F20" stroke="#231F20" stroke-width="0.5" stroke-miterlimit="10"/>
<path id="Vector_13" d="M18.8689 31.2737C18.7157 31.3075 18.571 31.3721 18.4435 31.4636C18.3378 31.5422 18.2496 31.6419 18.1844 31.7564C18.1216 31.8703 18.0781 31.9939 18.0556 32.1221C18.0317 32.2556 18.02 32.391 18.0205 32.5266C18.0218 33.0073 18.0231 33.4879 18.0246 33.9684C18.6077 33.8367 19.1821 33.6844 19.7586 33.5214L19.7539 31.9741C19.7539 31.7017 19.6842 31.497 19.5446 31.36C19.4054 31.2224 19.1805 31.1958 18.8689 31.2737ZM19.4007 31.5005C19.5152 31.6144 19.5737 31.7902 19.5743 32.0245C19.5756 32.4833 19.577 32.9429 19.5784 33.4034C19.1226 33.5286 18.6665 33.6496 18.2063 33.7579L18.2026 32.4881C18.2017 32.3623 18.2122 32.2366 18.2339 32.1127C18.2523 32.0063 18.2882 31.9037 18.3399 31.8089C18.3881 31.7232 18.4538 31.6486 18.5326 31.59C18.6337 31.5186 18.7482 31.4683 18.8692 31.4423C19.1223 31.3804 19.295 31.3976 19.3995 31.5005H19.4007Z" fill="#231F20" stroke="#231F20" stroke-width="0.5" stroke-miterlimit="10"/>
<path id="Vector_14" d="M24.2251 45.8649C24.3342 46.1786 24.3862 46.5092 24.3787 46.8412C24.369 47.3375 24.2702 47.828 24.0871 48.2893C23.9088 48.7351 23.6054 49.1534 23.2738 49.5094C23.2015 49.5876 23.1252 49.6636 23.047 49.7387C23.2976 49.7914 23.5292 49.9112 23.7171 50.0853C23.936 50.2836 24.1219 50.6093 24.2129 50.8846C24.3395 51.2715 24.4004 51.6769 24.3931 52.084C24.3856 52.4599 24.3362 52.8339 24.2457 53.1989C24.1502 53.5655 23.9914 53.9126 23.7765 54.2247C23.5513 54.552 23.2751 54.8412 22.9585 55.0812C22.5971 55.3593 22.1973 55.5404 21.7753 55.705L21.771 54.2394C21.9997 54.1618 22.2138 54.0462 22.4041 53.8974C22.73 53.6419 22.9612 53.2849 23.0611 52.8829C23.1118 52.6882 23.1373 52.4879 23.1371 52.2867C23.1361 52.1453 23.1236 52.0043 23.0995 51.865C23.0777 51.7261 23.0297 51.5927 22.9581 51.4718C22.8916 51.3591 22.7914 51.2701 22.6716 51.2174C22.5502 51.1636 22.396 51.1658 22.2092 51.2262C22.0151 51.2868 21.8447 51.4064 21.7218 51.5684C21.59 51.7446 21.4854 51.9396 21.4115 52.1468C21.324 52.3876 21.2518 52.6337 21.1953 52.8836C21.1328 53.1516 21.0599 53.4288 20.9901 53.706C20.9204 53.9831 20.8337 54.2822 20.7377 54.5581C20.6376 54.8411 20.5078 55.1127 20.3504 55.3684C20.1854 55.6291 19.9854 55.8659 19.756 56.0722C19.5013 56.2953 19.2066 56.4681 18.8876 56.5815C18.5914 56.6866 18.2328 56.7692 17.8956 56.6844C17.6258 56.6204 17.3812 56.4774 17.193 56.2737C17.0053 56.07 16.8677 55.8132 16.7754 55.5188C16.6815 55.2209 16.635 54.91 16.6377 54.5975C16.6471 54.2243 16.6778 53.8618 16.7629 53.5126C16.8521 53.1638 16.9929 52.8303 17.1808 52.5232C17.3641 52.2144 17.6328 51.9372 17.9213 51.7098C18.0073 51.6417 18.097 51.5784 18.19 51.5202C18.0401 51.4753 17.8957 51.4141 17.7592 51.3375C17.397 51.1336 17.1129 50.8139 16.9255 50.4447C16.699 49.9993 16.6208 49.5103 16.6202 49.0426C16.6232 48.66 16.6816 48.2798 16.7935 47.9139C16.898 47.5554 17.0848 47.2029 17.305 46.8894C17.5409 46.5576 17.8225 46.2608 18.1415 46.0079C18.4897 45.7311 18.8735 45.5024 19.2827 45.3281C19.284 45.8219 19.2853 46.3159 19.2868 46.81C19.0998 46.899 18.9268 47.0149 18.7734 47.1541C18.6189 47.2937 18.4815 47.4512 18.3642 47.6233C18.2489 47.7917 18.1568 47.9749 18.0905 48.168C18.0266 48.3519 17.9939 48.5451 17.9935 48.7398C17.9935 49.0864 18.0664 49.3614 18.2091 49.561C18.3476 49.7586 18.5496 49.9029 18.7816 49.9699C19.0209 50.0412 19.294 50.0549 19.5977 50.0158C19.9206 49.9701 20.2375 49.8892 20.5428 49.7747C20.8564 49.6574 21.1598 49.5146 21.45 49.3476C21.7353 49.1815 22.0017 48.9847 22.2443 48.7608C22.4706 48.5453 22.6607 48.2947 22.8074 48.0187C22.9412 47.76 23.0195 47.3874 23.0176 47.0996C23.0154 46.7383 22.894 46.3307 22.5577 46.1414C22.1773 45.9268 21.7685 45.9753 21.3521 46.0395C21.3506 45.5498 21.3492 45.0603 21.3477 44.571C21.4034 44.5573 21.4581 44.5451 21.5126 44.5338C21.4644 44.4888 21.4167 44.443 21.3696 44.3965C21.3624 44.3965 21.3549 44.3999 21.3471 44.4024C21.2473 44.4337 21.1666 44.5376 21.1669 44.6305L21.1709 46.1008C21.1709 46.1859 21.2404 46.2347 21.3299 46.2143C21.6902 46.1321 22.1044 46.1167 22.4357 46.2997C22.7345 46.4649 22.8405 46.824 22.8368 47.1469C22.8333 47.4513 22.7742 47.7359 22.6491 47.9818C22.5191 48.2328 22.3475 48.46 22.1417 48.6538C21.9183 48.863 21.6715 49.0456 21.4062 49.1981C21.1296 49.3574 20.8403 49.4934 20.5412 49.6048C20.2494 49.7141 19.9466 49.7913 19.6381 49.835C19.3565 49.8713 19.1006 49.8591 18.8807 49.794C18.6728 49.7349 18.4913 49.6065 18.3661 49.4302C18.2391 49.2535 18.1744 49.0029 18.1734 48.6876C18.1739 48.5134 18.2032 48.3404 18.2601 48.1758C18.3192 48.0028 18.4014 47.8385 18.5044 47.6874C18.6087 47.5339 18.731 47.3933 18.8685 47.2686C19.0013 47.1481 19.1511 47.0477 19.3131 46.9708C19.4016 46.9285 19.4673 46.8347 19.467 46.7518C19.4655 46.2581 19.464 45.7646 19.4626 45.2712C19.4637 45.2494 19.4586 45.2278 19.4478 45.2089C19.4371 45.19 19.4211 45.1746 19.4019 45.1645C19.3795 45.1547 19.3553 45.15 19.3309 45.1508C19.3065 45.1515 19.2826 45.1575 19.2608 45.1685C18.8354 45.3606 18.424 45.589 18.0514 45.8859C17.7136 46.1518 17.4149 46.4638 17.1639 46.8128C16.9315 47.1413 16.7335 47.5116 16.6233 47.888C16.5092 48.2714 16.448 48.6686 16.4413 49.0686C16.4319 49.5538 16.532 50.0987 16.7622 50.5445C16.9618 50.9315 17.2593 51.2784 17.6416 51.4974C17.701 51.5314 17.7626 51.5627 17.8262 51.5912C17.5157 51.8342 17.248 52.1273 17.0341 52.4584C16.8264 52.7789 16.6758 53.1329 16.5889 53.5048C16.5083 53.875 16.464 54.2522 16.4569 54.631C16.4491 54.9438 16.5135 55.3033 16.6011 55.6008C16.6822 55.8742 16.8555 56.1992 17.0463 56.4116C17.2532 56.629 17.5158 56.7853 17.8055 56.8637C18.1687 56.9497 18.5513 56.8637 18.8885 56.7551C19.2258 56.6466 19.5636 56.437 19.8405 56.1942C20.0938 55.9687 20.3138 55.7083 20.494 55.4209C20.6615 55.149 20.7999 54.8601 20.9066 54.5591C21.0045 54.2775 21.0921 53.9763 21.1647 53.6894C21.2344 53.4132 21.3095 53.1322 21.3715 52.8635C21.4256 52.6232 21.4951 52.3867 21.5795 52.1553C21.6442 51.9731 21.7358 51.8016 21.8513 51.6466C21.9421 51.5291 22.0672 51.4428 22.2092 51.3998C22.3553 51.3522 22.4695 51.3491 22.5587 51.3879C22.6574 51.4303 22.74 51.5031 22.7945 51.5956C22.8581 51.7028 22.9006 51.821 22.9197 51.9441C22.9424 52.0756 22.9543 52.2087 22.9553 52.342C22.9554 52.5291 22.9317 52.7154 22.8846 52.8964C22.841 53.07 22.7705 53.2357 22.6757 53.3875C22.5796 53.5379 22.4592 53.6712 22.3193 53.782C22.1539 53.9105 21.9681 54.0103 21.7697 54.0773C21.6696 54.113 21.5889 54.2178 21.5892 54.3107L21.5936 55.7772C21.5936 55.8692 21.6755 55.9155 21.7722 55.8798C22.2192 55.714 22.6531 55.5079 23.0414 55.2113C23.3816 54.9556 23.6789 54.6472 23.922 54.2979C24.1466 53.9694 24.3271 53.5981 24.4203 53.2202C24.5144 52.8425 24.5659 52.4555 24.5736 52.0664C24.5827 51.6532 24.5323 51.1974 24.3859 50.8151C24.2676 50.5079 24.1125 50.1926 23.8575 49.957C23.7139 49.8225 23.5462 49.7164 23.3633 49.6442L23.3945 49.6101C23.7421 49.2378 24.049 48.8064 24.2511 48.3353C24.4532 47.8642 24.5761 47.3318 24.5576 46.8259C24.5448 46.4668 24.512 46.1036 24.3812 45.757C24.3373 45.8035 24.2841 45.8403 24.2251 45.8649Z" fill="#231F20" stroke="#231F20" stroke-width="0.5" stroke-miterlimit="10"/>
<path id="Vector_15" d="M20.7876 12.9012C20.5295 13.1227 20.282 13.3789 20.0994 13.6758C19.9427 13.9275 19.8193 14.1985 19.7321 14.4819C19.6614 14.7262 19.6088 14.9227 19.5801 15.0638C19.4862 15.4339 19.3924 15.8039 19.2941 16.1734C19.2393 16.3948 19.1671 16.6115 19.0783 16.8216C18.9994 16.9968 18.9322 17.0656 18.899 17.0909C18.822 17.1443 18.7335 17.1787 18.6406 17.1913C18.5186 17.2126 18.4195 17.2057 18.3466 17.1716C18.2642 17.1335 18.1925 17.0756 18.1379 17.003C18.0792 16.9246 18.0379 16.8346 18.0169 16.739C17.9914 16.6301 17.9784 16.5186 17.9781 16.4068C17.9767 16.2398 17.9924 16.0731 18.025 15.9094C18.0527 15.7715 18.1038 15.6395 18.1761 15.5189C18.2462 15.4059 18.3404 15.3098 18.452 15.2374C18.5976 15.1459 18.7583 15.081 18.9266 15.0456C18.9726 15.0349 19.014 15.0095 19.0444 14.9733C19.0749 14.9371 19.0928 14.892 19.0955 14.8448C19.0942 14.3499 19.0929 13.8552 19.0914 13.3607C19.0914 13.2669 19.0098 13.2043 18.91 13.2222C18.4977 13.2919 18.0879 13.4208 17.7294 13.6388C17.4165 13.8281 17.1237 14.079 16.9266 14.3727C16.7237 14.6673 16.573 14.9946 16.4812 15.3403C16.3892 15.6926 16.3589 16.0623 16.3495 16.4415C16.342 16.7624 16.4067 17.1297 16.4937 17.4366C16.5882 17.7575 16.7388 18.0591 16.9385 18.3275C17.1187 18.5609 17.4225 18.8012 17.6981 18.9138C17.7511 18.9359 17.8053 18.9552 17.8604 18.9716C17.5595 19.2091 17.2917 19.4384 17.0715 19.7265C16.8408 20.0265 16.6616 20.3628 16.5412 20.7216C16.4264 21.0796 16.3668 21.4531 16.3645 21.829C16.3545 22.3296 16.4499 22.8967 16.6854 23.3469C16.9019 23.7604 17.1678 24.1343 17.5651 24.4105C17.9624 24.6867 18.4066 24.8172 18.8677 24.8797C19.024 24.8984 19.1816 24.9048 19.3389 24.8988C18.4711 25.4072 17.5948 25.888 16.6714 26.2884C16.6375 26.3016 16.6083 26.3246 16.5875 26.3544C16.5667 26.3842 16.5552 26.4194 16.5544 26.4558C16.5556 26.9861 16.5571 27.5162 16.5588 28.0459C16.5588 28.0808 16.5703 28.1147 16.5915 28.1425C16.6127 28.1702 16.6424 28.1902 16.6761 28.1995C18.1382 28.5924 19.6276 28.6978 21.1301 28.8251C20.9835 28.9166 20.8456 29.0213 20.7181 29.138C20.4521 29.382 20.2405 29.6793 20.0969 30.0105C19.965 29.868 19.8017 29.7583 19.6201 29.6898C19.2819 29.5647 18.9043 29.6113 18.5828 29.681C18.2479 29.7514 17.9269 29.8762 17.6324 30.0505C17.4003 30.1928 17.1475 30.4259 16.9977 30.6555C16.8399 30.9025 16.7277 31.1757 16.6664 31.4623C16.5982 31.7783 16.5668 32.1011 16.5725 32.4243L16.5803 35.1693V35.7421C16.5853 37.4764 16.5902 39.2108 16.595 40.9451C16.5951 40.9675 16.6002 40.9897 16.6098 41.0099C16.6194 41.0302 16.6334 41.0481 16.6507 41.0623C16.6681 41.0766 16.6883 41.0868 16.71 41.0923C16.7318 41.0979 16.7545 41.0986 16.7765 41.0943C17.2392 41.0224 17.6918 40.9307 18.147 40.8215C18.2468 40.7962 18.3275 40.6986 18.3275 40.6026L18.3219 38.6774C19.2603 38.429 20.1832 38.1318 21.1107 37.8459C21.1658 37.7725 21.221 37.6995 21.2762 37.6269C20.2332 37.9444 19.1975 38.2839 18.1404 38.5513C18.1427 39.2504 18.1447 39.9491 18.1464 40.6473C17.6912 40.7562 17.2392 40.8475 16.7762 40.9188L16.7602 35.7224V35.1502C16.7577 34.2357 16.7551 33.3214 16.7524 32.4074C16.747 32.0961 16.7774 31.7853 16.8431 31.4811C16.8983 31.2163 17.0015 30.9639 17.1475 30.7362C17.2946 30.5173 17.4865 30.3321 17.7106 30.1928C17.978 30.0275 18.2733 29.9125 18.5821 29.8534C18.8843 29.7984 19.2128 29.7449 19.5172 29.8594C19.7674 29.9532 19.9717 30.1306 20.1319 30.3974C20.257 29.9692 20.4813 29.5331 20.8201 29.2515C21.1148 29.006 21.3857 28.8586 21.7495 28.7085C20.0646 28.5398 18.3847 28.4676 16.7389 28.0365C16.7373 27.5068 16.7358 26.9773 16.7346 26.448C17.8889 25.9387 18.9716 25.3055 20.0506 24.6564C19.6601 24.7096 19.3082 24.738 18.9244 24.7083C18.4798 24.671 18.0526 24.519 17.6843 24.2672C17.3211 24.0161 17.033 23.6711 16.8506 23.269C16.6491 22.815 16.5451 22.3238 16.5453 21.8272C16.5446 21.4681 16.6014 21.1112 16.7136 20.7701C16.8272 20.4276 16.9983 20.1222 17.2141 19.821C17.43 19.5197 17.7237 19.262 18.0328 19.0486C18.1292 18.9823 18.2302 18.9207 18.3347 18.8631C18.1474 18.8601 17.9622 18.8231 17.7882 18.7539C17.5338 18.6519 17.2526 18.4323 17.0856 18.219C16.8979 17.9696 16.7565 17.6886 16.6679 17.3894C16.585 17.0981 16.5228 16.7481 16.5303 16.4427C16.5378 16.0849 16.5802 15.7287 16.657 15.3791C16.7242 15.0691 16.8929 14.72 17.0749 14.4635C17.2754 14.1897 17.5269 13.9572 17.8154 13.7787C18.1531 13.5825 18.5244 13.451 18.9103 13.3911C18.9118 13.886 18.9132 14.381 18.9147 14.8761C18.7193 14.9178 18.533 14.9941 18.3644 15.1013C18.2264 15.1907 18.1098 15.3094 18.0228 15.4489C17.9386 15.5873 17.8792 15.7393 17.8473 15.8981C17.8121 16.0731 17.7953 16.2514 17.7969 16.4299C17.7973 16.5537 17.8115 16.6771 17.8395 16.7978C17.8651 16.9135 17.915 17.0225 17.9859 17.1175C18.054 17.2084 18.1433 17.2813 18.2462 17.3296C18.35 17.3787 18.4817 17.39 18.6409 17.3609C18.7685 17.3424 18.8896 17.2931 18.9938 17.2173C19.0836 17.1482 19.1665 17.0296 19.2422 16.861C19.3354 16.6406 19.4111 16.4132 19.4687 16.1809C19.5669 15.8095 19.6628 15.4374 19.7562 15.0647C19.7837 14.9292 19.8335 14.7389 19.9054 14.4938C19.9881 14.228 20.1043 13.9739 20.2511 13.7374C20.422 13.4647 20.6379 13.2229 20.8896 13.0223C21.1814 12.7901 21.5503 12.6522 21.9116 12.5877C22.2267 12.5364 22.5492 12.5539 22.8569 12.639C23.1438 12.7358 23.4027 12.9012 23.6112 13.1208C23.8389 13.3711 23.9935 13.6876 24.107 13.9967C24.2453 14.3749 24.2947 14.8188 24.2869 15.2249C24.2788 15.6003 24.2406 15.9669 24.1396 16.3173C24.039 16.6596 23.8803 16.9821 23.6703 17.2705C23.5779 17.3954 23.4731 17.5107 23.3575 17.6146C23.6653 17.5864 23.8192 17.5774 24.127 17.5727L24.1299 18.5277C23.7936 18.595 23.6253 18.6372 23.2893 18.733C23.6209 18.9338 23.9062 19.2225 24.0757 19.5701C24.2134 19.8516 24.3119 20.2352 24.3019 20.5492C24.2856 21.0523 24.2024 21.5049 24.01 21.9657C23.8885 22.2436 23.7275 22.5025 23.532 22.7344C23.7754 22.6264 23.8971 22.5758 24.1408 22.4841C24.1425 23.0028 24.1439 23.5215 24.1452 24.0404C23.5821 24.2516 23.0371 24.4928 22.4959 24.7581L22.5035 27.3254C23.0594 27.4004 23.611 27.5048 24.1558 27.6383C24.1575 28.1411 24.1589 28.6438 24.1602 29.1464C23.9256 29.0798 23.808 29.0504 23.573 28.9972C23.6002 29.0247 23.6262 29.0529 23.6512 29.0823C23.8285 29.2992 23.9599 29.5498 24.0376 29.819C24.1237 30.1055 24.1666 30.4033 24.1649 30.7024C24.168 31.8036 24.1712 32.9046 24.1746 34.0053C22.0974 34.2243 20.1516 35.0001 18.132 35.484C18.1334 35.9935 18.1349 36.5032 18.1364 37.0131C20.156 36.5151 22.0999 35.7252 24.179 35.4944L24.1805 35.9893C24.2573 36.0986 24.3186 36.2181 24.3626 36.3443C24.3626 36.0002 24.3626 35.8256 24.3598 35.48C24.3591 35.4577 24.3537 35.4357 24.3439 35.4157C24.3342 35.3956 24.3203 35.3778 24.3032 35.3634C24.2861 35.3491 24.2662 35.3385 24.2447 35.3324C24.2233 35.3263 24.2007 35.3248 24.1787 35.3279C22.1618 35.5516 20.2714 36.2977 18.3169 36.7982C18.3156 36.402 18.3145 36.0064 18.3134 35.6114C20.2683 35.1212 22.1612 34.3841 24.1752 34.1708C24.2221 34.1683 24.2664 34.1486 24.2997 34.1155C24.3329 34.0823 24.3528 34.0381 24.3554 33.9912C24.3523 32.8911 24.349 31.791 24.3457 30.6909C24.3472 30.3768 24.3023 30.0643 24.2124 29.7633C24.163 29.5964 24.096 29.4353 24.0125 29.2825L24.0967 29.3053C24.125 29.3129 24.1545 29.3143 24.1834 29.3093C24.2122 29.3043 24.2396 29.2931 24.2637 29.2766C24.287 29.2611 24.3063 29.2403 24.3198 29.2159C24.3333 29.1914 24.3407 29.164 24.3413 29.1361C24.3397 28.6337 24.3382 28.1313 24.3369 27.6289C24.3363 27.5937 24.3241 27.5598 24.3021 27.5323C24.2802 27.5049 24.2497 27.4855 24.2156 27.4772C23.7119 27.3411 23.1998 27.2383 22.6827 27.1693L22.6761 24.8425C23.1767 24.6026 23.6809 24.3845 24.2027 24.1931C24.2373 24.1823 24.2676 24.161 24.2895 24.1322C24.3114 24.1034 24.3239 24.0685 24.3251 24.0323L24.3204 22.4772C24.32 22.4498 24.3126 22.423 24.2989 22.3993C24.2852 22.3756 24.2657 22.3558 24.2422 22.3418C24.2173 22.327 24.1894 22.3181 24.1605 22.3157C24.1317 22.3133 24.1027 22.3175 24.0757 22.328L23.9991 22.3593C24.0646 22.2527 24.1231 22.1419 24.1743 22.0277C24.3791 21.5626 24.4836 21.0596 24.4808 20.5514C24.4749 20.1817 24.387 19.8604 24.2403 19.5041C24.1345 19.2476 23.9071 18.9723 23.6847 18.799C23.8761 18.7514 23.9719 18.7298 24.1633 18.6923C24.2029 18.6861 24.2391 18.6663 24.2656 18.6364C24.2922 18.6064 24.3074 18.5681 24.3088 18.5281L24.306 17.5739C24.305 17.5511 24.2995 17.5288 24.2898 17.5081C24.2801 17.4874 24.2665 17.4689 24.2496 17.4535C24.2328 17.4381 24.213 17.4262 24.1916 17.4185C24.1701 17.4108 24.1473 17.4073 24.1245 17.4084C23.9822 17.4103 23.9109 17.4128 23.7685 17.42C23.7839 17.4009 23.7998 17.3815 23.8136 17.3621C24.0441 17.0646 24.2134 16.7244 24.3119 16.3611C24.407 15.9915 24.4585 15.6121 24.4652 15.2305C24.4743 14.8076 24.4205 14.3449 24.2775 13.951C24.1568 13.6188 23.9916 13.2807 23.7488 13.0104C23.5486 12.7864 23.2158 12.5674 22.9292 12.4789C22.5976 12.3756 22.2435 12.3775 21.9094 12.4197C21.5152 12.4695 21.0926 12.6397 20.7876 12.9012Z" fill="#231F20" stroke="#231F20" stroke-width="0.5" stroke-miterlimit="10"/>
<path id="Vector_16" d="M18.4733 52.9333C18.3354 53.0467 18.2195 53.1846 18.1317 53.34C18.0488 53.49 17.9896 53.6518 17.9562 53.8199C17.9215 53.9978 17.9046 54.1786 17.9058 54.3599C17.9058 54.4812 17.9202 54.6022 17.9487 54.7202C17.9727 54.8287 18.0229 54.9296 18.0948 55.0143C18.1637 55.0937 18.2541 55.1516 18.355 55.181C18.4592 55.2123 18.5909 55.2004 18.7498 55.1447C18.8805 55.1023 19.0007 55.0328 19.1027 54.9408C19.1924 54.8559 19.2752 54.7229 19.3511 54.5419C19.4437 54.3078 19.5194 54.0673 19.5776 53.8224C19.6758 53.4348 19.7706 53.0463 19.8651 52.6581C19.8926 52.5179 19.9423 52.3198 20.0143 52.0637C20.0822 51.8294 20.1736 51.6026 20.2871 51.3867C19.8782 51.5222 19.4518 51.6135 19.0204 51.6242L19.0233 52.6149C18.8245 52.6919 18.639 52.7994 18.4733 52.9333ZM19.9965 51.6442C19.9348 51.7859 19.8825 51.9316 19.84 52.0803C19.7681 52.3377 19.7168 52.542 19.688 52.6878C19.5942 53.0738 19.5003 53.4602 19.4021 53.8452C19.3466 54.0785 19.2744 54.3074 19.1862 54.5303C19.1074 54.718 19.0401 54.7994 19.007 54.8303C18.9318 54.8958 18.844 54.945 18.7489 54.9749C18.6266 55.0174 18.5274 55.0277 18.4545 55.0062C18.3737 54.9833 18.3012 54.9374 18.2459 54.8741C18.1865 54.8042 18.145 54.7209 18.1248 54.6314C18.0993 54.5247 18.0863 54.4154 18.0863 54.3057C18.085 54.1362 18.1006 53.9669 18.1329 53.8005C18.1618 53.6547 18.2128 53.5142 18.284 53.3838C18.355 53.2578 18.4487 53.1461 18.5603 53.0541C18.7034 52.9392 18.8633 52.8469 19.0345 52.7807C19.1284 52.7416 19.2038 52.6409 19.2034 52.5511C19.2034 52.2476 19.2034 52.0959 19.2013 51.7921C19.4702 51.7666 19.7363 51.7171 19.9965 51.6442Z" fill="#231F20" stroke="#231F20" stroke-width="0.5" stroke-miterlimit="10"/>
<path id="Vector_17" d="M18.565 26.9891C19.4706 27.0876 20.3794 27.1402 21.2866 27.2081C21.2849 26.612 21.2833 26.016 21.2816 25.4199C20.3744 25.9364 19.4787 26.4695 18.5637 26.9706C18.5647 26.9775 18.5647 26.9816 18.565 26.9891ZM21.1061 27.0144C20.4316 26.9662 19.7572 26.9228 19.0836 26.8633C19.7594 26.4801 20.4288 26.0866 21.1023 25.6996L21.1061 27.0144Z" fill="#231F20" stroke="#231F20" stroke-width="0.5" stroke-miterlimit="10"/>
<path id="Vector_18" d="M21.6627 16.9662C21.8876 16.9278 22.1029 16.8465 22.2972 16.7269C22.4612 16.6237 22.6037 16.4896 22.7167 16.3321C22.8254 16.1756 22.9057 16.0012 22.9541 15.8169C23.0053 15.6263 23.0308 15.4298 23.0301 15.2325C23.029 15.0891 23.0165 14.946 22.9926 14.8046C22.9696 14.6588 22.9217 14.5181 22.8512 14.3885C22.784 14.2649 22.6851 14.1613 22.5646 14.0885C22.4432 14.0153 22.289 13.9925 22.1023 14.0228C21.9135 14.0494 21.7404 14.1427 21.6146 14.2859C21.4818 14.4429 21.3769 14.6215 21.3045 14.814C21.2162 15.0425 21.1439 15.277 21.0884 15.5156C21.0258 15.7734 20.9536 16.039 20.8829 16.3043C20.8122 16.5696 20.7305 16.8474 20.6307 17.1148C20.5332 17.3787 20.4031 17.6293 20.2434 17.8609C20.0813 18.0947 19.8803 18.2989 19.6491 18.4647C19.4976 18.573 19.3318 18.6597 19.1563 18.7221C19.1576 19.1445 19.1587 19.5668 19.1598 19.9891C18.7966 20.1418 18.4559 20.372 18.2269 20.6964C18.0211 20.9883 17.9241 21.3493 17.9182 21.6975C17.9138 21.9612 17.9807 22.3181 18.1337 22.5459C18.2724 22.7594 18.4719 22.9265 18.7065 23.0257C18.9455 23.1265 19.2192 23.1737 19.5224 23.1715C19.8412 23.165 20.1583 23.122 20.4674 23.0436C20.7788 22.9642 21.0824 22.8571 21.3746 22.7235C21.6582 22.592 21.9246 22.4263 22.168 22.2302C22.3947 22.0398 22.5854 21.8103 22.7311 21.5526C22.8668 21.3024 22.9572 20.9392 22.9413 20.657C22.9181 20.2525 22.8618 19.8386 22.5277 19.5621C22.1858 19.278 21.7628 19.2887 21.339 19.314L21.3433 20.8409C20.9367 20.9317 20.5331 21.0286 20.1283 21.1247L20.1202 18.2094C20.6348 18.094 21.1494 17.9764 21.6671 17.8737L21.6627 16.9662ZM19.9459 21.1669C19.9459 21.2608 20.0276 21.3174 20.1274 21.292C20.5319 21.1954 20.9363 21.0987 21.3421 21.0074C21.4422 20.9852 21.5229 20.8922 21.5226 20.7993L21.5188 19.4651C21.7951 19.4338 22.1758 19.5102 22.3948 19.6963C22.6763 19.9362 22.7617 20.3298 22.7595 20.682C22.7573 20.9883 22.697 21.2642 22.5718 21.4954C22.4437 21.7308 22.2714 21.9393 22.0644 22.1095C21.8396 22.2929 21.5925 22.4471 21.3289 22.5684C21.0509 22.6967 20.7614 22.7986 20.4643 22.8728C20.1688 22.9474 19.8658 22.9883 19.5611 22.9945C19.3022 23.0015 19.0445 22.9562 18.8035 22.8612C18.5926 22.774 18.4132 22.6249 18.2889 22.4336C18.1619 22.2412 18.1037 21.9756 18.0962 21.6668C18.0893 21.3799 18.1985 21.0058 18.3693 20.7715C18.5745 20.4899 18.8786 20.2807 19.1989 20.1436C19.2381 20.1274 19.272 20.1005 19.2966 20.0659C19.3212 20.0313 19.3356 19.9905 19.3381 19.9481L19.3347 18.8219C19.4746 18.7605 19.6078 18.6846 19.732 18.5954C19.8035 18.5435 19.872 18.489 19.9375 18.4318C19.9404 19.3438 19.9432 20.2555 19.9459 21.1669ZM20.3454 17.9892L20.3861 17.9319C20.5563 17.6857 20.695 17.4191 20.7987 17.1383C20.8979 16.8668 20.9842 16.5824 21.0568 16.3105C21.1272 16.0465 21.2016 15.7787 21.2633 15.5185C21.3169 15.289 21.3865 15.0637 21.4716 14.844C21.5349 14.6747 21.6269 14.5176 21.7434 14.3794C21.8364 14.276 21.9634 14.2094 22.1013 14.1917C22.2474 14.168 22.3616 14.1833 22.4508 14.2362C22.5501 14.2952 22.6316 14.3801 22.6866 14.4817C22.7493 14.5966 22.7916 14.7213 22.8118 14.8506C22.8343 14.984 22.8462 15.1191 22.8474 15.2544C22.848 15.4379 22.8243 15.6206 22.7767 15.7978C22.7345 15.9615 22.6637 16.1166 22.5678 16.2558C22.4723 16.3905 22.3512 16.5051 22.2114 16.593C22.0431 16.6963 21.8565 16.7664 21.6618 16.7995C21.5617 16.8189 21.481 16.9105 21.4813 17.0035C21.4813 17.2991 21.4813 17.447 21.4835 17.743C21.1037 17.8196 20.7242 17.9041 20.3454 17.9892Z" fill="#231F20" stroke="#231F20" stroke-width="0.5" stroke-miterlimit="10"/>
<path id="Vector_19" d="M22.9039 32.6838L22.8993 31.0714C22.8996 30.9322 22.8834 30.7933 22.8511 30.6579C22.8246 30.5391 22.771 30.428 22.6947 30.3332C22.6176 30.2424 22.5138 30.1782 22.3981 30.1498C22.273 30.1164 22.1131 30.1233 21.9204 30.1689C21.6048 30.2437 21.2948 30.4086 21.1071 30.6798C20.9485 30.9094 20.8534 31.262 20.8656 31.541L20.8702 33.1968C21.5431 33.005 22.2176 32.8274 22.9039 32.6838ZM21.0495 32.9763L21.0451 31.4903C21.0451 31.2009 21.1133 30.9485 21.2503 30.7423C21.3777 30.5512 21.5969 30.4157 21.9204 30.3357C22.0837 30.2959 22.216 30.2897 22.314 30.3156C22.4033 30.3365 22.4837 30.3853 22.5436 30.4549C22.6074 30.5342 22.6522 30.6273 22.6743 30.7267C22.7039 30.8508 22.7188 30.978 22.7184 31.1055C22.7197 31.5875 22.721 32.0696 22.7225 32.5517C22.1597 32.6772 21.6045 32.8211 21.0495 32.9763Z" fill="#231F20" stroke="#231F20" stroke-width="0.5" stroke-miterlimit="10"/>
<path id="Vector_20" d="M19.647 41.2782C19.6185 41.8197 19.1339 42.3803 18.635 42.5523C18.1717 42.7122 17.663 42.4122 17.6502 41.9141C17.6364 41.3639 18.1482 40.8574 18.635 40.6975C19.0501 40.5615 19.6757 40.7263 19.647 41.2782Z" fill="#FFCD00" stroke="#231F20" stroke-width="0.5" stroke-miterlimit="10"/>
<path id="Vector_21" d="M19.6072 43.6704C19.5781 44.2131 19.0938 44.7775 18.5952 44.953C18.1334 45.1166 17.6229 44.8213 17.6104 44.3226C17.5969 43.7711 18.1084 43.2618 18.5952 43.0979C19.0081 42.96 19.6384 43.1173 19.6072 43.6704Z" fill="#FFCD00" stroke="#231F20" stroke-width="0.5" stroke-miterlimit="10"/>
<path id="Vector_22" d="M18.9756 44.0313C18.9756 44.2334 18.8214 44.4067 18.6315 44.4183C18.4416 44.4299 18.2927 44.2766 18.2927 44.077C18.2927 43.8774 18.4438 43.7044 18.6315 43.6904C18.8192 43.6763 18.9756 43.8289 18.9756 44.0313Z" fill="black"/>
<path id="Vector_23" d="M18.9756 41.4288C18.9756 41.6308 18.8214 41.8041 18.6315 41.8157C18.4416 41.8273 18.2927 41.674 18.2927 41.4735C18.2927 41.273 18.4438 41.1009 18.6315 41.0868C18.8192 41.0728 18.9756 41.2264 18.9756 41.4288Z" fill="black"/>
</g>
</svg>
