<svg xmlns="http://www.w3.org/2000/svg" viewBox="0 0 149.33 141.65"><defs><style>.cls-1{fill:none;stroke:#000;stroke-miterlimit:10;stroke-width:5.5px;}</style></defs><g id="Layer_2" data-name="Layer 2"><g id="Layer_1-2" data-name="Layer 1"><path class="cls-1" d="M126.52,127.21c1.09,4.14-2.44,7.34-4.37,10.48-6,5.13-8.47-7.53-9.33-11.45.58-4.4,4.56-1.26,6.59-.22C121.56,125.27,126.29,123.38,126.52,127.21Z"/><path class="cls-1" d="M146.58,69.8c-2,6.31-3.9,15.37-8,20.85-2.95,4.16-4.49,18-8.53,20.48-4.82-1-7.08,4.66-10.86,5.77-8.47-6-7,.68-13.76-3.25-7.52-.41-8.65-7.06-12.19-11.87-3.65-3.71-12.87-1.52-13.2-8.11-3.87-8-14.09-11.22-22.36-8.82-8.21,2.92-12.46,2.71-19.3,8.81A21.71,21.71,0,0,0,20.9,98.77c-5.13,2.22-16.4-3-10.63-9.06,1.4-3-.62-7.08-2.15-9.67A35.36,35.36,0,0,0,2.93,63.87c.88-5.62-2-14.29,2-19.41,7.52-4.67,17.64-6.46,25.89-9.68C34.58,32.6,32.6,27.13,35,24.71c6.89-1.54,13.78-17.47,20.27-7.48,1.63,1.4,3.46-.83,4.21-2.15C61.94,6.52,60.59,4,71.1,4.6c1-.36,6.5,2.7,7.5,2.68,1.62.33,6.73-1.57,7.77.51,1.32,11.12-10.23,9.29,8.12,17.72,11.4,9.88,4.63-30.39,13.69-21.46,1.43,2.84,3.61,8.1,4,11.26,3.17,1.53,5.24,4,5.17,7.77,2.12,1.85,2.75,6.46,3.65,8.9.23.53,8.52,6.28,8.36,6.87.82,3.11,3.81,6.08,6.36,7.39C138.47,53.54,146.85,60.9,146.58,69.8Z"/></g></g></svg>