<svg xmlns="http://www.w3.org/2000/svg" viewBox="0 0 261.01 155.44"><defs><style>.cls-1{stroke:#000;stroke-miterlimit:10;}</style></defs><g id="Layer_2" data-name="Layer 2"><g id="Layer_1-2" data-name="Layer 1"><path class="cls-1" d="M43.65,130.08A43.15,43.15,0,1,1,86.8,86.93,43.2,43.2,0,0,1,43.65,130.08Zm0-80.49A37.34,37.34,0,1,0,81,86.93,37.38,37.38,0,0,0,43.65,49.59Z"/><path class="cls-1" d="M43.88,117.66c-14.62,0-30.15-11-30.15-31.52,0-17.38,14.76-31.52,32.91-31.52a2.91,2.91,0,0,1,0,5.81c-14.94,0-27.1,11.53-27.1,25.71,0,16.7,12.54,25.71,24.34,25.71,10.61,0,21.58-7.65,21.58-20.45C65.46,78.77,55.83,71,46.91,71c-8.61,0-17.32,5.36-17.32,15.6h0a17.14,17.14,0,0,0,2,7.09c2.43,4.37,6.72,6.56,12.75,6.49,7.88-.07,9.81-5.6,10.28-8,.79-4-.71-8.09-3.41-9.23-3-1.26-5.57-1.17-7.27.25a4.63,4.63,0,0,0-1.65,4.32A2.19,2.19,0,0,0,44,89.25a2.91,2.91,0,1,1-1.52,5.61,8,8,0,0,1-5.87-6.12,10.37,10.37,0,0,1,3.61-10c3.41-2.83,8.23-3.25,13.25-1.14,5.32,2.24,8.2,8.85,6.85,15.71-1.19,6.06-6,12.57-15.92,12.67-10.48.11-15.59-5.22-18-9.71a22.93,22.93,0,0,1-2.64-9.66c0-12.24,9.94-21.45,23.13-21.45,11.72,0,24.36,10.05,24.36,26.27a25.3,25.3,0,0,1-8.58,19.14A28.6,28.6,0,0,1,43.88,117.66Z"/><path class="cls-1" d="M147.66,79.23A2.91,2.91,0,0,1,146,74a37.35,37.35,0,0,0-39.43-63.25,2.91,2.91,0,0,1-2.75-5.12,43.16,43.16,0,0,1,45.58,73.08A2.89,2.89,0,0,1,147.66,79.23Z"/><path class="cls-1" d="M23.63,55.18a2.91,2.91,0,0,1-1.39-5.46L103,6a2.91,2.91,0,0,1,2.77,5.11L25,54.83A2.89,2.89,0,0,1,23.63,55.18Z"/><path class="cls-1" d="M163.83,154.94c-30.78,0-77.21-1.65-106.86-10.38C7.13,129.88.88,101,.5,89.26a2.91,2.91,0,0,1,5.81-.18c.34,10.47,6.1,36.3,52.31,49.91,37.57,11.06,105.4,10.38,125.29,9.9a17.17,17.17,0,0,0,12-5.25l58.55-60.42a.79.79,0,0,0,.1-1,.8.8,0,0,0-.95-.31,97.23,97.23,0,0,1-16.05,4.45c-30.05,5.06-81.73-4.86-90-6.52L67.74,123A2.9,2.9,0,1,1,65,117.92l80.77-43.69a2.87,2.87,0,0,1,2-.29c.58.12,57.92,11.9,88.83,6.69a90.72,90.72,0,0,0,15-4.18,6.62,6.62,0,0,1,7,10.81l-58.55,60.43a23,23,0,0,1-16,7C178.74,154.83,171.81,154.94,163.83,154.94Z"/></g></g></svg>