<svg xmlns="http://www.w3.org/2000/svg" xmlns:xlink="http://www.w3.org/1999/xlink" viewBox="0 0 79.9 38.23"><defs><style>.cls-1{fill:none;}.cls-2{clip-path:url(#clip-path);}.cls-3{fill:#fff;}</style><clipPath id="clip-path" transform="translate(0 0)"><rect class="cls-1" width="79.9" height="38.23"/></clipPath></defs><g id="Layer_2" data-name="Layer 2"><g id="Layer_1-2" data-name="Layer 1"><g class="cls-2"><path class="cls-3" d="M4,29.16c-.06,0-.15.41-.21.41s-.17.34-.23.33-.18.18-.25.18,0-1.39,0-1.4S3,29.81,2.92,29.8,3.2,28,3.14,28s-.26.57-.32.55,0-.23-.09-.25-.25.34-.31.32-.2.14-.26.11.23-.63.17-.66-.72.92-.77.88.26-.57.22-.6-.69.52-.73.48.47-.63.43-.68-.69.28-.72.23.77-.56.75-.62-.37,0-.39,0,1-.26,1-.32-1.28,0-1.28-.06.91-.09.91-.18.58-.09.58-.18.07-.1.07-.19-1.35-.09-1.35-.18,1.23-.09,1.23-.18-.78-.09-.78-.18S.42,26.14.42,26s.84-.09.84-.18.74-.09.74-.18S.27,25.59.27,25.5s-.14-.09-.14-.19,1.58-.09,1.58-.18.1-.09.1-.18-.39-.09-.39-.18.75-.1.75-.19-2-.09-2-.18S0,24.31,0,24.22s.23-.09.23-.19.27-.09.27-.18.67-.09.67-.18.28-.09.28-.18-.35-.1-.35-.19-.21-.09-.21-.18S.72,23,.72,22.94s.87-.09.87-.18.42-.1.42-.19-.47-.09-.47-.18-.12-.09-.12-.18,0-.09,0-.18.93-.1.93-.19-.81-.09-.81-.18S.21,21.57.21,21.48s2.05-.1,2.05-.19-.81-.09-.81-.18.87-.09.87-.18S.8,20.84.8,20.74s1.07-.09,1.07-.18-.62-.09-.62-.18-.09-.09-.09-.18S0,20.11,0,20s1.55-.09,1.55-.19.43-.09.43-.18S.34,19.56.34,19.47s.72-.09.72-.18S.28,19.2.28,19.1s.28-.09.28-.18,1.85-.09,1.85-.18-.56-.09-.56-.18,0-.1,0-.19.09-.09.09-.18S.33,18.1.33,18s-.25-.09-.25-.18,1.83-.09,1.83-.19,0-.09,0-.18-.9-.09-.9-.18,1.08-.09,1.08-.18,0-.09,0-.18-2-.1-2-.19.75-.09.75-.18-.32-.09-.32-.18.85-.09.85-.19.8-.09.8-.18S.47,15.91.47,15.82s1.69-.09,1.69-.19S.58,15.54.58,15.45s1.22-.09,1.22-.18S0,15.18,0,15.09s1.84-.1,1.84-.19S.15,14.81.15,14.72s.23-.09.23-.18,1.68-.09,1.68-.19-1.9-.09-1.9-.18,1-.09,1-.18S.1,13.9.1,13.8s1.38-.09,1.38-.18-.16-.09-.16-.18,1.1-.09,1.1-.19S.88,13.16.88,13.07s.57-.09.57-.18S.24,12.8.24,12.7s.19-.09.19-.18.19-.09.19-.18,1.57-.1,1.57-.19S0,12.06,0,12s2.28-.09,2.28-.18-.21-.09-.21-.18-2-.1-2-.19,1.11-.09,1.11-.18S0,11.15,0,11.05s1.56-.09,1.56-.18.78-.09.78-.18S.56,10.6.56,10.5s.52-.09.52-.18.54-.09.54-.18S1.4,10,1.4,10,.54,9.86.54,9.77s.76-.1.76-.19.11-.09.11-.18S.35,9.31.35,9.21.41,9.12.41,9s1-.09,1-.19.35-.09.35-.18.06-.11.07-.17.14-.11.15-.17.14-.1.15-.16S.15,7.91.15,7.85,2,7.88,2,7.82s-.72-.19-.71-.25.34-.08.34-.14-.14-.13-.13-.19S1.15,7.05,1.16,7s.55,0,.56-.07-1-.35-1-.41.94.09,1,0,1,.14,1,.09S2,6.34,2,6.29a1.11,1.11,0,0,1,.07-.16s-.33-.23-.31-.29,1,.27,1.05.21-.13-.15-.1-.21-1.29-.66-1.26-.71.18-.06.21-.12,1.12.42,1.15.36S2,4.82,2,4.76s1,.43,1.06.38S1.4,4,1.43,4s.28,0,.31-.05,1.06.53,1.1.48.48.19.51.14S2,3.45,2,3.4s.42.14.46.09.66.36.69.32.24,0,.28,0-.08-.22,0-.26-.95-1-.9-1.08.69.47.73.43.27.1.32.06.84.75.88.71S3,1.93,3.09,1.89s.64.55.68.51-.39-.71-.34-.75S4.61,3,4.66,3s-.19-.45-.14-.49.57.68.62.65S4,1.07,4,1s1,1.41,1,1.38.22.18.27.15.21.2.26.17-.48-1.27-.43-1.3S4.93.54,5,.52s.48.82.54.8S6,2.4,6.1,2.38,5.66.67,5.72.65s.56,1.47.62,1.46-.15-1-.09-1,.07-.3.13-.31.16.11.22.1.12-.1.18-.11.33,1.61.39,1.61.07-.14.13-.15,0-.78.11-.78.1-.54.16-.54.13.32.19.32.09.72.18.72.09-.2.18-.2.09.21.18.21S8.39.62,8.48.62s.09-.05.18-.05.08.55.17.55.09.78.18.78.09-.22.18-.22.09.53.18.53S9.46.06,9.55.06s.09.86.18.86.09,1.13.18,1.13h.18c.09,0,.09-2,.18-2s.09,1.07.18,1.07.07.89.13.89.3-1.71.36-1.7-.26,2-.2,2S11,1.8,11,1.82s-.11.41-.06.43S11.78.87,11.83.9s.38-.2.43-.16-.12.47-.07.51-.78.91-.74,1,.35-.17.38-.12-.25.28-.22.33.13,0,.16.07,1.1-.43,1.13-.38-1,.56-.93.61,1.21-.31,1.23-.25-1.77.63-1.75.69.94-.13,1-.08-.81.21-.81.27,1.16,0,1.16,0,.18.13.18.19.45.16.44.22-1.3,0-1.31.08-.49,0-.5.05S13,4.35,13,4.4s-1.59-.35-1.61-.29,1.51.64,1.48.7-1.54-.57-1.56-.51.05.07,0,.13,1.48,1,1.45,1.05.2.35.16.4-1.75-1.26-1.79-1.21.64.71.59.75.06.27,0,.31,0,.19-.09.22,0,.37-.06.39-.39-.63-.45-.61S11,5.67,11,5.68s-.23-.9-.29-.89,0,.1-.09.1-.06,2.21-.12,2.21-.09-.57-.18-.57-.09.55-.17.55-.09.08-.18.08-.09-.39-.18-.39-.09-1.72-.17-1.72-.09.06-.18.06S9.3,6.26,9.21,6.26,9.12,6.14,9,6.14s-.1.19-.16.19-.23-1-.29-1,0,.74-.09.75-.36-.84-.42-.82S8.5,7,8.45,7s-.21-.33-.27-.31,0,.15-.06.18.05.17,0,.21.1.15.05.19-.62-.46-.66-.41.76.59.73.65-.91-.42-.93-.36.31.21.29.27-.58,0-.59,0a.62.62,0,0,0-.07.19c0,.06.29.15.29.22S5.78,8,5.78,8s1.65.09,1.65.18-1,.09-1,.18,0,.1,0,.19S8,8.66,8,8.75s-.13.09-.13.18S6.4,9,6.4,9.11s1.31.09,1.31.18.14.1.14.19-1.52.09-1.52.18.29.09.29.18-.48.09-.48.19,1.59.09,1.59.18-.46.09-.46.18.51.09.51.18-.25.09-.25.19-1.19.09-1.19.18-.22.09-.22.18,1.35-.43,1.41-.37-.46-.41-.37-.41.09,2.07.19,2.07.09-.85.18-.85.09-1.21.18-1.21.09,1.94.18,1.94.09-1.45.18-1.45.1,1,.19,1,.09-1.55.18-1.55.09.27.18.27.09-.25.19-.25.09.22.18.22.09,1.69.18,1.69.09-1.26.19-1.26.09,1,.18,1,.09-1.57.18-1.57.09.94.19.94.09.52.18.52.09-.88.18-.88.1,1.18.19,1.18.09-.31.18-.31.09-.14.19-.14.09-.24.18-.24.09-.21.19-.21,0,1,.07,1,.47-1.59.52-1.58-.6,1.77-.54,1.79.92-1.33,1-1.29-.58.84-.54.88,0,0,.07.1.39-.14.42-.08.95-.32,1-.26-.94.56-.92.62.57-.07.59,0-1.18.45-1.17.51S13,12.67,13,12.73s-.1.17-.09.23-1.11.2-1.1.27.16.07.16.13,1.31.16,1.31.22-1.29,0-1.29.08-.35,0-.36.09,1.72.48,1.71.54a2,2,0,0,1-.07.23c0,.06-.25.1-.27.16s-.85-.22-.88-.17,1.11.75,1.08.8-1.25-.59-1.28-.54S12,15,12,15s.08.3,0,.33-.69-1-.74-1,.47,1.43.41,1.45l-.25,0c-.06,0-.18.42-.24.42s-.09-1.2-.19-1.2-.09.32-.18.32-.09-.25-.18-.25-.09,1.39-.19,1.39-.09-.83-.18-.83-.09-.78-.18-.78-.09.83-.18.83-.09-1.14-.18-1.14-.1.84-.19.84-.09.55-.18.55-.09-.46-.18-.46-.1.76-.19.76S8.91,15,8.82,15s-.09,1.08-.18,1.08-.1.34-.19.34-.09-.13-.18-.13-.09-1.14-.19-1.14l-.18,0c-.09,0-.09.66-.18.66s-.09-.48-.19-.48-.09.15-.18.15-.09-.42-.19-.42.45.87.39.93.27-.49.27-.4,0,.1,0,.19-.21.09-.21.18-.46.09-.46.18.86.09.86.18-1.75.09-1.75.19-.34.09-.34.18,1.6.09,1.6.18-.17.09-.17.18-.54.1-.54.19-.7.09-.7.18.57.09.57.18,0,.09,0,.19.95.09.95.18S6,18.06,6,18.15s.21.09.21.18.46.09.46.18.63.09.63.19-.23.09-.23.18.4.09.4.18-.23.09-.23.18-.34.09-.34.19.77.09.77.18-.87.09-.87.18-.76.09-.76.18-.18.1-.18.19,2.1.09,2.1.18-2,.09-2,.18,1,.1,1,.19,0,.09,0,.18S6,21,6,21.07s1.32.09,1.32.19S6,21.35,6,21.44s1.55.09,1.55.18-1.74.09-1.74.19,1.08.09,1.08.18.73.09.73.18-.31.09-.31.19.72.09.72.18-.94.09-.94.18-.47.09-.47.19.61.09.61.18-1.45.09-1.45.18,1.84.1,1.84.19-.51.09-.51.18-.61.09-.61.18,1.41.09,1.41.19-1.68.09-1.68.18,0,.09,0,.18-.06.09-.06.18.91.1.91.19.51.09.51.18,0,.09,0,.19.41.09.41.18-.27.09-.27.18-.17.1-.17.19S6,25.75,6,25.84s.11.09.11.19.89.09.89.18.74.09.74.18-.66.1-.66.19.87.09.87.18-.49.1-.49.19-1.15.09-1.15.18.54.1.54.19-.15.08-.16.14.36.19.34.25-1.11-.37-1.14-.32.21.1.18.15.46.41.42.46.43.59.38.63.33.7.28.73-.7-.68-.75-.65.08.43,0,.46,0,.4,0,.43-.68-1.16-.73-1.14.1.59,0,.61-.14,0-.2,0S5.1,28,5,28.05s.14,1,.08,1,0,.9,0,.91-.34-1.28-.4-1.27-.13-.26-.19-.26,0,1.05-.09,1.05-.15-.28-.21-.28-.12,0-.18,0" transform="translate(0 0)"/><path class="cls-3" d="M22.69,28.55c-.06,0-.1-.2-.16-.2S22.36,30,22.3,30s-.16.4-.22.4,0-2.08,0-2.09-.14.3-.2.29-.24,1.1-.3,1.09-.17.28-.23.27-.09-.32-.15-.33-.07-.33-.13-.35,0-.57-.07-.58-.29.75-.35.74,0-.61,0-.63-.32.73-.38.72.12-.85.06-.87-.45,1-.51,1,0-.48,0-.51-.16,0-.21,0-.24.24-.3.21-.08-.14-.14-.17-.28.3-.34.28-.2.07-.25,0,.14-.6.09-.63,0-.27-.06-.3l-.17-.08c-.06,0,.52-1.14.47-1.17s-1.25,1.83-1.31,1.79.89-1.64.83-1.67-1,1.34-1.08,1.31.67-1.21.62-1.25,0-.23,0-.26.12-.34.07-.38-.36.29-.41.25-.39.29-.44.25.19-.42.15-.46,0-.21,0-.25-.86.74-.91.7.7-.89.66-.94-1.25,1.05-1.29,1,.67-.82.62-.86-.17,0-.21-.06-.21,0-.25,0-.29.07-.33,0,.3-.4.26-.45-.43.16-.46.11-.69.33-.73.28.91-.8.88-.85-.88.42-.91.36.19-.28.16-.34.67-.55.64-.6.18-.24.15-.29.53-.4.5-.46-1,.37-1,.31.22-.23.19-.29-.45.07-.48,0,1.05-.55,1-.61-1.18.33-1.21.28-.43,0-.45-.05-.37,0-.39-.09-.23-.09-.25-.15,1.31-.47,1.29-.53-1.17.13-1.18.07,1.76-.48,1.75-.54-.63,0-.64-.05.2-.14.19-.21-.42-.06-.43-.12-.23-.1-.23-.16.65-.16.65-.22-1.17-.08-1.17-.14.61-.14.61-.2-.85-.09-.85-.18.78-.1.78-.19-.72-.09-.72-.18.95-.09.95-.19-.35-.09-.35-.18,1.06-.09,1.06-.19-1.28-.09-1.28-.18.91-.09.91-.19.58-.09.58-.18.06-.09.06-.18-1.34-.1-1.34-.19,1.23-.09,1.23-.18-.79-.1-.79-.19-1.09-.09-1.09-.18.84-.09.84-.19.74-.09.74-.18-1.73-.09-1.73-.19-.14-.09-.14-.18,1.58-.09,1.58-.19.1-.09.1-.18-.39-.09-.39-.19.75-.09.75-.18-2-.09-2-.19-.14-.09-.14-.18.23-.09.23-.19.27-.09.27-.18.67-.09.67-.19.28-.09.28-.18-.35-.09-.35-.18-.21-.1-.21-.19-.21-.09-.21-.18.87-.1.87-.19.42-.09.42-.18-.47-.1-.47-.19-.12-.09-.12-.18,0-.1,0-.19.93-.09.93-.19-.81-.09-.81-.18-1.29-.09-1.29-.19,2.05-.09,2.05-.18-.81-.1-.81-.19.87-.09.87-.18-1.52-.1-1.52-.19,1.07-.09,1.07-.19-.62-.09-.62-.18-.09-.1-.09-.19-1.1-.31-1.09-.37,1.54.21,1.55.16S15,13,15,13s-1.37-1-1.34-1,.66.31.7.26-.45-.65-.41-.7.32.1.37.07S15.56,13,15.61,13s-.26-.5-.21-.53.09,0,.15,0,.11,0,.16,0-.6-1.56-.54-1.58.07-.3.12-.32.72,1.68.78,1.67l.13-.06c.06,0-.1-.9,0-.92s.3,1,.36,1l.13,0c.06,0-.06-2,0-2s.19.74.25.74.13-.33.19-.33.12.85.18.85.05.81.1.82.28-1.65.34-1.64-.13,1.69-.07,1.7.41-1.54.46-1.52S17.93,12,18,12s.64-1.68.69-1.67-.48,1.78-.43,1.8.77-1.52.82-1.49.05.28.1.31-.7,1.53-.65,1.56S19.63,11,19.67,11s-.45.92-.41.95.78-.76.83-.72-.81,1.13-.77,1.17.19,0,.23,0-.83.71-.8.75,1.34-.75,1.37-.7-.48.34-.46.39,1.23-.13,1.24-.07-.17.27-.17.33-.19.09-.19.18-1.57.09-1.57.19,2.15.09,2.15.18-2.28.09-2.28.19.21.09.21.18,2,.09,2,.18-1.11.1-1.11.19,1.19.09,1.19.18-1.56.1-1.56.19-.78.09-.78.18,1.79.1,1.79.19-.52.09-.52.18-.54.09-.54.19.22.09.22.18.86.09.86.19-.76.09-.76.18-.11.09-.11.19,1.06.09,1.06.18-.06.09-.06.19-1,.09-1,.18-.35.09-.35.18-.06.1-.06.19-.15.09-.15.18-.14.1-.14.19,2,.09,2,.18-1.85.1-1.85.19.73.09.73.18-.32.1-.32.19.16.09.16.18.38.09.38.19-.53.09-.53.18,1.09.09,1.09.19-.93.09-.93.18-1,.09-1,.19.67.09.67.18,0,.1,0,.19.39.09.39.18-1.06.1-1.06.19.18.09.18.19,1.43.09,1.43.18-.14.09-.14.19-1.19.09-1.19.18,1,.1,1,.19-1.11.09-1.11.18,2,.1,2,.19-.24.1-.24.19-1.17.15-1.17.21S19,22,19,22.09s1.76-.17,1.77-.12-.39.18-.37.23-.68.34-.66.4-.15.22-.12.27.24.05.26.1,1.27-.58,1.3-.53-.66.52-.62.57-.15.25-.11.29-.79.83-.75.88,1.75-1.4,1.79-1.35-.53.65-.48.69.59-.54.64-.5-1,1.49-1,1.53.4-.31.45-.27-.31.84-.26.87,1.21-2,1.26-2-.58,1.61-.53,1.63.08.31.14.33.12.3.17.31.39-1.3.45-1.29.16-.9.22-.89,0,1,.1,1,.19,1.19.25,1.18-.06-1.76,0-1.77.4,1.53.45,1.52-.12-1-.06-1.05,0-.29.05-.31.13.1.19.07,0-.11.09-.14,1,1.32,1,1.29.07-.21.12-.24S24.46,24,24.5,24s-.26-.47-.21-.51.3.15.35.1.63.37.67.32-.06-.24,0-.29.26,0,.3-.07-1.06-.78-1-.83,0-.1,0-.15.54.14.57.08.78.15.8.09-.17-.21-.15-.27.56-.05.57-.1-2.11-.46-2.1-.52.87,0,.87-.05,1.13-.1,1.13-.16,0-.09,0-.18-2-.09-2-.18,1.07-.09,1.07-.18.89-.09.89-.18-1.73-.09-1.73-.18,2-.1,2-.19-.61-.09-.61-.18.42-.09.42-.18-1.6-.09-1.6-.18-.38-.09-.38-.18.44-.09.44-.18,1.2-.09,1.2-.19-.37-.09-.37-.18.36-.09.36-.18-.1-.09-.1-.18-1.17-.09-1.17-.18,1.09-.09,1.09-.18-1.24-.09-1.24-.18,1.88-.1,1.88-.19-.95-.09-.95-.18.84-.09.84-.18-1.16-.09-1.16-.18-.16-.09-.16-.18-.45-.09-.45-.19,1.3-.09,1.3-.18.49-.09.49-.18-1.49-.09-1.49-.18,1.63-.09,1.63-.18-1.64-.09-1.64-.18,1.64-.09,1.64-.18-.08-.1-.08-.19-1.78-.09-1.78-.18-.36-.09-.36-.18,2.16-.09,2.16-.18-1-.09-1-.18-.24-.09-.24-.19-.14-.09-.14-.18-.32-.09-.32-.18.73-.09.73-.18.1-.09.1-.19.92-.09.92-.18-.09-.09-.09-.18-2.2-.09-2.2-.18.56-.1.56-.19-.54-.09-.54-.18-.08-.09-.08-.18.39-.1.39-.19,1.71,0,1.71,0-.06,0,0,0-1-.51-1-.57.17-.06.21-.1-.06-.23,0-.28.78.64.82.6-.4-.62-.35-.66.6.68.65.64-.83-1.52-.78-1.55.32.26.37.23.07-.18.13-.21.07-.22.12-.24.09-.22.15-.24.37.68.43.67-.11-1-.05-1,.36,1,.42.93.06-.39.12-.4.2.55.26.54.12,0,.18,0,.11-.32.16-.33.13,1.44.19,1.44.14-1.64.2-1.64.07,1,.13,1l.16,0c.06,0,.32-1.54.38-1.53s.14.14.2.15S29.18,12,29.24,12s.44-1.24.5-1.23.2-.08.26-.06-.41,1.46-.36,1.48.2-.22.25-.2-.14.46-.09.49.93-1.31,1-1.27-.13.47-.08.51.46-.29.5-.25,0,.32,0,.36-.84.85-.8.9-.17.13-.14.19,1.56-.54,1.58-.48.24.22.25.29-2,.28-2,.34.85.09.85.18,1.2.09,1.2.18-1.94.09-1.94.18,1.46.09,1.46.18-1,.1-1,.19,1.55.09,1.55.18-.27.09-.27.18.25.09.25.18-.22.09-.22.18-1.69.09-1.69.18,1.26.09,1.26.19-1,.09-1,.18,1.57.09,1.57.18-.94.09-.94.18-.51.09-.51.18.87.09.87.18-1.17.09-1.17.18.3.09.3.19.14.09.14.18.25.09.25.18.2.09.2.18-1,.09-1,.18,1.65.09,1.65.18-1.87.1-1.87.19,1.63.09,1.63.18-1,.09-1,.18,0,.09,0,.18.41.09.41.18,1,.09,1,.18-1.09.09-1.09.19.56.09.56.18-1.27.09-1.27.18,1.37.09,1.37.18-.12.09-.12.18-1.13.09-1.13.18.16.1.16.19,1.31.09,1.31.18-1.28.09-1.28.18-.34.09-.34.18,1.79.1,1.79.19,0,.09,0,.18-.2.09-.2.18-.87.09-.87.18,1.32.1,1.32.19-1.37.09-1.37.18.22.09.22.19.27.09.27.18-1.26.1-1.26.16,1.5.17,1.5.24,0,.13,0,.19.4.18.39.24-1.2,0-1.21.06.3.16.29.22-.27.08-.28.14,1.34.4,1.33.46-.84,0-.86,0-.78-.08-.8,0,.77.35.75.41-1.12-.23-1.14-.17.76.38.74.44.46.31.44.37-.48-.05-.5,0,.64.43.61.49-1.19-.42-1.21-.36.9.59.87.65.24.29.21.34-.19.07-.22.12-1-.47-1.08-.41-.08.09-.11.14.48.47.44.52-.46-.17-.5-.12.06.19,0,.24-.41-.16-.45-.11.84.82.8.87-.07.13-.11.18l-.13.16s-.24,0-.28,0-.43-.23-.48-.18.52.7.48.75-1.31-1.17-1.35-1.13-.31-.18-.36-.13,1,1.27.93,1.31-.21,0-.25,0-.45-.35-.5-.31-.51-.48-.56-.44.25.53.2.56-.11,0-.17.07.44.86.38.89-.95-1.23-1-1.2,0,.23,0,.27S27,28,27,28s.21.61.15.64-.22-.14-.27-.11.07.42,0,.44-.21-.14-.27-.12-.26-.25-.31-.22.19.75.13.78-.45-.76-.51-.73-.38-.68-.44-.66-.15-.12-.21-.1.56,2,.5,2S25,28.12,25,28.14s.18,1,.12,1a1.34,1.34,0,0,0-.18.07c-.06,0-.35-1-.41-1s.17,1.31.11,1.32-.37-1.28-.43-1.27.15,1.55.09,1.56-.38-1.71-.44-1.7,0,1.09,0,1.1,0,.73-.11.74-.15-.29-.22-.29-.08.72-.14.73-.18-.93-.24-.92-.14-.48-.2-.48-.12-.51-.18-.51" transform="translate(0 0)"/><path class="cls-3" d="M37.17,30.29c-.06,0-.09-1.9-.15-1.9s-.12.34-.18.33-.28,1.53-.34,1.52,0-.85-.09-.86-.12-.12-.18-.13-.24.4-.3.39.28-1.41.23-1.43.06-.39,0-.41-.08.06-.13,0-.6,1-.65,1,.17-.52.12-.55-.74.89-.79.86.31-.67.26-.71-.75.62-.79.58.27-.54.23-.59-.68.28-.71.23.06-.35,0-.4.62-.5.59-.55.8-.29.79-.35-1.37,0-1.37-.06.12-.09.12-.18,1.08-.09,1.08-.18-1.37-.09-1.37-.18-.16-.09-.16-.18.8-.1.8-.19-.71-.09-.71-.18,1.76-.09,1.76-.18.24-.09.24-.18-.32-.09-.32-.19-.9-.09-.9-.18.31-.09.31-.18.22-.09.22-.18-1.25-.09-1.25-.18,0-.09,0-.18-.4-.09-.4-.18.71-.09.71-.19,1.38-.09,1.38-.18.21-.09.21-.18-1.7-.09-1.7-.18-.41-.09-.41-.18,2.08-.09,2.08-.18-.31-.1-.31-.19S34,23.19,34,23.1s-.29-.09-.29-.18.3-.09.3-.18.32-.09.32-.18.56-.09.56-.19-.79-.09-.79-.18.59-.09.59-.18-.78-.09-.78-.18.84-.09.84-.18-1.08-.09-1.08-.18.46-.09.46-.18S34,21.2,34,21.1s-.3-.09-.3-.18.1-.09.1-.18-.39-.09-.39-.18-.15-.09-.15-.18.61-.1.61-.19.24-.09.24-.18,0-.09,0-.18,1.24-.09,1.24-.18-2.21-.09-2.21-.19S35,19.37,35,19.28s-1.69-.09-1.69-.18,1.38-.09,1.38-.18.2-.09.2-.18.34-.1.34-.19-.45-.09-.45-.18-.47-.09-.47-.18.44-.09.44-.19.19-.09.19-.18-1.13-.09-1.13-.18S35,17.55,35,17.46s-1.63-.09-1.63-.19,1-.09,1-.18-.12-.09-.12-.18-.17-.09-.17-.18-.26-.1-.26-.19.48-.09.48-.18-.43-.09-.43-.18-.75-.09-.75-.18,1.2-.09,1.2-.18-1-.1-1-.19.32-.09.32-.18.86-.09.86-.18.27-.1.27-.19.66-.09.66-.18-1-.09-1-.18.3-.09.3-.19-.44-.09-.44-.18,1.17-.09,1.17-.18-1.22-.1-1.22-.19-.41-.09-.41-.18-.35-.09-.35-.18-.19-.1-.19-.19,1.38-.09,1.38-.18-1.17-.1-1.17-.19,1.82,0,1.83-.05-.61-.14-.59-.2.21,0,.23,0-.34-.25-.31-.3-.12-.21-.09-.25.55.36.6.32-.72-.92-.67-1S35,12,35,12s-.35-.78-.3-.81.5.6.56.57-.19-.71-.14-.73.48.82.54.8,0-.37,0-.39.39,1,.45,1-.21-1.27-.15-1.28.29.87.34.86.17.56.23.55.08.05.14.05,0-1.35.05-1.35.16,1.22.22,1.22.08-.79.14-.79.17-1.1.23-1.09.09.85.15.86,0,.73.09.74.41-1.68.47-1.67.21-.1.28-.09S38.09,12,38.16,12s.05.12.11.15.25-.32.3-.3-.26.71-.2.74,1.13-1.64,1.19-1.61.26,0,.31.05,0,.33.07.38,0,.34,0,.39-.43.52-.4.58-.2.22-.17.28.37,0,.38.05.24.1.25.17.22.16.22.22-.86.09-.86.17-.42.09-.42.18.46.08.46.17.12.08.12.17,0,.09,0,.17-.92.09-.92.18.8.08.8.17,1.25-.13,1.27,0,0,.59.08.53-.67-.47-.64-.53.81.34.84.29-1.24-.9-1.21-.95,1,.48,1,.43-.44-.45-.4-.5,0-.16,0-.21-.79-.81-.75-.86,1.28.89,1.32.84.39.2.44.15-1.15-1.23-1.11-1.28.61.41.65.36-.44-.66-.4-.7.3.12.35.08,1.29,1.32,1.34,1.28-.28-.5-.24-.53.12,0,.17-.06.13,0,.18,0-.83-1.44-.78-1.48,0-.29,0-.32,1,1.51,1.1,1.48a.38.38,0,0,1,.13-.09c.06,0-.29-.87-.24-.89s.53.94.59.92.07-.06.13-.08-.47-1.94-.41-2,.35.69.41.67.09-.35.16-.36.25.82.32.82.16.79.22.79.08-1.67.14-1.67.09,1.69.18,1.69.09-1.58.18-1.58.09,1.22.18,1.22.09-1.8.18-1.8.09,1.84.18,1.84.09-1.69.18-1.69.22.24.28.25S45.39,12,45.46,12s.65-1.79.7-1.77-.21,1-.16,1,.68-.86.73-.82-.64,1.22-.59,1.26.18-.06.23,0-.71.83-.67.88,1.21-.95,1.25-.9-.37.45-.34.5,1.1-.55,1.14-.49-.07.25,0,.31-.1.24-.08.3-1.41.67-1.39.73,2.09-.51,2.11-.45-2.2.64-2.18.7.22,0,.23.09,2-.06,2,0-1.1.19-1.1.25,1.18.18,1.18.24-1.56,0-1.57.08-.78,0-.79,0,1.74.45,1.73.5-.54,0-.55.07-.55-.08-.57,0,.17.17.14.22.72.51.69.56-.72-.26-.75-.21-.15,0-.19.07.76.76.72.8-.16.1-.2.14-.79-.58-.83-.54S46,15.3,46,15.34s-.1,0-.15,0-.11-.1-.17-.07-.08-.12-.14-.1.41,1.92.35,1.93-.44-1.79-.5-1.78,0,.74-.11.74-.09-.33-.18-.33-.08.16-.17.16-.09.38-.18.38-.09-.53-.19-.53-.09,1.09-.18,1.09-.09-.93-.18-.93-.2-1-.27-1-.11.69-.18.69h-.22c-.06,0-.06.41-.12.43s-.47-1-.53-1-.12.23-.18.26.44,1.37.38,1.4-.16-.08-.22-.05-.72-1-.77-.94.42.93.36,1-.76-.83-.81-.79,1.13,1.67,1.09,1.7-.22-.13-.27-.09-.88-.8-.92-.76-.46-.26-.5-.21,1.2,1.29,1.16,1.33-.38-.2-.42-.16-.65-.37-.69-.32-.25,0-.29,0,.09.22.05.27,1.11.85,1.08.9-.76-.34-.79-.29-.29,0-.32,0S39.75,18,39.73,18s1.94,1.11,1.91,1.16-.79-.26-.82-.21.7.41.68.46-1.73-.54-1.75-.48.4.28.39.34-.89-.13-.91-.07,2.26.75,2.25.81-1.69-.3-1.71-.24-.28.07-.29.13-.29.09-.3.15,1.31.35,1.31.41.88.22.88.28-1,0-1,0-1.19,0-1.2.08,1.75.24,1.75.3-1.58,0-1.58.1,1,.16,1,.22.27.11.27.17-.14.09-.14.18.08.09.08.18-1.64.1-1.64.19.12.09.12.18.78.09.78.18.53.09.53.18-.32.09-.32.18-.72.09-.72.18.2.09.2.18-.21.09-.21.18,1.31.09,1.31.18.05.09.05.18-.55.09-.55.18-.78.09-.78.18.22.09.22.18-.54.09-.54.18,2.16.09,2.16.18-.86.09-.86.18-1.13.09-1.13.18,0,.09,0,.18,2,.09,2,.18-1.07.09-1.07.18-.89.09-.89.18S41,25.92,41,26s-2,.09-2,.18.62.09.62.18-.42.09-.42.18,1.6.1,1.6.19.37.09.37.18-.44.09-.44.18-1.2.09-1.2.18.38.07.37.13-.36-.06-.38,0,.09.06.06.11.94.72.91.76-.93-.57-1-.53.81.95.76,1-1.32-1.33-1.36-1.29.52.79.47.83-.54-.64-.59-.61.51,1,.46,1.07,0,.21-.09.24,0,.47,0,.5-.59-1.17-.65-1.14-.23-.44-.29-.42.29,1.46.24,1.47-.47-1.56-.53-1.55.19,1.63.13,1.64-.33-1.61-.39-1.6-.07.09-.13.09,0,1.79-.08,1.79-.14.53-.21.53" transform="translate(0 0)"/><path class="cls-3" d="M51.92,29.32c-.07,0-.15.22-.21.22s-.06-1.22-.12-1.22l-.16,0c-.07,0-.26,1-.32,1s-.21.31-.27.3.14-1.19.08-1.21-.32.69-.38.67,0-.33-.08-.35-.05-.2-.11-.22-.11,0-.17-.05-.22.15-.27.12l-.14-.11c-.05,0-.16,0-.2,0s-.17,0-.21-.05-.26,0-.29,0,1.11-.86,1.08-.91-1.21.54-1.23.49,0-.18,0-.24-.26-.1-.27-.16.34-.17.34-.23-.32-.09-.32-.18,0-.09,0-.18,1.12-.1,1.12-.19-1.6-.09-1.6-.18,1.62-.09,1.62-.18-1.07-.09-1.07-.18,1.47-.09,1.47-.19-1.72-.09-1.72-.18-.25-.09-.25-.18-.46-.09-.46-.18.1-.09.1-.19,1.34-.09,1.34-.18-.13-.09-.13-.18.9-.09.9-.18-2.1-.1-2.1-.19.32-.09.32-.18-.23-.09-.23-.18.71-.09.71-.19.94-.09.94-.18-.7-.09-.7-.18-.85-.09-.85-.18,0-.1,0-.19,1.8-.09,1.8-.18,0-.09,0-.18-.25-.09-.25-.18.34-.1.34-.19-.33-.09-.33-.18-1.18-.09-1.18-.18,0-.09,0-.18-.24-.1-.24-.19,1.23-.09,1.23-.18-.23-.09-.23-.18.28-.1.28-.19-1.64-.09-1.64-.18,1.9-.09,1.9-.18-.35-.09-.35-.19-1.54-.09-1.54-.18.84-.09.84-.18.1-.09.1-.18-.45-.09-.45-.18,1.44-.09,1.44-.19.39-.09.39-.18-.09-.09-.09-.18-1.17-.09-1.17-.18.55-.09.55-.19-1.15-.09-1.15-.18.72-.09.72-.18-1-.09-1-.18.58-.1.58-.19-.7-.09-.7-.18.24-.09.24-.18.78-.09.78-.18.84-.09.84-.19-1.35-.09-1.35-.18.11-.09.11-.18,1.08-.09,1.08-.18-1.37-.09-1.37-.18-.16-.1-.16-.19.8-.09.8-.18-.71-.09-.71-.18S50,16.28,50,16.18s.24-.09.24-.18-.33-.09-.33-.18-.9-.09-.9-.19.31-.09.31-.18.23-.09.23-.18-1.26-.09-1.26-.18,0-.1,0-.19-.4-.09-.4-.18.71-.09.71-.18S50,14.45,50,14.35s.2-.09.2-.18-1.69-.09-1.69-.18-.42-.09-.42-.19,2.08-.09,2.08-.18-.3-.09-.3-.18-1.12-.09-1.12-.19-.3-.09-.3-.18.31-.09.31-.18.31-.09.31-.19.57-.09.57-.18-.8-.09-.8-.18.6-.1.6-.19-.79-.09-.79-.18.85-.09.85-.18-1.09-.09-1.09-.18.47-.1.47-.19-.09-.09-.09-.18-.31-.09-.31-.19.1-.09.1-.18-.38-.09-.38-.18S48,10.6,48,10.5s.6-.09.6-.18.24-.09.24-.18,0-.1,0-.19,1.25-.09,1.25-.18-2.21-.1-2.21-.19,1.86-.09,1.86-.18-1.69-.09-1.69-.19,1.38-.09,1.38-.18.2-.09.2-.19.33-.09.33-.18-.44-.12-.44-.18-.47-.13-.47-.19.45-.1.45-.16.2-.1.2-.16-1.12-.21-1.11-.27,1.13,0,1.14-.07-1.6-.32-1.59-.38,1.05,0,1.06,0-.1-.14-.09-.2S49,6.85,49,6.8s-.24-.19-.22-.25.49,0,.51-.07-.39-.23-.37-.29-.69-.34-.67-.4S49.45,6,49.47,6s-.87-.43-.85-.49.34,0,.37-.08.84.19.87.14.29,0,.31-.06.65.18.67.13S50,5.06,50,5s.32,0,.35,0S50,4.67,50,4.61s1.07.49,1.1.44-1-.72-1-.77-.28-.33-.24-.38-.22-.31-.18-.36-.08-.23,0-.28,1.18.72,1.22.67-.85-.82-.81-.87,1.49,1.07,1.53,1-.41-.48-.37-.53.23.07.28,0-.23-.36-.18-.41-.07-.23,0-.28.54.41.58.37-.68-1-.63-1,.49.39.53.35-.42-.74-.37-.78.56.54.61.51-.31-.67-.26-.7.63.71.68.68-.08-.36,0-.39.64.86.69.83-.52-1.18-.47-1.21.52.76.58.73.33.48.39.46.1,0,.16,0-.41-1.29-.35-1.31S54,2.55,54,2.53s-.15-.78-.09-.8S53.76.64,53.82.62s.34.79.4.77.27.69.33.68S54.34.35,54.4.34s.12-.17.19-.17.33,1.55.39,1.54.12.09.18.08.08-.39.14-.4.13.74.2.74.09-2,.15-2,.09-.14.18-.14.09.24.18.24.09.26.18.26.09.67.18.67.08.28.17.28.09-.35.18-.35.09-.21.18-.21.09-.21.18-.21.09.87.18.87.09.42.18.42.09-.47.18-.47.09-.12.18-.12.09,0,.18,0,.09.92.18.92.09-.8.18-.8.19-1.3.25-1.29-.09,2.05,0,2.06.22-.79.28-.77-.17.85-.12.87.64-1.4.69-1.37S59,2,59.08,2s.41-.47.46-.43.16,0,.2,0,.94-.64,1-.59S59.6,2.1,59.64,2.15s-.31.31-.28.36,1.51-.75,1.54-.7-.57.46-.54.51.77-.18.8-.12-.21.25-.2.31-1.74.62-1.72.67.56-.06.57,0,0,.09,0,.14-.08.08-.07.14,1.66.07,1.66.13.24.18.24.24-1.83,0-1.84,0a.57.57,0,0,1,0,.13c0,.06.86.29.85.35s-1.06-.2-1.08-.14,0,.07,0,.12,1.78.91,1.75,1-.74-.19-.77-.14.2.3.17.35-.78-.37-.81-.32-.68-.45-.72-.4S60.25,6,60.2,6.08,59.05,4.83,59,4.87s.77,1.39.72,1.42-.65-1-.71-1S59.49,7,59.43,7s-.61-1.73-.68-1.72.16,1.69.1,1.7-.21-.22-.27-.21-.18-1.67-.24-1.67S58.25,7,58.16,7,58.07,6,58,6,57.9,7.1,57.81,7.1s-.09-1.38-.18-1.38-.09.16-.18.16-.08-1.1-.17-1.1-.09,1.54-.18,1.54-.09-.58-.18-.58S56.86,7,56.8,7s-.09-.19-.15-.18-.1-.18-.16-.17S56,5.13,55.93,5.15s.56,2.07.5,2.09-1-2-1.06-2-.11.3-.17.34,1,1.71,1,1.75-.78-.78-.83-.73.84.82.8.87-1.33-.81-1.36-.75S54,6.53,54,6.59s1.62.77,1.6.84-.53,0-.55,0-.56,0-.57.12.21.17.2.23.86.14.86.21-.76.09-.76.18-.11.09-.11.18,1.06.1,1.06.19-.06.09-.06.18-1,.09-1,.18-.35.09-.35.18-.06.09-.06.18-.15.1-.15.19-.14.09-.14.18,2,.09,2,.18-1.85.09-1.85.19.73.09.73.18-.32.09-.32.18.16.09.16.18.38.09.38.19-.54.09-.54.18,1.09.09,1.09.18-.93.26-.86.33.23,1.05.32,1.05.09-.68.18-.68.1,0,.19,0,.09-.39.18-.39.09,1.06.18,1.06.09-.17.18-.17.09-1.44.19-1.44.09.14.18.14.09,1.2.18,1.2.09-1,.19-1,.09,1.11.18,1.11.09-2,.18-2,.09.25.18.25.1,1.17.19,1.17.09.51.18.51.09-1.76.19-1.76.09.42.18.42.09.74.18.74.09.22.19.22.09-.2.18-.2.09-1.39.19-1.39.09.83.18.83.09.26.19.26,0,1.12,0,1.13.59-2.16.65-2.14-.1.85,0,.88.62-.56.67-.53-1.1,1.44-1,1.49.4-.28.44-.23-.73.49-.7.55,2.18-1,2.21-.91-1.52.81-1.5.86-.22.16-.2.22-.23.13-.22.19,1.35-.19,1.36-.13.92,0,.93.08-.93.25-.93.31-1.18.14-1.18.2,1.76.17,1.76.23-1.58,0-1.58.05,1,.26,1,.32.24.2.23.26-.18.11-.19.17,0,.17,0,.23-1.55-.56-1.57-.5.09.1.06.16.63.46.6.51.32.44.28.48-.32-.14-.37-.1-.41-.59-.47-.56.07.2,0,.21-.07-.19-.13-.19,0,1.32-.08,1.32S59,16,58.9,16s-.09-.55-.18-.55-.09-.78-.18-.78-.1.22-.19.22-.09-.54-.18-.54-.09,2.16-.18,2.16-.09-.86-.18-.86-.09-1.13-.19-1.13h-.18c-.09,0-.09,2-.18,2s-.09-1.07-.18-1.07-.1-.89-.19-.89-.09,1.73-.18,1.73-.09-2-.19-2-.09.62-.18.62-.09-.42-.18-.42S56.07,16,56,16s-.09.37-.18.37-.09-.44-.18-.44-.1-1.2-.19-1.2-.09.38-.18.38-.09-.37-.19-.37a2.15,2.15,0,0,0-.58.26c-.06.07,1,.49,1,.58s-1.09.1-1.09.19,1.24.09,1.24.18-1.88.09-1.88.18,1,.09,1,.18-.84.09-.84.19,1.15.09,1.15.18.17.09.17.18.45.09.45.18-1.3.1-1.3.19-.49.09-.49.18,1.49.09,1.49.18-1.63.09-1.63.19,1.63.09,1.63.18-1.63.09-1.63.18.07.09.07.18,1.79.09,1.79.18.36.09.36.19-2.16.09-2.16.18,1,.09,1,.18.24.09.24.18.14.09.14.19.32.09.32.18-.74.09-.74.18-.09.09-.09.18-.93.1-.93.19.1.09.1.18,2.2.09,2.2.18-.57.1-.57.19.55.09.55.18.08.09.08.18-.39.09-.39.19-1.72.09-1.72.18.06.09.06.18,1.16.09,1.16.19S55,21.9,55,22s.19.09.19.18-1,.09-1,.19.73.09.73.18-.9.09-.9.18,1.74.09,1.74.19-.39.09-.39.18.13.09.13.18.17.1.17.19.18.09.18.18-.77.09-.77.18,1,.09,1,.19-1,.09-1,.18.37.09.37.18-.57.09-.57.18,0,.1,0,.19.31.09.31.18-1.44.09-1.44.19,1.65.09,1.65.18-1,.09-1,.18,0,.1,0,.19,1.57.09,1.57.18-.13.09-.13.19-1.48.09-1.48.18,1.31.09,1.31.19.13.09.13.18-1.51.09-1.51.18.29.1.29.19S54,27,54,27.13s1.6.1,1.6.19-.47.16-.48.22.47.31.45.36-.31.12-.34.18-1.08-.48-1.12-.43-.18-.11-.22-.06S55,28.81,55,28.85s0,.27-.09.31-1.28-1.62-1.33-1.59.37.77.32.8.43,1.13.38,1.16-.91-1.71-1-1.69.44,1.39.39,1.41-.43-.89-.49-.87.31,1.52.25,1.54-.22-.22-.28-.21-.1.28-.16.29-.19-.19-.25-.19-.31-1.65-.37-1.65,0,1.27-.07,1.27-.16-1-.22-1-.1.87-.16.87" transform="translate(0 0)"/><path class="cls-3" d="M63.27,37.05c-.06,0-.1-.57-.16-.57s-.18,1.26-.24,1.26,0-1.67,0-1.68-.38,2.18-.43,2.17,0-.92-.06-.93,0-.59-.06-.6-.27.6-.33.58-.11-.07-.17-.09.38-1.31.32-1.33-.56,1.1-.62,1.08.29-.8.24-.83-.78,1-.82,1,.5-.74.46-.78-.33.14-.36.09.64-.47.62-.52-1.14.42-1.16.37-.29-.07-.31-.13,1.47-.51,1.46-.57-2,.29-2,.23.31-.21.31-.27,1-.23,1-.29.14-.12.14-.18-1.44-.06-1.44-.12.86-.15.86-.21,1.33-.09,1.33-.15-1.14-.17-1.13-.23.47-.07.48-.14-1.28-.3-1.27-.36.73,0,.74-.09,1,.11,1,0-.67-.29-.65-.35-.52-.32-.5-.38-.08-.21-.05-.26,0-.24,0-.29.4,0,.43,0-.21-.49-.17-.53.13-.29.18-.32.58.65.63.63.44,1.19.5,1.18-.23-1.74-.17-1.75.18-.24.24-.24h.15c.06,0,.15,1,.21,1s.09-.37.15-.37.1-.19.16-.19.1-.12.16-.12.07-.42.13-.43.24,1.37.3,1.36.18.52.24.52-.16-2.14-.1-2.15.18.5.24.48.48,1.66.55,1.65-.29-1.73-.23-1.74,0-.42,0-.43.69,1.78.75,1.76-.31-1.28-.25-1.3-.11-.57-.06-.59.39.64.45.62.46.71.52.68.38.39.43.36.09-.2.14-.23-.16-.53-.11-.56-.4-.74-.35-.78-.18-.36-.14-.4.44.34.48.3-.09-.23,0-.27,1,.73,1,.69l.14-.16c0-.05-.76-.74-.72-.79s-.22-.27-.19-.32,1.06.55,1.1.5-.58-.49-.56-.54.33,0,.36,0,.2-.05.23-.1,0-.13,0-.19-.17-.19-.16-.25a.77.77,0,0,0,.07-.16c0-.06-.07-.14-.06-.2S67,29,67,28.93s-.18-.14-.17-.2,1.42.08,1.43,0-1.3-.28-1.3-.34.13-.11.13-.17-.22-.12-.22-.18.36-.1.37-.16-.32-.12-.32-.18.05,0,.05-.06,1-.55.93-.63-1.46.64-1.5.55,1.4-.8,1.36-.89-1,.4-1,.32S68,26.27,68,26.19s-1.58.69-1.62.61-.26,0-.3-.06-.45.13-.49.05,0-.13,0-.21,1.16-.68,1.12-.76-.16,0-.2-.11.76-.48.72-.57-1.91.87-2,.78.24-.22.2-.3-.25,0-.29-.06.6-.4.56-.49.79-.5.75-.58-.67.23-.71.15-.8.3-.84.22-.08-.06-.12-.14,1.56-.89,1.52-1,0-.08-.07-.17-.27,0-.31-.05.26-.23.22-.31-.34.06-.38,0-1.1.45-1.14.37l-.09-.16c0-.08-.26,0-.31,0s1.07-.64,1-.72-.25,0-.29-.06.21-.21.16-.29-1.5.65-1.54.57,1.65-.93,1.61-1-.35.07-.39,0-1.42.61-1.46.53.71-.46.67-.55,0-.12,0-.21-.44.12-.48,0,1.24-.73,1.2-.81.31-.26.27-.34-.12,0-.16-.13-1.09.45-1.13.37.44-.33.4-.41-1.07.43-1.11.35.6-.41.56-.49-.89.35-.94.27.48-.34.44-.43-.66.23-.7.15.17-.19.13-.27.65-.43.61-.52.71-.46.67-.54-1.25.53-1.3.44.06-.13,0-.21.93-.57.89-.65-1.27.53-1.31.45-.18,0-.23-.09.68-.45.63-.53-.67.24-.71.16,1.53-.88,1.49-1,.18-.19.14-.27-.34.06-.38,0-.84.32-.88.24.23-.22.19-.3.16-.19.12-.27-1.16.48-1.21.4-.06-.08-.1-.16-.4.1-.44,0,.6-.41.55-.49,1.2-.7,1.16-.79.14-.17.09-.25-1.55.67-1.59.59-.41.11-.46,0,1.82-1,1.78-1.1-.32.06-.36,0-1,.42-1.08.34-.31,0-.35,0,.23-.22.19-.31.24-.22.2-.31.46-.33.42-.42-.78.22-.8.16.52-.3.51-.36-.8,0-.81,0,.83-.19.83-.25-1.08-.19-1.07-.25.48-.09.49-.15,0-.16,0-.22-.22-.27-.2-.32.17-.11.2-.16-.24-.36-.2-.41,0-.24,0-.28.56.27.6.22.27.08.32,0a.93.93,0,0,1,.13-.15s.89.89.93.85S61,11.15,61,11.11s1.19,1.44,1.25,1.4S61.44,11,61.49,11s.83,1.11.89,1.08.19.12.25.09.24.25.29.22-.09-.44,0-.47-.08-.48,0-.5.27.36.33.34.17.14.23.12-.23-1.12-.17-1.14.43,1,.49,1-.25-1.62-.18-1.63.34,1,.4,1,.11-.14.18-.15.12-.18.18-.18.14-.27.2-.27.14.48.21.49.2-.42.27-.41.36-.69.42-.67-.17,1.2-.1,1.22.52-.83.58-.8.09.41.14.44-.41.77-.36.82-.15.23-.12.28-.55.35-.52.41S66,12,66,12s-.24.2-.21.28.45-.08.49,0-1,.54-1,.62,1.16-.38,1.2-.3.42-.08.45,0,.35-.05.39,0,.21,0,.25.1-1.24.61-1.21.7,1.12-.37,1.16-.29-1.65.79-1.62.87.61-.15.64-.07-.16.17-.13.25.42-.07.45,0,.24,0,.27.09-.57.33-.54.42,1.11-.36,1.14-.28-.53.32-.5.4.82-.24.86-.15-.68.38-.65.46.71-.19.74-.11-.84.45-.81.54.36,0,.4,0-1,.49-.91.58,1.21-.41,1.25-.33-.81.44-.77.52-.5.31-.47.39,0,.11,0,.2,1.28-.44,1.31-.35-1.1.56-1.06.64.76-.22.79-.13,1-.34,1.09-.26-.75.41-.71.5-.64.36-.61.45,1.63-.58,1.67-.5.16,0,.2.12-1.43.69-1.4.77-.05.13,0,.21.39-.06.43,0-.66.37-.62.46,1.87-.69,1.9-.6.17,0,.2.11-.18.18-.15.26-.2.19-.17.27-.58.34-.55.43-.22.19-.19.27.36-.05.4,0,.23,0,.26.09.23,0,.26.09-.76.41-.73.5-.35.24-.31.33.46-.1.5,0,.14,0,.18.12.07.07.1.16-.81.44-.78.52.78-.22.82-.14S71,21,71,21s-1.86.88-1.82,1,.78-.22.82-.14-.77.42-.74.51,1-.66,1.11-.66.68.51.71.42-.57-.27-.54-.36-.06-.11,0-.2-1-.41-1-.5,1.51.37,1.53.28.44,0,.47-.05-1.58-.57-1.55-.66.71.12.73,0-.72-.31-.69-.4.3,0,.33-.09,1.79.46,1.82.37-.52-.25-.49-.34.08-.07.11-.16.1-.06.13-.14-1.56-.58-1.53-.66-.21-.16-.19-.25,1.78.45,1.8.36,0-.09,0-.18-.83-.35-.81-.44,1.06.23,1.09.14a1.35,1.35,0,0,1,0-.18c0-.08-1.89-.67-1.86-.76s.75.14.77.05-.28-.18-.25-.27.84.16.87.08.79.15.82.06-1.57-.58-1.54-.66,1.65.41,1.68.32-1.49-.55-1.46-.64,1.19.27,1.21.18-1.69-.61-1.66-.7,1.78.45,1.81.37-1.59-.59-1.57-.67.26,0,.29-.11,1.62.41,1.65.32-1.79-.65-1.76-.73,1,.21,1,.12-1-.4-1-.49,1.35.32,1.37.23-.12-.13-.1-.22,1.08.23,1.1.15-1.44-.54-1.41-.63.57.08.6,0-1.14-.45-1.11-.53.21,0,.23-.12.22,0,.25-.12,1.52.37,1.54.28-2-.71-2-.8,2.21.58,2.24.49-.18-.15-.15-.24S72,13,72,12.89s1.08.23,1.11.15-1.11-.44-1.08-.53,1.51.37,1.54.29.77.14.8,0-1.69-.61-1.66-.7.53.06.55,0,.55.08.57,0-.17-.16-.14-.22-.66-.58-.63-.63.69.34.74.29.15,0,.2,0-.38-1-.32-1,.19,0,.25,0,.44.87.5.85.17.32.23.31.07.05.13,0,.07.14.13.14.06.15.12.15.33-1.93.4-1.92-.18,1.84-.11,1.85.25-.7.31-.68,0,.34.1.36.15-.13.21-.11.24-.32.3-.3-.07.54,0,.57.52-1,.58-.94-.25.9-.19.92-.33.94-.27,1,.38-.55.43-.53.08.07.13.1.29-.28.34-.25-.47.95-.42,1,.17-.11.22-.07.91-1.12,1-1.08,0,.19.07.23-.67,1-.63,1,.74-.69.79-.65-.7.86-.66.9,1.57-1.26,1.61-1.21-.07.3,0,.35-.92.75-.89.8-.43.28-.4.33,1.69-.52,1.71-.47-.36.29-.35.35-.71.24-.7.3-.21.09-.21.15.2.07.19.13,1.36.36,1.35.42-.85-.05-.87,0-.29,0-.31,0-1.08-.33-1.12-.25,2,.92,2,1-.81-.22-.84-.14.71.39.68.47-1.72-.59-1.75-.5.41.26.37.34-.85-.24-.88-.16,2.17,1,2.14,1.06-1.62-.56-1.66-.47-.27,0-.31.07-.28,0-.31.07,1.22.59,1.19.67.81.42.78.51-.92-.27-1-.19-1.14-.36-1.18-.27,1.61.74,1.58.82-1.5-.5-1.53-.42.92.47.89.56.22.18.19.27-.17,0-.2.12,0,.11,0,.19-1.55-.52-1.59-.44.09.14,0,.22.69.37.66.46.45.28.42.36-.33,0-.37.05-.7-.18-.73-.1.15.16.12.25-.23,0-.27.09,1.18.57,1.15.65,0,.11,0,.19-.55-.12-.58,0-.76-.21-.79-.13.17.17.14.26-.53-.12-.57,0,2,.89,1.93,1-.83-.24-.87-.16-1.07-.33-1.11-.25a.89.89,0,0,1-.08.17c0,.09,1.8.82,1.77.9s-1-.31-1.07-.22-.86-.25-.89-.17,1.58.73,1.54.82-1.93-.68-2-.59.54.31.5.4-.42-.08-.46,0,1.45.68,1.42.76.32.23.28.31S76,22.94,76,23s-1.14-.36-1.18-.28.32.23.28.31-.37,0-.41,0,.06.12,0,.2,1.06.53,1,.61-1-.32-1.08-.24,1.12.55,1.08.63-1.77-.61-1.81-.52.85.43.81.52-.81-.23-.84-.15,1,.52,1,.6.12.15.09.23.38.26.35.34S74.06,24.92,74,25s-.49-.1-.52,0,1.35.64,1.31.73-1.54-.52-1.58-.44,1.48.7,1.45.78-1.55-.52-1.59-.44,0,.12,0,.2,1.62.75,1.58.84.3.22.27.3-2-.72-2.07-.63.85.44.82.52.19.18.15.26.1.14.06.23.27.2.23.29-.71-.19-.75-.1-.12,0-.15.13-.91-.23-.93-.17,0,.15,0,.21,2,.93,2,1-.57-.1-.59,0,.46.32.43.37,0,.15,0,.2-.41,0-.43,0-1.64-.51-1.66-.46,0,.14,0,.2,1,.53,1,.59-.16.07-.18.13.12.18.1.24-1-.25-1-.2.63.38.61.44-.88-.21-.9-.15,1.57.74,1.55.79-.4,0-.43,0,.08.15.06.21.11.18.09.23.13.18.11.23-.77-.15-.79-.1.85.49.83.54-1-.26-1-.21.3.27.27.32S71.8,32,71.78,32s-.09.09-.12.15.23.24.21.3-1.35-.54-1.37-.49,1.41.86,1.38.91-.92-.35-.95-.3-.06.09-.09.15,1.3.88,1.27.94-.18.05-.21.1-1.33-.67-1.36-.62,1,.8,1,.86,0,.18,0,.23-1.32-.74-1.36-.7.17.26.14.31-.46-.19-.49-.14,1.2,1.06,1.16,1.11-.45-.19-.49-.14.3.44.26.49-.28-.07-.32,0-.94-.74-1-.7-.23-.09-.27,0,1,1.29,1,1.33,0,.23,0,.27-1.41-1.51-1.46-1.48.44.74.4.78.61,1,.56,1.08-1.21-1.52-1.26-1.48.7,1.27.65,1.3-.62-.76-.68-.73.68,1.39.63,1.43-.25-.16-.31-.13,0,.28-.06.31-.23-.13-.28-.11-.84-1.46-.9-1.44.41,1.2.36,1.23-.5-.88-.55-.85.44,1.51.38,1.53-.44-.84-.5-.82-.27-.45-.33-.43.13.87.07.89S66.45,36,66.39,36s0,.32-.1.34-.08.16-.14.17-.06.27-.12.28-.09.23-.15.24-.27-.93-.34-.92.14,1.66.07,1.67S65.24,36,65.17,36s.09,1.62,0,1.63-.23-1-.29-1h-.18c-.06,0-.09.41-.15.42s-.06,1-.12,1-.19-1.08-.26-1.08-.1.57-.16.57-.16-1.26-.23-1.26-.09,1.37-.15,1.38-.13-.13-.19-.13-.13-.45-.19-.45" transform="translate(0 0)"/></g></g></g></svg>