<svg xmlns="http://www.w3.org/2000/svg" viewBox="0 0 313.49 150.01"><defs><style>.cls-1{fill:#030303;}</style></defs><g id="Layer_2" data-name="Layer 2"><g id="Layer_1-2" data-name="Layer 1"><path class="cls-1" d="M15.81,114.42c-.25,0-.57,1.61-.82,1.6s-.67,1.33-.91,1.31-.72.71-1,.68.15-5.44-.1-5.48-1.33,4.45-1.57,4.4,1.09-7.09.85-7.15-1,2.25-1.23,2.17-.11-.91-.34-1-1,1.36-1.22,1.26-.8.56-1,.45.87-2.47.66-2.6-2.84,3.6-3,3.47,1-2.25.84-2.39-2.69,2.07-2.85,1.91,1.83-2.49,1.69-2.66-2.71,1.09-2.83.89,3-2.21,2.95-2.42-1.46,0-1.52-.17,4-1,4-1.27-5,0-5-.22,3.56-.36,3.56-.72,2.29-.36,2.29-.71.25-.36.25-.72-5.28-.36-5.28-.71S9,104,9,103.62,6,103.26,6,102.91s-4.31-.36-4.31-.72S5,101.83,5,101.47s2.87-.35,2.87-.71-6.77-.36-6.77-.72S.5,99.68.5,99.32s6.22-.35,6.22-.71.37-.36.37-.72-1.52-.36-1.52-.72,2.94-.36,2.94-.72S.69,96.1.69,95.74.15,95.38.15,95s.93-.36.93-.72,1-.36,1-.71,2.62-.36,2.62-.72,1.11-.36,1.11-.72-1.36-.35-1.36-.71-.84-.36-.84-.72-.8-.36-.8-.71,3.39-.36,3.39-.72,1.65-.36,1.65-.72-1.83-.36-1.83-.71-.48-.36-.48-.72-.14-.36-.14-.72,3.62-.36,3.62-.72S5.9,85.35,5.9,85,.81,84.63.81,84.27s8.07-.36,8.07-.72-3.19-.36-3.19-.72,3.43-.36,3.43-.72-6-.35-6-.71,4.22-.36,4.22-.72S4.91,80.32,4.91,80s-.37-.36-.37-.71S.15,78.9.15,78.54s6.09-.36,6.09-.71,1.68-.36,1.68-.72-6.57-.36-6.57-.71,2.79-.36,2.79-.72S1.08,75.32,1.08,75s1.13-.36,1.13-.72,7.25-.36,7.25-.72-2.21-.36-2.21-.71.21-.36.21-.72.33-.36.33-.72S1.28,71,1.28,70.66s-1-.36-1-.71,7.17-.36,7.17-.72-.06-.36-.06-.71-3.54-.36-3.54-.72,4.23-.36,4.23-.71-.1-.36-.1-.72S.18,66,.18,65.66s2.95-.36,2.95-.72-1.26-.36-1.26-.72,3.33-.36,3.33-.72,3.17-.36,3.17-.72-6.54-.36-6.54-.72,6.66-.35,6.66-.71S2.27,61,2.27,60.63s4.78-.36,4.78-.72-7-.36-7-.72,7.22-.36,7.22-.71S.57,58.12.57,57.76s.94-.36.94-.72,6.57-.36,6.57-.72S.62,56,.62,55.6s4-.36,4-.72S.4,54.52.4,54.16s5.42-.36,5.42-.72-.63-.36-.63-.72,4.29-.36,4.29-.71-6-.36-6-.72,2.26-.36,2.26-.72S.93,50.2.93,49.84s.74-.36.74-.72.78-.36.78-.72,6.13-.36,6.13-.72S.15,47.33.15,47s9-.36,9-.72-.84-.35-.84-.71S.37,45.18.37,44.82s4.33-.36,4.33-.73S.06,43.73.06,43.37s6.1-.36,6.1-.71,3.07-.36,3.07-.73-7-.36-7-.72,2-.36,2-.72,2.14-.36,2.14-.72-.86-.36-.86-.73-3.4-.36-3.4-.72,3-.36,3-.72.45-.36.45-.72-4.18-.37-4.18-.73.25-.36.25-.73,3.81-.36,3.81-.72,1.37-.37,1.37-.73.25-.44.26-.68.58-.41.59-.65.58-.39.59-.63S.59,31,.61,30.8s7.26.12,7.28-.12-2.81-.74-2.79-1,1.32-.3,1.35-.54-.57-.54-.53-.78-1.4-.71-1.36-.95,2.15-.07,2.2-.3-4.09-1.37-4-1.6,3.66.34,3.72.11,3.85.58,3.91.35S7.93,24.89,8,24.67s.23-.38.3-.61-1.3-.9-1.22-1.13,4,1,4.13.82-.51-.6-.43-.82-5-2.6-4.93-2.81.72-.24.82-.45,4.42,1.63,4.52,1.42S7.86,18.9,8,18.69s4,1.69,4.15,1.49-6.62-4.32-6.5-4.52,1.1,0,1.22-.19,4.16,2.06,4.29,1.86,1.89.76,2,.57-5.41-4.36-5.27-4.55,1.65.55,1.79.36,2.59,1.41,2.73,1.23.94.21,1.09,0-.32-.84-.16-1S9.63,9.9,9.79,9.73s2.72,1.86,2.89,1.69,1.06.4,1.23.23,3.31,2.95,3.49,2.79-5.47-6.87-5.29-7,2.51,2.16,2.69,2-1.54-2.81-1.36-3,4.65,5.4,4.85,5.26-.76-1.78-.56-1.91,2.24,2.65,2.44,2.52S15.6,4.18,15.8,4.06s3.86,5.53,4.07,5.41.84.7,1.05.59.8.75,1,.65-1.89-5-1.67-5.09-.91-3.5-.69-3.59,1.91,3.24,2.13,3.16,2,4.23,2.24,4.15-1.73-6.72-1.5-6.79,2.21,5.78,2.44,5.71-.59-4-.36-4.1S24.79,3,25,2.94s.63.44.87.4.47-.39.71-.43,1.27,6.32,1.51,6.29.3-.53.53-.55.19-3.08.43-3.09.39-2.1.63-2.1.51,1.24.75,1.24.35,2.83.7,2.83.35-.79.7-.79.35.83.7.83.35-5.14.7-5.14.35-.2.7-.2.35,2.16.7,2.16.36,3.06.71,3.06.35-.87.7-.87.35,2.11.7,2.11.35-8.45.71-8.45.35,3.38.7,3.38S38.53,8,38.88,8s.35,0,.71,0S39.94.34,40.3.34s.35,4.2.7,4.2.27,3.49.51,3.51,1.18-6.72,1.42-6.69-1,8-.78,8,.81-2.3,1-2.22-.43,1.59-.2,1.69,3.22-5.41,3.43-5.29,1.52-.78,1.71-.64-.47,1.84-.3,2-3,3.58-2.89,3.77S46.28,8,46.42,8.2s-1,1.1-.86,1.3.52.07.63.28,4.32-1.69,4.42-1.48S46.89,10.46,47,10.67s4.75-1.2,4.82-1-6.94,2.48-6.88,2.7,3.69-.52,3.74-.29-3.19.82-3.16,1.05,4.54-.06,4.56.17.68.5.68.73,1.76.64,1.74.88-5.12.05-5.15.28-1.93,0-2,.22,5.62,1.62,5.56,1.85-6.23-1.39-6.3-1.16,5.91,2.52,5.82,2.73-6-2.2-6.14-2,.2.31.09.51,5.8,3.95,5.68,4.15.79,1.35.65,1.54-6.88-4.92-7-4.74,2.51,2.8,2.33,3,.24,1,0,1.18-.17.77-.38.89,0,1.43-.24,1.53-1.52-2.49-1.75-2.41-.48-.25-.72-.2-.88-3.52-1.13-3.49-.11.39-.36.41-.21,8.65-.46,8.65-.34-2.21-.69-2.21-.35,2.14-.7,2.14-.34.3-.69.3-.35-1.52-.69-1.52-.35-6.73-.7-6.73-.35.21-.69.21-.35,4.54-.7,4.54-.35-.48-.7-.48-.41.72-.65.74S33.9,21,33.66,21s-.1,2.92-.33,3-1.42-3.29-1.65-3.23,1.68,6.6,1.46,6.68-.83-1.3-1-1.2,0,.57-.24.7.21.65,0,.81.38.58.19.77-2.43-1.82-2.59-1.62,3,2.32,2.86,2.55S28.77,27.72,28.67,28s1.24.83,1.16,1.09-2.28-.16-2.33.1-.25.48-.29.75,1.18.59,1.16.86-5.69.45-5.69.72,6.46.35,6.46.71-3.85.35-3.85.71,0,.36,0,.71,6.15.36,6.15.72-.49.36-.49.71-5.83.36-5.83.72,5.14.35,5.14.71.54.36.54.72-5.93.35-5.93.71,1.11.36,1.11.72-1.89.36-1.89.72,6.28.35,6.28.71-1.83.36-1.83.72,2,.36,2,.71-1,.36-1,.72-4.67.36-4.67.72-.87.36-.87.72,5.3-1.7,5.55-1.44-1.82-1.62-1.46-1.62.36,8.1.72,8.1.36-3.33.72-3.33.36-4.73.72-4.73.35,7.61.71,7.61.35-5.7.71-5.7.36,3.85.72,3.85.36-6.07.71-6.07.37,1,.73,1,.35-1,.71-1,.36.87.72.87.36,6.62.72,6.62.36-4.95.72-4.95.36,3.9.72,3.9.36-6.17.72-6.17.36,3.7.72,3.7.36,2,.72,2,.36-3.43.72-3.43.36,4.61.72,4.61.36-1.19.73-1.19.36-.54.72-.54.36-1,.73-1,.36-.79.72-.79,0,3.75.28,3.78,1.84-6.24,2.07-6.17-2.36,6.91-2.15,7,3.63-5.24,3.83-5.09-2.29,3.3-2.11,3.48.11.17.26.38,1.53-.55,1.65-.32,3.71-1.23,3.81-1-3.7,2.2-3.62,2.43,2.25-.28,2.32-.05-4.66,1.76-4.6,2S51,49.72,51.06,50s-.39.64-.36.88-4.35.81-4.33,1,.63.29.63.53,5.15.64,5.13.87-5,.07-5.06.31-1.37.1-1.41.34,6.78,1.91,6.72,2.15-.22.66-.29.89-1,.38-1.05.61-3.33-.86-3.43-.64,4.34,2.91,4.22,3.12-4.89-2.32-5-2.13.42.87.25,1,.3,1.16.1,1.3-2.68-4.08-2.9-4,1.86,5.61,1.62,5.68a7.87,7.87,0,0,1-1,.13c-.23,0-.7,1.66-1,1.66s-.36-4.7-.72-4.7-.36,1.24-.71,1.24-.36-1-.72-1-.36,5.48-.72,5.48-.36-3.27-.71-3.27-.36-3.05-.72-3.05-.35,3.25-.71,3.25-.36-4.47-.72-4.47-.36,3.3-.72,3.3-.36,2.13-.72,2.13-.36-1.8-.72-1.8-.35,3-.71,3S35,59,34.6,59s-.36,4.2-.71,4.2-.36,1.35-.72,1.35-.37-.5-.73-.5-.36-4.47-.72-4.47-.36-.07-.72-.07S30.64,62,30.28,62s-.36-1.87-.72-1.87-.36.6-.73.6-.36-1.66-.72-1.66,1.77,3.4,1.51,3.66,1.06-1.93,1.06-1.57,0,.36,0,.71-.8.36-.8.72-1.83.35-1.83.71,3.39.36,3.39.72-6.87.35-6.87.71-1.33.36-1.33.72,6.27.36,6.27.72-.64.36-.64.72-2.16.36-2.16.72S24,68,24,68.35s2.25.36,2.25.72-.15.36-.15.71,3.71.36,3.71.72-6.1.36-6.1.71.81.36.81.72,1.81.36,1.81.71,2.45.36,2.45.72-.89.36-.89.71,1.58.36,1.58.72-.9.36-.9.71-1.32.36-1.32.72,3,.36,3,.72-3.4.36-3.4.72-3,.36-3,.72-.67.36-.67.72,8.2.36,8.2.72-7.86.35-7.86.71,4,.36,4,.72.1.36.1.72-4.05.36-4.05.72,5.16.35,5.16.71-5.22.36-5.22.72,6.1.36,6.1.72-6.85.36-6.85.72,4.26.36,4.26.72,2.85.36,2.85.72-1.21.36-1.21.72,2.8.36,2.8.72-3.66.36-3.66.72-1.87.36-1.87.72,2.41.36,2.41.72-5.71.36-5.71.72,7.24.36,7.24.72-2,.36-2,.72-2.4.36-2.4.72,5.56.36,5.56.71-6.6.36-6.6.72-.1.36-.1.72-.21.36-.21.72,3.55.36,3.55.72,2,.36,2,.72-.14.36-.14.72,1.59.36,1.59.72S30,99.59,30,100s-.67.36-.67.73-5.8.36-5.8.72.4.36.4.72,3.5.36,3.5.72,2.92.37,2.92.73-2.58.36-2.58.72,3.4.36,3.4.72-1.91.37-1.91.73-4.53.36-4.53.73,2.13.36,2.13.73-.61.32-.64.55,1.42.74,1.35,1-4.37-1.46-4.47-1.24.83.37.69.57,1.83,1.62,1.67,1.8,1.66,2.32,1.48,2.49,1.28,2.73,1.09,2.88-2.74-2.68-2.95-2.55.32,1.68.11,1.8.09,1.56-.12,1.66-2.67-4.55-2.89-4.45.42,2.29.2,2.38-.54,0-.77.07-1.63-4.11-1.86-4,.54,3.85.31,3.91.14,3.53-.09,3.57-1.32-5-1.55-5-.52-1-.76-1-.11,4.12-.35,4.13-.56-1.11-.8-1.1S16.05,114.42,15.81,114.42Z"/><path class="cls-1" d="M89,112c-.24,0-.4-.8-.65-.81s-.66,6.64-.9,6.63-.62,1.59-.87,1.58.08-8.17-.16-8.19-.51,1.16-.75,1.14-.95,4.31-1.19,4.28-.68,1.09-.92,1-.34-1.26-.57-1.3-.28-1.31-.52-1.36,0-2.26-.26-2.31-1.14,3-1.38,2.91.09-2.39-.14-2.45-1.28,2.86-1.51,2.8.47-3.33.23-3.4-1.76,3.92-2,3.84.09-1.9-.13-2-.6.16-.83.07-.92.92-1.15.83-.34-.57-.56-.66-1.12,1.18-1.34,1.07-.76.29-1,.18.56-2.36.35-2.47,0-1.08-.23-1.2-.47-.19-.68-.31,2.06-4.46,1.85-4.58-4.91,7.16-5.12,7,3.47-6.44,3.26-6.57-4.07,5.26-4.27,5.12,2.65-4.75,2.45-4.89.09-.9-.11-1,.45-1.31.26-1.46-1.42,1.11-1.61,1-1.54,1.13-1.72,1,.76-1.62.58-1.78.15-.84,0-1-3.38,2.92-3.55,2.76,2.73-3.52,2.56-3.69-4.9,4.13-5.07,4,2.63-3.21,2.46-3.39-.68,0-.84-.22-.82,0-1-.14-1.13.26-1.28.07,1.15-1.56,1-1.75-1.66.62-1.81.43-2.71,1.27-2.85,1.07,3.58-3.13,3.45-3.33S57.1,102.16,57,102s.75-1.14.63-1.34,2.64-2.17,2.52-2.38.7-.92.58-1.13,2.08-1.58,2-1.79-3.78,1.43-3.89,1.21.87-.92.77-1.14-1.8.29-1.89.06,4.1-2.14,4-2.36S57,94.38,57,94.15s-1.7,0-1.78-.18-1.46-.12-1.53-.35-.91-.34-1-.58,5.11-1.87,5.06-2.1-4.61.54-4.66.3S60,89.36,60,89.12s-2.47,0-2.51-.23.77-.55.74-.79-1.67-.24-1.69-.48-.89-.4-.91-.64,2.56-.62,2.55-.86-4.57-.31-4.58-.55S56,85,56,84.79s-3.33-.36-3.33-.72,3-.36,3-.72-2.83-.36-2.83-.73,3.73-.36,3.73-.72-1.38-.36-1.38-.72,4.18-.37,4.18-.73-5-.36-5-.72,3.56-.37,3.56-.73,2.29-.36,2.29-.72.24-.36.24-.73-5.27-.36-5.27-.72S60,76.47,60,76.11s-3.09-.36-3.09-.73S52.6,75,52.6,74.66s3.33-.36,3.33-.72,2.87-.37,2.87-.73S52,72.85,52,72.48s-.56-.36-.56-.72,6.22-.37,6.22-.73.37-.36.37-.72-1.52-.36-1.52-.73,2.93-.36,2.93-.72-7.81-.37-7.81-.73-.54-.36-.54-.73S52,67,52,66.68s1-.36,1-.73,2.62-.36,2.62-.72,1.1-.36,1.1-.72-1.36-.36-1.36-.73-.84-.36-.84-.72-.79-.36-.79-.73,3.38-.36,3.38-.72,1.65-.37,1.65-.73S57,60.52,57,60.16s-.48-.37-.48-.73-.14-.37-.14-.73S60,58.34,60,58s-3.15-.36-3.15-.73-5.09-.36-5.09-.73,8.07-.36,8.07-.73-3.19-.36-3.19-.72,3.42-.37,3.42-.73-6-.37-6-.73,4.23-.37,4.23-.73-2.44-.37-2.44-.74-.37-.37-.37-.73S51.2,50.18,51.23,50s6,.82,6.11.61,1.57.58,1.68.37-5.38-3.81-5.25-4,2.59,1.2,2.75,1-1.78-2.58-1.61-2.74,1.24.39,1.42.24,4.74,5.5,4.93,5.36-1-2-.84-2.11.38,0,.58-.11.43.14.64,0-2.34-6.1-2.12-6.2.26-1.15.48-1.23,2.81,6.6,3,6.53.3-.16.52-.22-.39-3.55-.16-3.6,1.17,4.08,1.4,4,.31-.15.54-.18-.26-7.84,0-7.86.75,2.91,1,2.9.52-1.28.76-1.28.45,3.34.68,3.35.19,3.18.42,3.2,1.1-6.47,1.33-6.44-.52,6.65-.29,6.69,1.6-6,1.82-6-.67,4.74-.45,4.8,2.5-6.62,2.72-6.55-1.9,7-1.69,7.06,3-6,3.21-5.87.19,1.13.4,1.23-2.73,6-2.53,6.11S77,43,77.2,43.16s-1.79,3.6-1.61,3.73,3-3,3.22-2.82-3.16,4.42-3,4.57.74-.16.88,0-3.25,2.78-3.12,3,5.27-2.94,5.37-2.75-1.86,1.33-1.79,1.54,4.8-.53,4.84-.31-.63,1.08-.63,1.31-.78.36-.78.72-6.13.36-6.13.72,8.43.36,8.43.72-9,.36-9,.73.84.36.84.72,7.91.36,7.91.72-4.33.37-4.33.73,4.64.36,4.64.73-6.1.36-6.1.72-3.07.36-3.07.72,7,.36,7,.73-2,.36-2,.72-2.14.36-2.14.72.86.36.86.73,3.4.36,3.4.72-3,.36-3,.73-.45.36-.45.72,4.18.37,4.18.73-.25.36-.25.72-3.81.37-3.81.73-1.37.36-1.37.72S76,67,76,67.33s-.57.36-.57.73-.57.36-.57.72,7.69.37,7.69.73-7.25.36-7.25.72,2.87.37,2.87.73-1.27.36-1.27.72.64.36.64.72,1.49.36,1.49.73-2.09.36-2.09.72,4.27.37,4.27.73-3.64.36-3.64.73-3.87.36-3.87.72,2.63.36,2.63.73-.11.36-.11.73,1.53.36,1.53.72-4.17.37-4.17.73.7.37.7.73,5.64.37,5.64.73-.57.37-.57.73-4.69.36-4.69.73,3.95.36,3.95.73-4.35.36-4.35.73,7.88.37,7.88.74-.95.36-.95.73-4.61.58-4.59.81-1.93.85-1.9,1.08,6.89-.69,6.94-.46-1.55.68-1.48.91-2.65,1.32-2.57,1.53-.59.86-.5,1.08,1,.19,1.06.4,5-2.29,5.09-2.09-2.58,2-2.45,2.22-.58,1-.44,1.17-3.08,3.24-2.92,3.42,6.86-5.47,7-5.29-2.08,2.56-1.9,2.72,2.34-2.13,2.53-2-4.06,5.86-3.87,6,1.56-1.18,1.76-1-1.23,3.31-1,3.42,4.75-8,5-7.94-2.31,6.33-2.09,6.42.3,1.2.53,1.27.47,1.2.7,1.25,1.51-5.11,1.75-5.08.63-3.51.87-3.5.15,3.74.39,3.74.73,4.66,1,4.64-.23-6.92,0-7,1.55,6,1.78,5.94-.49-4-.26-4.12,0-1.12.2-1.21.53.39.74.29.17-.42.37-.54,3.87,5.18,4.06,5,.3-.81.49-1S96,94.22,96.15,94.07s-1-1.85-.86-2,1.21.57,1.37.4,2.51,1.44,2.66,1.25-.24-1-.1-1.16,1,0,1.17-.25-4.15-3.06-4-3.26,0-.38.08-.59,2.14.53,2.22.32,3.07.56,3.14.34-.64-.85-.58-1.07,2.2-.17,2.24-.4-8.25-1.8-8.22-2,3.4,0,3.42-.2,4.43-.4,4.43-.63,0-.35,0-.71-7.73-.35-7.73-.71,4.2-.35,4.2-.71,3.48-.35,3.48-.71-6.79-.35-6.79-.71,8-.35,8-.71-2.42-.36-2.42-.71,1.66-.36,1.66-.72-6.29-.35-6.29-.71-1.48-.36-1.48-.71,1.74-.36,1.74-.71,4.71-.36,4.71-.71-1.47-.36-1.47-.71,1.43-.36,1.43-.72-.4-.35-.4-.71-4.6-.35-4.6-.71,4.28-.36,4.28-.71S96.6,72.34,96.6,72s7.36-.35,7.36-.71-3.71-.36-3.71-.71,3.29-.36,3.29-.72S99,69.49,99,69.13s-.66-.36-.66-.71-1.77-.36-1.77-.72,5.12-.35,5.12-.71,1.91-.36,1.91-.72-5.83-.35-5.83-.71,6.39-.36,6.39-.71-6.41-.36-6.41-.71,6.42-.36,6.42-.71-.3-.36-.3-.71-7-.36-7-.72-1.41-.35-1.41-.71,8.47-.36,8.47-.72-3.75-.35-3.75-.71-.94-.36-.94-.71-.55-.36-.55-.72-1.27-.36-1.27-.72,2.88-.35,2.88-.71.37-.36.37-.72,3.64-.36,3.64-.72-.37-.35-.37-.71-8.63-.36-8.63-.72,2.21-.36,2.21-.72-2.14-.36-2.14-.72-.31-.36-.31-.72,1.53-.36,1.53-.72,6.69.13,6.73-.09-.25.07-.17-.15-4.09-2-4-2.22.68-.24.82-.43-.22-.89-.06-1.06,3.06,2.49,3.23,2.33-1.58-2.42-1.4-2.57,2.35,2.65,2.55,2.51-3.26-6-3.06-6.11,1.26,1,1.47.91.29-.71.5-.81.28-.86.49-.94.34-.89.56-1,1.48,2.7,1.7,2.63-.43-3.83-.21-3.89,1.42,3.7,1.65,3.65.25-1.54.49-1.58.79,2.15,1,2.12.46.11.69.1.41-1.26.65-1.27.49,5.66.73,5.66.53-6.46.76-6.45.29,3.86.53,3.88.4,0,.63.07,1.24-6,1.47-6,.55.59.78.63-.68,5.8-.46,5.85,1.76-4.86,2-4.79.78-.34,1-.26-1.61,5.73-1.4,5.81.78-.88,1-.78-.58,1.82-.37,1.93,3.64-5.13,3.83-5-.51,1.87-.31,2,1.81-1.13,2-1-.13,1.23,0,1.41-3.29,3.31-3.15,3.51-.67.53-.56.74,6.12-2.08,6.2-1.85,1,.86,1,1.11-8,1.1-8,1.35,3.33.35,3.33.71,4.73.35,4.73.71-7.6.35-7.6.71,5.7.35,5.7.71-3.85.35-3.85.71,6.06.35,6.06.71-1,.36-1,.71,1,.36,1,.72-.88.35-.88.71-6.61.36-6.61.71,4.94.36,4.94.71-3.9.36-3.9.71,6.17.36,6.17.71-3.7.36-3.7.72-2,.35-2,.71,3.43.35,3.43.71-4.61.36-4.61.71,1.19.36,1.19.72.55.35.55.71,1,.36,1,.71.79.36.79.72-3.76.35-3.76.71,6.49.36,6.49.71S118,68,118,68.34s6.37.35,6.37.71-4,.36-4,.72,0,.35,0,.71,1.58.36,1.58.71,3.86.36,3.86.71-4.28.36-4.28.71,2.2.36,2.2.71-5,.36-5,.72,5.37.35,5.37.71-.49.36-.49.72-4.41.35-4.41.71.62.36.62.71,5.16.36,5.16.72-5,.36-5,.72-1.34.35-1.34.71,7,.36,7,.72,0,.36,0,.72-.79.35-.79.71-3.4.36-3.4.72,5.19.36,5.19.72-5.41.36-5.41.72.88.36.88.72,1,.36,1,.72-4.93.39-4.94.63,5.89.68,5.88.93-.11.52-.13.77,1.55.69,1.52.93-4.72,0-4.75.21,1.16.64,1.13.89-1.06.29-1.1.53,5.27,1.59,5.22,1.83-3.31-.17-3.37.06-3.06-.29-3.13-.06,3,1.36,2.92,1.59-4.39-.9-4.47-.67,3,1.5,2.9,1.73,1.81,1.23,1.73,1.46-1.87-.19-2,0,2.52,1.68,2.42,1.91-4.67-1.62-4.78-1.4,3.54,2.32,3.42,2.54.93,1.14.81,1.36-.72.26-.84.47-4.1-1.84-4.23-1.63-.31.35-.44.56,1.88,1.83,1.74,2-1.82-.66-2-.46.2.74.06.94-1.6-.62-1.75-.43,3.27,3.23,3.12,3.42-.27.5-.43.68-.33.44-.49.63-1-.14-1.13,0-1.68-.87-1.85-.7,2,2.77,1.87,2.94-5.14-4.58-5.32-4.42-1.2-.69-1.38-.53,3.82,5,3.64,5.15-.81-.15-1,0-1.74-1.36-1.93-1.21-2-1.89-2.23-1.74,1,2.07.81,2.21-.46.14-.66.28,1.69,3.34,1.49,3.48-3.74-4.83-3.94-4.7.07.9-.13,1,.55,1.78.34,1.91.8,2.37.59,2.49-.87-.54-1.08-.43.27,1.64.06,1.75-.86-.57-1.08-.47-1-1-1.22-.89.74,3,.52,3-1.77-2.94-2-2.86-1.49-2.64-1.71-2.55-.6-.5-.83-.42,2.16,7.93,1.93,8-2.8-7.37-3-7.3.68,3.93.44,4-.44.22-.67.28-1.38-3.83-1.61-3.78.65,5.15.41,5.2-1.44-5-1.67-5,.58,6.09.34,6.13-1.47-6.7-1.71-6.67.12,4.28-.12,4.31-.19,2.89-.43,2.91-.62-1.15-.86-1.13-.34,2.83-.59,2.84-.69-3.62-.94-3.61S90,114,89.74,114,89.28,112,89,112Z"/><path class="cls-1" d="M145.86,118.83c-.23,0-.37-7.44-.61-7.45s-.46,1.33-.7,1.31-1.09,6-1.32,6-.16-3.35-.39-3.39-.45-.47-.67-.51-.95,1.6-1.17,1.54,1.09-5.54.87-5.61.25-1.55,0-1.63-.34.24-.55.15-2.33,4-2.53,3.89.67-2.08.47-2.2-2.89,3.52-3.08,3.38,1.2-2.62,1-2.77-2.95,2.45-3.13,2.28,1.07-2.12.91-2.3-2.65,1.08-2.79.89.25-1.36.13-1.57,2.42-2,2.34-2.18,3.11-1.11,3.07-1.35-5.35,0-5.35-.23.44-.36.44-.71,4.24-.36,4.24-.72-5.37-.35-5.37-.71-.62-.36-.62-.71,3.13-.36,3.13-.72-2.79-.35-2.79-.71,6.93-.36,6.93-.72.95-.35.95-.71S138,101,138,100.62s-3.54-.35-3.54-.71,1.2-.36,1.2-.72.89-.35.89-.71-4.91-.35-4.91-.71-.1-.35-.1-.71-1.55-.35-1.55-.71,2.78-.35,2.78-.71,5.43-.36,5.43-.71.8-.36.8-.71-6.65-.36-6.65-.72-1.62-.35-1.62-.71,8.16-.36,8.16-.72-1.2-.35-1.2-.71-4.39-.36-4.39-.72-1.16-.35-1.16-.71,1.19-.36,1.19-.71,1.26-.36,1.26-.72,2.21-.35,2.21-.71-3.13-.35-3.13-.71,2.34-.36,2.34-.71S133,86,133,85.66s3.33-.36,3.33-.72-4.27-.35-4.27-.71,1.83-.35,1.83-.71-.35-.36-.35-.71-1.19-.36-1.19-.72.39-.35.39-.71-1.53-.36-1.53-.72-.58-.35-.58-.71,2.38-.36,2.38-.72.95-.36.95-.71-.06-.36-.06-.72,4.89-.36,4.89-.71-8.67-.36-8.67-.72,7.3-.36,7.3-.71-6.63-.36-6.63-.72,5.42-.35,5.42-.71.78-.36.78-.72,1.32-.36,1.32-.71-1.75-.36-1.75-.72-1.84-.36-1.84-.72,1.73-.36,1.73-.72.73-.35.73-.71-4.44-.36-4.44-.72,4.43-.35,4.43-.71-6.38-.36-6.38-.72,4.11-.36,4.11-.72-.48-.36-.48-.72-.65-.35-.65-.71-1-.36-1-.72,1.88-.36,1.88-.71-1.7-.36-1.7-.71-2.94-.36-2.94-.72,4.73-.36,4.73-.72-3.77-.36-3.77-.72,1.24-.35,1.24-.71,3.38-.36,3.38-.72,1.07-.36,1.07-.72,2.58-.36,2.58-.72-4-.36-4-.72,1.18-.35,1.18-.71-1.76-.36-1.76-.73,4.61-.36,4.61-.72-4.78-.36-4.78-.72-1.62-.35-1.62-.71-1.36-.36-1.36-.73-.76-.36-.76-.72,5.42-.36,5.42-.72-4.61-.37-4.61-.73,7.16,0,7.19-.21-2.38-.56-2.32-.78.84.08.93-.13-1.35-1-1.24-1.15-.48-.83-.33-1,2.16,1.44,2.32,1.28-2.79-3.63-2.61-3.78,1.89,1.57,2.08,1.44-1.37-3.09-1.17-3.22,2,2.37,2.18,2.27-.76-2.8-.54-2.89,1.9,3.24,2.11,3.16,0-1.46.19-1.53,1.54,3.9,1.76,3.84-.79-5-.56-5,1.11,3.41,1.34,3.37.66,2.2.9,2.17.31.21.54.19,0-5.3.2-5.31.62,4.8.86,4.8.33-3.1.56-3.1.64-4.3.89-4.29.35,3.35.6,3.37.1,2.89.35,2.93,1.6-6.61,1.84-6.56.83-.4,1.07-.34-1.14,6.13-.9,6.21.22.46.45.55,1-1.25,1.19-1.15-1,2.76-.81,2.88,4.46-6.44,4.67-6.3,1,.06,1.24.21.1,1.3.28,1.47-.15,1.33,0,1.52-1.72,2.06-1.59,2.27-.77.87-.67,1.1,1.44,0,1.51.2,1,.41,1,.67.85.62.85.88-3.39.34-3.39.68-1.65.34-1.65.67,1.83.34,1.83.68.48.34.48.67.14.34.14.68-3.62.34-3.62.68,3.15.34,3.15.68,4.92-.51,5-.18c.11-.23.2,2.28.31,2.06s-2.64-1.84-2.52-2.06,3.18,1.33,3.3,1.11-4.87-3.51-4.74-3.72,3.79,1.91,3.93,1.7-1.74-1.78-1.59-2,0-.63.15-.83-3.1-3.16-2.94-3.36,5,3.49,5.18,3.29,1.56.79,1.73.6-4.49-4.83-4.33-5,2.37,1.58,2.54,1.41-1.74-2.58-1.56-2.75,1.18.45,1.36.29,5.06,5.2,5.25,5-1.11-2-.92-2.11.45-.08.64-.22.52,0,.71-.1-3.24-5.68-3-5.81,0-1.13.19-1.26,4.09,5.9,4.3,5.78.3-.24.52-.35-1.15-3.39-.92-3.49,2.06,3.71,2.29,3.62.27-.21.5-.29-1.83-7.64-1.59-7.71,1.37,2.69,1.61,2.64.36-1.37.6-1.41,1,3.21,1.27,3.19.64,3.12.89,3.1.29-6.55.54-6.55.35,6.66.7,6.66.36-6.22.71-6.22.35,4.77.7,4.77.36-7,.71-7,.36,7.21.71,7.21.36-6.64.72-6.64.83,1,1.06,1-.59,6.54-.36,6.59,2.55-7,2.78-7-.85,3.94-.62,4.05,2.64-3.36,2.85-3.23-2.53,4.81-2.33,5,.72-.23.91-.06-2.8,3.25-2.63,3.44,4.77-3.73,4.92-3.54-1.47,1.78-1.33,2,4.31-2.16,4.44-2-.27,1-.15,1.22-.4.95-.3,1.18-5.55,2.62-5.47,2.86,8.22-2,8.29-1.74-8.62,2.49-8.57,2.74.87.09.9.34,7.93-.21,7.94,0-4.29.75-4.29,1,4.62.7,4.61.93-6.12.07-6.15.29-3.06-.13-3.1.1,6.83,1.76,6.77,2-2.1,0-2.17.24-2.14-.28-2.22-.07.65.68.56.89,2.83,2,2.72,2.18-2.84-1-3-.84-.6.1-.74.28,3,3,2.83,3.16-.64.38-.81.55-3.07-2.3-3.25-2.14-1.15-.82-1.34-.67-.36,0-.57.09-.45-.39-.67-.29-.32-.46-.55-.38,1.6,7.54,1.36,7.59-1.72-7-2-7-.16,2.89-.4,2.89-.36-1.26-.71-1.26-.35.63-.7.63-.36,1.49-.71,1.49-.36-2.09-.71-2.09-.36,4.27-.71,4.27-.36-3.64-.71-3.64-.81-3.85-1.05-3.84-.46,2.68-.71,2.72-.64,0-.89,0-.23,1.6-.47,1.67-1.84-3.8-2.07-3.72-.48.91-.71,1,1.73,5.39,1.5,5.49-.63-.31-.85-.19-2.83-3.8-3-3.66,1.63,3.62,1.42,3.77-3-3.23-3.19-3.08,4.45,6.53,4.27,6.67-.87-.52-1.05-.37-3.43-3.12-3.6-3-1.82-1-2-.86,4.72,5.08,4.57,5.26-1.51-.81-1.66-.63-2.55-1.47-2.69-1.29-1-.1-1.15.09.34.88.21,1.07,4.34,3.35,4.22,3.54-3-1.36-3.11-1.16-1.12-.12-1.23.09-4.16-1.62-4.26-1.41,7.62,4.35,7.52,4.56-3.13-1-3.23-.82,2.76,1.58,2.67,1.8-6.8-2.12-6.88-1.9,1.59,1.12,1.52,1.34-3.47-.49-3.54-.27,8.87,3,8.81,3.18-6.63-1.19-6.68-1-1.13.3-1.17.53-1.13.36-1.17.6,5.16,1.34,5.12,1.58,3.49.87,3.46,1.11-3.76,0-3.78.21-4.7.07-4.72.3,6.87,1,6.86,1.18-6.19.17-6.2.41,4,.6,4,.83,1.07.45,1.07.69-.55.36-.55.71.3.35.3.71-6.44.35-6.44.71.5.35.5.7,3.06.36,3.06.71,2.07.35,2.07.71-1.26.35-1.26.7-2.82.36-2.82.71.79.35.79.71-.83.35-.83.71,5.13.35,5.13.7.2.36.2.71-2.16.35-2.16.7-3.06.36-3.06.71.87.35.87.7-2.1.36-2.1.71,8.45.35,8.45.71-3.39.35-3.39.71-4.41.35-4.41.7,0,.36,0,.71,7.73.36,7.73.71-4.2.36-4.2.71-3.49.36-3.49.71,6.8.36,6.8.71-8,.36-8,.71,2.42.36,2.42.71-1.66.36-1.66.71,6.28.36,6.28.72,1.48.35,1.48.71-1.73.36-1.73.71-4.71.36-4.71.72,1.47.26,1.43.49-1.4-.22-1.48,0,.35.25.24.45,3.69,2.8,3.56,3-3.65-2.26-3.81-2.09,3.18,3.73,3,3.89-5.18-5.23-5.36-5.08,2,3.12,1.85,3.25-2.14-2.5-2.33-2.38,2,4.07,1.83,4.19-.16.83-.37.94.2,1.86,0,2-2.35-4.56-2.57-4.48-.91-1.71-1.14-1.64,1.17,5.73.93,5.79-1.81-6.13-2-6.08.73,6.39.49,6.43-1.27-6.31-1.51-6.29-.27.34-.51.36-.07,7-.31,7S146.11,118.83,145.86,118.83Z"/><path class="cls-1" d="M203.71,115c-.25,0-.56.87-.81.87s-.24-4.78-.48-4.8-.39-.06-.63-.08-1,4-1.25,4-.81,1.22-1,1.17.53-4.67.29-4.73-1.24,2.7-1.47,2.63-.1-1.29-.34-1.38-.18-.77-.4-.87-.45-.07-.67-.18-.85.57-1.07.45-.35-.31-.53-.44-.64.06-.81-.09-.67,0-.83-.19-1,.1-1.14-.08,4.38-3.4,4.27-3.59-4.76,2.13-4.85,1.92.22-.69.16-.92-1-.42-1-.65,1.33-.66,1.33-.89-1.24-.36-1.24-.72.1-.36.1-.71,4.38-.36,4.38-.72-6.25-.36-6.25-.71,6.34-.36,6.34-.72-4.2-.36-4.2-.71,5.78-.36,5.78-.72-6.76-.36-6.76-.72-1-.35-1-.71-1.81-.36-1.81-.72.38-.36.38-.72,5.27-.35,5.27-.71-.54-.36-.54-.72,3.55-.36,3.55-.72-8.23-.36-8.23-.72,1.25-.35,1.25-.71-.91-.36-.91-.72,2.8-.36,2.8-.72,3.66-.36,3.66-.71-2.74-.36-2.74-.72-3.33-.36-3.33-.72-.18-.35-.18-.71,7.06-.36,7.06-.72,0-.36,0-.71-1-.36-1-.72,1.33-.36,1.33-.72-1.31-.36-1.31-.71-4.63-.36-4.63-.72-.06-.36-.06-.72-1-.36-1-.72,4.87-.35,4.87-.71-.91-.36-.91-.72,1.08-.36,1.08-.72-6.43-.36-6.43-.72,7.44-.36,7.44-.72-1.34-.35-1.34-.71-6.07-.36-6.07-.72,3.31-.36,3.31-.71.39-.36.39-.71-1.77-.36-1.77-.72,5.64-.36,5.64-.71,1.55-.36,1.55-.72-.34-.36-.34-.71S192,76,192,75.68s2.14-.36,2.14-.72-4.51-.36-4.51-.72,2.83-.36,2.83-.72-3.77-.36-3.77-.71,2.27-.36,2.27-.72-2.72-.36-2.72-.72.95-.35.95-.71,3-.36,3-.71,3.33-.36,3.33-.72-5.33-.36-5.33-.71.44-.36.44-.72,4.25-.36,4.25-.71-5.38-.36-5.38-.72-.62-.36-.62-.71,3.13-.36,3.13-.72-2.79-.36-2.79-.72,6.93-.36,6.93-.72.95-.36.95-.72-1.27-.36-1.27-.72-3.53-.35-3.53-.71,1.19-.36,1.19-.72.9-.36.9-.72-4.92-.36-4.92-.72-.1-.36-.1-.71-1.55-.36-1.55-.72,2.79-.36,2.79-.72,5.42-.36,5.42-.72.8-.36.8-.72-6.65-.36-6.65-.72-1.62-.36-1.62-.72,8.16-.36,8.16-.72-1.2-.36-1.2-.72-4.39-.36-4.39-.71-1.16-.36-1.16-.72,1.19-.36,1.19-.72,1.26-.37,1.26-.73,2.21-.36,2.21-.72-3.13-.36-3.13-.72,2.34-.36,2.34-.72-3.09-.35-3.09-.71,3.33-.36,3.33-.72-4.27-.35-4.27-.71,1.83-.36,1.83-.72-.35-.36-.35-.73-1.19-.36-1.19-.72.39-.36.39-.71S189,42.3,189,41.93s-.57-.36-.57-.72,2.37-.36,2.37-.72,1-.36,1-.72-.06-.36-.06-.73,4.89-.36,4.89-.72-8.67-.36-8.67-.72,7.3-.36,7.3-.72-6.63-.37-6.63-.73,5.42-.36,5.42-.73.78-.36.78-.72,1.32-.37,1.32-.73-1.74-.45-1.74-.69-1.83-.51-1.83-.74,1.75-.39,1.76-.63.76-.39.77-.62-4.38-.85-4.36-1.08,4.45,0,4.48-.25-6.27-1.28-6.24-1.51,4.14.07,4.18-.16-.4-.56-.36-.79-.54-.6-.5-.84-.9-.71-.85-.94,1.94-.06,2-.29-1.52-.91-1.46-1.14-2.68-1.34-2.61-1.57,4.67.89,4.74.67-3.41-1.71-3.33-1.93,1.35-.1,1.44-.32,3.33.77,3.42.55,1.15,0,1.24-.21,2.51.69,2.61.48-3.44-2.12-3.33-2.33,1.25.13,1.36-.08-1.33-1.24-1.22-1.45,4.22,1.92,4.34,1.71-3.88-2.83-3.76-3-1.11-1.29-1-1.49-.83-1.2-.69-1.39-.31-.91-.17-1.1,4.66,2.81,4.8,2.62S196.5,12.2,196.65,12s5.84,4.18,6,4-1.58-1.89-1.42-2.07.91.25,1.07.08-.87-1.44-.71-1.6-.26-.94-.09-1.1,2.09,1.59,2.27,1.43S201.09,9,201.27,8.88s1.93,1.53,2.11,1.38-1.67-2.93-1.48-3.07,2.23,2.11,2.42,2-1.23-2.62-1-2.75,2.48,2.82,2.68,2.69-.33-1.42-.13-1.55,2.5,3.38,2.7,3.26-2-4.61-1.83-4.73,2,3,2.26,2.86,1.31,1.9,1.53,1.8.4.09.62,0-1.58-5-1.35-5.13,2,4.39,2.27,4.31-.6-3.06-.37-3.13-.74-4.28-.5-4.34,1.34,3.08,1.57,3,1,2.7,1.28,2.66-.82-6.75-.58-6.79.5-.65.74-.69,1.31,6.1,1.55,6.07.45.33.69.31.32-1.55.56-1.57.53,2.91.77,2.91.37-7.83.61-7.83.35-.54.7-.54.35.92.7.92.35,1,.7,1,.35,2.62.7,2.62.35,1.11.7,1.11.36-1.36.71-1.36.35-.84.7-.84.35-.8.7-.8.35,3.39.71,3.39.35,1.64.7,1.64.35-1.82.7-1.82.35-.48.7-.48.36-.14.71-.14.35,3.62.71,3.62.35-3.15.71-3.15.74-5.07,1-5.06-.34,8.07-.1,8.1.85-3.09,1.08-3-.68,3.35-.45,3.42,2.48-5.47,2.7-5.37-1.53,3.94-1.32,4.06,1.62-1.86,1.82-1.72.61,0,.79.18S238.09,3.8,238.25,4,233.86,8.23,234,8.43s-1.21,1.21-1.09,1.41,5.9-2.94,6-2.74-2.22,1.79-2.12,2,3.05-.69,3.14-.47-.83,1-.75,1.22-6.84,2.42-6.79,2.65,2.22-.27,2.26-.05-.15.32-.12.55-.3.31-.29.54,6.53.28,6.53.51.95.72.94,1-7.18-.11-7.2.12a4.7,4.7,0,0,1,0,.53c0,.23,3.38,1.15,3.33,1.38s-4.17-.79-4.24-.57,0,.27-.07.49,7,3.58,6.89,3.79-2.93-.75-3-.55.78,1.17.65,1.37-3-1.43-3.18-1.23-2.64-1.76-2.8-1.58,4.34,4.92,4.16,5.08S231.7,19,231.51,19.1s3,5.46,2.8,5.58-2.55-4-2.78-3.95,1.91,6.82,1.67,6.89-2.42-6.8-2.66-6.75.63,6.65.38,6.68-.83-.85-1.08-.84-.69-6.54-.93-6.54-.35,7.46-.7,7.46-.35-4-.69-4-.35,4.2-.7,4.2-.34-5.41-.69-5.41-.35.63-.7.63-.34-4.3-.69-4.3-.35,6-.7,6-.35-2.26-.7-2.26-.26,4.78-.49,4.8-.33-.73-.56-.7-.42-.72-.65-.67-2-5.84-2.21-5.78,2.22,8.13,2,8.22-4-8.06-4.17-8-.44,1.18-.66,1.32,4.13,6.72,3.93,6.88-3.08-3.06-3.27-2.87,3.31,3.23,3.15,3.43-5.22-3.19-5.36-3-3.14-.61-3.25-.37,6.35,3,6.28,3.28-2.08-.15-2.13.11-2.2.2-2.24.46.79.67.78.94,3.38.55,3.38.82-3,.35-3,.71-.45.35-.45.71,4.17.36,4.17.71-.24.36-.24.72-3.81.36-3.81.71-1.38.36-1.38.72-.25.35-.25.71-.57.36-.57.72-.56.35-.56.71,7.68.36,7.68.72-7.24.36-7.24.72,2.87.35,2.87.71-1.27.36-1.27.72.64.36.64.71,1.49.36,1.49.72-2.1.36-2.1.72,4.28.36,4.28.72-3.67,1-3.41,1.28S215.64,49,216,49s.36-2.63.72-2.63.36.1.72.1.36-1.52.72-1.52.35,4.16.71,4.16.36-.69.71-.69.36-5.64.72-5.64.36.56.72.56.36,4.69.72,4.69.36-3.94.72-3.94.35,4.35.71,4.35.36-7.89.72-7.89.36,1,.72,1,.36,4.61.72,4.61.36,2,.72,2,.36-6.92.72-6.92.36,1.66.73,1.66.36,2.91.72,2.91.36.86.71.86.37-.79.73-.79.36-5.47.72-5.47.37,3.26.73,3.26.36,1,.72,1-.13,4.39.1,4.42,2.3-8.46,2.53-8.39-.36,3.34-.14,3.45,2.45-2.2,2.65-2.05-4.31,5.63-4.14,5.81,1.57-1.07,1.71-.87-2.85,1.93-2.73,2.15,8.56-3.79,8.66-3.57S234.52,48.8,234.6,49s-.85.63-.78.86-.93.51-.87.75,5.28-.78,5.32-.54,3.64.1,3.67.34-3.65,1-3.63,1.22-4.65.53-4.65.77,6.91.66,6.9.9-6.19,0-6.21.21,4,1,3.92,1.24.94.8.88,1-.69.44-.76.67.09.67,0,.89-6-2.19-6.15-2,.36.4.24.62,2.48,1.81,2.34,2,1.26,1.74,1.1,1.91-1.24-.57-1.43-.42-1.62-2.29-1.84-2.18.25.76,0,.83-.25-.77-.5-.74-.08,5.16-.34,5.16-.36.19-.71.19-.36-2.15-.72-2.15-.36-3.06-.72-3.06-.36.86-.72.86-.35-2.1-.71-2.1-.36,8.45-.71,8.45-.36-3.38-.72-3.38S226.46,57,226.1,57s-.36,0-.72,0-.36,7.74-.72,7.74-.35-4.2-.71-4.2-.36-3.49-.72-3.49-.36,6.8-.72,6.8-.36-8-.72-8-.36,2.42-.72,2.42-.36-1.66-.72-1.66-.37,6.29-.73,6.29-.36,1.48-.72,1.48-.36-1.74-.72-1.74-.36-4.71-.72-4.71-.36,1.48-.72,1.48-.37-1.44-.73-1.44a7.5,7.5,0,0,0-2.27,1c-.25.25,3.95,1.92,3.95,2.28s-4.28.36-4.28.71,4.86.36,4.86.72-7.36.35-7.36.71,3.71.36,3.71.72-3.29.35-3.29.71,4.53.36,4.53.72.66.36.66.72,1.77.36,1.77.72-5.12.36-5.12.72-1.92.35-1.92.71,5.84.36,5.84.72-6.39.36-6.39.71,6.41.36,6.41.72-6.42.36-6.42.71.3.36.3.72,7,.36,7,.71,1.41.36,1.41.72-8.47.36-8.47.71,3.75.36,3.75.72.94.36.94.71.55.36.55.72,1.27.36,1.27.72-2.88.36-2.88.72-.38.36-.38.72-3.63.36-3.63.72.37.36.37.72,8.63.35,8.63.71-2.21.36-2.21.72,2.14.36,2.14.72.31.36.31.72-1.53.35-1.53.71-6.72.36-6.72.72.2.36.2.72,4.55.36,4.55.72-.48.36-.48.72.71.36.71.72-3.94.36-3.94.72,2.87.36,2.87.72-3.53.36-3.53.72,6.8.36,6.8.72-1.52.36-1.52.72.51.36.51.72.67.36.67.72.7.36.7.72-3,.36-3,.72,3.8.36,3.8.71-3.92.36-3.92.72,1.47.36,1.47.72-2.24.36-2.24.72-.16.36-.16.72,1.23.36,1.23.72-5.66.36-5.66.72,6.45.36,6.45.72-3.84.36-3.84.72,0,.36,0,.73,6.14.36,6.14.72-.49.36-.49.72-5.83.36-5.83.72,5.14.37,5.14.73.54.36.54.72-5.93.36-5.93.72,1.11.37,1.11.73-1.88.36-1.88.73,6.27.36,6.27.73-1.86.63-1.89.86,1.82,1.2,1.75,1.42-1.21.48-1.31.69-4.26-1.86-4.39-1.66-.74-.45-.9-.27,4.34,4.8,4.16,5-.14,1.07-.33,1.21-5-6.35-5.22-6.22,1.46,3,1.25,3.13,1.7,4.44,1.49,4.55-3.58-6.72-3.8-6.63,1.73,5.46,1.51,5.54-1.69-3.48-1.92-3.41,1.22,6,1,6-.85-.85-1.08-.8-.41,1.08-.64,1.12-.73-.76-1-.73-1.24-6.51-1.48-6.48,0,5-.25,5-.64-3.87-.88-3.87S204,115,203.71,115Z"/><path class="cls-1" d="M248.24,145.39c-.24,0-.39-2.25-.62-2.25s-.7,5-.92,5,.09-6.57-.13-6.59-1.48,8.54-1.71,8.51,0-3.61-.23-3.65,0-2.3-.22-2.35-1.06,2.34-1.28,2.28-.45-.28-.67-.35,1.47-5.14,1.25-5.23-2.22,4.33-2.43,4.23,1.14-3.15.94-3.26-3.06,4-3.24,3.84,2-2.9,1.8-3.07-1.27.57-1.41.38,2.55-1.84,2.44-2.06-4.47,1.67-4.56,1.45-1.12-.25-1.2-.48,5.77-2,5.71-2.26-7.75,1.16-7.79.93,1.23-.83,1.2-1.06,3.92-.94,3.9-1.18.56-.44.54-.68S234,137.23,234,137s3.39-.57,3.39-.8,5.21-.35,5.22-.6-4.46-.65-4.44-.89,1.87-.29,1.9-.54-5-1.19-5-1.43,2.83-.09,2.88-.33,3.75.42,3.82.18-2.64-1.15-2.57-1.39-2-1.26-2-1.5-.29-.79-.19-1-.19-1-.08-1.14,1.57.16,1.71,0-.85-2-.69-2.1.5-1.13.69-1.26,2.29,2.56,2.51,2.47,1.72,4.68,2,4.62-.91-6.82-.67-6.85.72-1,1-1,.36,0,.59,0,.56,4,.8,4,.36-1.44.6-1.45.38-.73.61-.74.4-.46.63-.48.28-1.63.51-1.66,1,5.36,1.2,5.34.69,2,.92,2-.6-8.39-.36-8.43.69,2,.93,1.91,1.89,6.51,2.13,6.45-1.13-6.77-.9-6.83-.07-1.63.16-1.7,2.74,7,3,6.93-1.24-5-1-5.12-.43-2.22-.2-2.31,1.52,2.53,1.74,2.43,1.83,2.8,2,2.7,1.49,1.52,1.69,1.41.33-.81.53-.93-.62-2.06-.43-2.19-1.54-2.91-1.36-3-.71-1.42-.53-1.57,1.69,1.34,1.86,1.18-.34-.89-.18-1.06,3.84,2.86,4,2.69.4-.44.54-.62-3-2.91-2.84-3.09-.86-1.08-.73-1.28,4.17,2.17,4.3,2-2.28-1.9-2.16-2.11,1.27.14,1.38-.07.8-.19.89-.41.08-.51.16-.73-.7-.75-.63-1,.21-.42.27-.65-.29-.55-.24-.78-.3-.52-.25-.75-.71-.56-.68-.8,5.58.33,5.61.1-5.09-1.12-5.07-1.35.49-.4.51-.64-.87-.5-.86-.73,1.41-.38,1.42-.61-1.23-.49-1.22-.73.18,0,.18-.21,3.82-2.15,3.66-2.47-5.74,2.48-5.91,2.16,5.51-3.17,5.35-3.49-3.92,1.57-4.08,1.24,5-2.91,4.83-3.23-6.19,2.71-6.36,2.39-1,.11-1.18-.21-1.77.49-1.93.17.18-.48,0-.8,4.54-2.69,4.38-3-.64-.08-.8-.4,3-1.91,2.85-2.23-7.51,3.38-7.67,3.06,1-.88.79-1.2-1,.08-1.13-.24,2.34-1.57,2.18-1.89,3.1-2,2.94-2.29-2.61.91-2.77.59-3.14,1.18-3.3.85-.32-.24-.48-.56,6.14-3.5,6-3.82-.12-.34-.28-.66-1,.11-1.21-.21,1-.92.86-1.24-1.33.27-1.49-.06-4.3,1.76-4.46,1.44-.21-.29-.38-.62-1,.12-1.19-.2,4.19-2.51,4-2.83-1,.08-1.13-.24.8-.8.64-1.12-5.91,2.56-6.07,2.24,6.49-3.66,6.33-4-1.37.28-1.53,0-5.58,2.4-5.75,2.08,2.8-1.81,2.64-2.13.18-.5,0-.82-1.74.47-1.9.15,4.87-2.86,4.71-3.18,1.22-1,1.06-1.35-.47-.17-.63-.49-4.28,1.75-4.44,1.43,1.75-1.29,1.59-1.61-4.2,1.7-4.36,1.38,2.36-1.59,2.2-1.91-3.52,1.36-3.68,1,1.86-1.34,1.7-1.66-2.6.9-2.76.57.69-.75.53-1.07,2.54-1.69,2.38-2,2.81-1.82,2.64-2.14-4.92,2.07-5.08,1.75.23-.53.07-.85,3.63-2.23,3.47-2.55-5,2.09-5.13,1.77-.72-.05-.88-.37,2.63-1.73,2.47-2.06-2.66.93-2.82.61,6-3.43,5.86-3.76.69-.75.53-1.07-1.3.25-1.46-.07-3.31,1.26-3.48.94.91-.86.75-1.18.63-.73.47-1-4.55,1.88-4.71,1.56-.26-.28-.42-.6-1.55.37-1.71.05,2.32-1.58,2.16-1.9,4.68-2.77,4.52-3.09.55-.68.39-1-6.1,2.66-6.27,2.34-1.61.4-1.78.08,7.13-4,7-4.32-1.24.21-1.4-.11-4.09,1.65-4.25,1.32-1.2.2-1.37-.13.91-.86.74-1.19,1-.89.79-1.22,1.81-1.32,1.65-1.65-3.06.85-3.15.62,2.06-1.18,2-1.42-3.14,0-3.17-.19,3.26-.74,3.26-1-4.24-.75-4.22-1,1.9-.36,2-.58-.19-.65-.12-.87-.88-1-.78-1.25.65-.42.77-.62-.93-1.41-.79-1.6,0-1,.13-1.13,2.21,1.06,2.37.89,1,.29,1.22.13.34-.4.53-.57,3.47,3.47,3.66,3.32-4.9-7.17-4.71-7.32,4.67,5.63,4.88,5.49-3.22-5.83-3-6,3.27,4.35,3.48,4.22.76.47,1,.35.95,1,1.18.89-.38-1.76-.15-1.86-.3-1.88-.07-2,1.07,1.43,1.3,1.34.66.54.89.46-.88-4.38-.65-4.45,1.68,4.12,1.91,4.06-.95-6.34-.72-6.39,1.36,3.93,1.6,3.89.44-.56.68-.59.48-.7.72-.71.56-1.06.81-1.06.53,1.89.79,1.91.81-1.62,1.07-1.58,1.4-2.72,1.65-2.66-.66,4.73-.41,4.81,2.06-3.24,2.3-3.13.34,1.58.55,1.73-1.61,3-1.42,3.2-.61.89-.45,1.11-2.17,1.35-2.05,1.59,3.79-1.39,3.88-1.13-.95.79-.81,1.12,1.76-.35,1.9,0-4.13,2.11-4,2.44,4.56-1.51,4.69-1.18,1.64-.3,1.78,0,1.38-.19,1.52.14.84,0,1,.36-4.87,2.42-4.73,2.75,4.39-1.44,4.53-1.12-6.48,3.09-6.35,3.42,2.38-.61,2.52-.28-.64.66-.51,1,1.64-.3,1.77,0,.92,0,1.06.33-2.26,1.33-2.12,1.66,4.33-1.42,4.47-1.09-2.09,1.25-1.95,1.58,3.21-1,3.35-.62-2.67,1.5-2.53,1.83,2.76-.76,2.89-.43-3.3,1.77-3.16,2.1,1.41-.2,1.55.13-3.73,1.94-3.59,2.27,4.78-1.6,4.91-1.27-3.15,1.7-3,2-2,1.21-1.84,1.54-.09.42.05.75,5-1.7,5.14-1.37-4.32,2.19-4.18,2.52,3-.85,3.13-.52,4.11-1.33,4.25-1-2.93,1.61-2.79,1.94-2.52,1.44-2.38,1.77,6.39-2.28,6.53-1.94.66.11.79.44-5.6,2.73-5.46,3.06-.21.47-.07.8,1.54-.25,1.68.08-2.57,1.46-2.43,1.79,7.35-2.68,7.49-2.35.63.13.77.45-.72.69-.58,1-.82.73-.68,1-2.28,1.34-2.14,1.67-.88.76-.75,1.09,1.4-.19,1.54.14.91,0,1.05.34.87,0,1,.36-3,1.63-2.85,2-1.38,1-1.25,1.3,1.83-.37,2,0,.57.15.71.48.28.28.41.61-3.2,1.73-3.06,2.06,3.05-.88,3.18-.55,4.84-1.62,5-1.29-7.31,3.44-7.17,3.77,3.08-.89,3.22-.56-3,1.65-2.88,2,4-2.58,4.33-2.59,2.7,2,2.8,1.65-2.22-1.06-2.12-1.4-.25-.45-.14-.79-4.1-1.63-4-2,5.93,1.45,6,1.1,1.72.16,1.83-.18-6.19-2.27-6.08-2.61,2.77.48,2.88.14-2.82-1.24-2.72-1.58,1.18,0,1.28-.35,7.05,1.79,7.15,1.45-2-1-1.91-1.33.31-.28.41-.62.42-.24.53-.58-6.13-2.25-6-2.59-.82-.63-.71-1,6.95,1.76,7.06,1.42,0-.36.14-.71-3.27-1.37-3.17-1.72,4.15.9,4.26.56,0-.37.11-.71-7.38-2.64-7.28-3,2.93.52,3,.18-1.1-.71-1-1,3.29.64,3.39.29,3.14.59,3.24.25-6.15-2.26-6-2.6,6.47,1.61,6.58,1.27-5.84-2.17-5.74-2.51,4.67,1,4.78.71-6.64-2.4-6.53-2.75,7,1.78,7.11,1.43S278.93,63.3,279,63s1-.06,1.11-.41,6.39,1.59,6.49,1.24-7-2.53-6.92-2.87,3.91.83,4,.48-3.92-1.57-3.81-1.91,5.28,1.24,5.38.9-.49-.52-.39-.86,4.21.91,4.32.57-5.67-2.1-5.56-2.45,2.26.32,2.37,0-4.46-1.74-4.36-2.09.82-.12.92-.46.84-.12.95-.46,6,1.45,6.08,1.11-8-2.81-7.86-3.16,8.68,2.28,8.79,1.94-.7-.59-.59-.93-7.46-2.66-7.35-3,4.24.92,4.34.58-4.33-1.7-4.22-2,5.94,1.45,6.05,1.11,3,.55,3.14.2-6.62-2.4-6.51-2.75,2.05.25,2.16-.09,2.13.29,2.24,0-.67-.63-.56-.86-2.61-2.29-2.47-2.49,2.72,1.33,2.9,1.15.58.06.78-.09-1.5-4-1.27-4.08.77-.07,1-.15,1.75,3.41,2,3.35.65,1.24.88,1.2.3.2.54.17.25.55.49.55.22.57.47.59,1.31-7.6,1.56-7.56-.68,7.22-.43,7.27,1-2.73,1.25-2.67.11,1.34.35,1.41.61-.49.85-.41.93-1.26,1.17-1.18-.28,2.13-.05,2.22,2.05-3.79,2.28-3.7-1,3.54-.76,3.63-1.26,3.68-1,3.78,1.5-2.19,1.71-2.09.31.29.51.4,1.13-1.11,1.33-1-1.85,3.75-1.65,3.87.65-.4.85-.27,3.6-4.36,3.78-4.23.07.75.26.9-2.62,3.91-2.44,4.06,2.89-2.72,3.06-2.57-2.74,3.39-2.57,3.56,6.17-4.94,6.32-4.76-.28,1.18-.14,1.38-3.59,2.93-3.47,3.13-1.67,1.09-1.58,1.31,6.63-2.07,6.71-1.84-1.4,1.13-1.35,1.37-2.79.92-2.76,1.17-.83.33-.83.58.78.29.76.5,5.31,1.44,5.27,1.64-3.32-.18-3.39,0-1.13,0-1.23.21c-.15.33-4.24-1.31-4.38-1s8,3.59,7.88,3.92-3.17-.88-3.31-.55,2.8,1.51,2.67,1.84-6.73-2.32-6.87-2,1.62,1,1.48,1.37-3.34-1-3.47-.63,8.54,3.81,8.4,4.14-6.37-2.18-6.5-1.85-1.09,0-1.22.28-1.1-.06-1.23.27,4.8,2.31,4.67,2.64,3.18,1.66,3.05,2-3.59-1.05-3.73-.72-4.46-1.41-4.6-1.08,6.3,2.91,6.16,3.24-5.86-2-6-1.64,3.63,1.84,3.5,2.17.87.74.74,1.07-.65.12-.79.46.15.44,0,.77-6.11-2.06-6.24-1.73.33.52.2.85,2.7,1.47,2.57,1.8,1.79,1.11,1.65,1.44-1.3-.14-1.43.19-2.76-.72-2.89-.39.6.63.47,1-.9,0-1,.35,4.63,2.25,4.5,2.58.05.4-.09.73-2.13-.47-2.26-.14-3-.81-3.11-.48.67.66.54,1-2.08-.45-2.22-.12,7.71,3.48,7.58,3.81-3.28-.93-3.41-.6-4.23-1.31-4.37-1-.17.31-.3.65,7,3.21,6.91,3.54-4-1.23-4.16-.9-3.37-1-3.51-.63,6.18,2.86,6.05,3.2-7.58-2.66-7.71-2.33,2.12,1.24,2,1.57-1.67-.28-1.8.05,5.7,2.67,5.56,3,1.24.89,1.11,1.22-1.75-.31-1.88,0-4.5-1.42-4.64-1.08,1.23.88,1.1,1.21-1.47-.2-1.6.13.24.48.1.81,4.15,2,4,2.39-4.11-1.27-4.24-.93S297.17,95,297,95.37s-7-2.41-7.1-2.08,3.31,1.71,3.18,2-3.18-.9-3.31-.56,4.06,2,3.93,2.34.48.58.35.91,1.5,1,1.37,1.32-4.88-1.57-5-1.23-1.92-.38-2.05-.05,5.28,2.51,5.15,2.84-6.07-2-6.2-1.71,5.82,2.72,5.68,3-6.1-2-6.23-1.72.15.45,0,.78,6.37,3,6.24,3.28,1.17.86,1,1.2-8-2.82-8.13-2.48,3.34,1.73,3.21,2.06.74.69.61,1,.37.54.24.88,1,.8.9,1.14-2.8-.73-2.94-.4-.48.2-.62.54-3.55-.91-3.64-.69.16.6.07.82,7.83,3.66,7.74,3.89-2.23-.38-2.32-.15,1.81,1.24,1.72,1.46.11.56,0,.78-1.59-.11-1.68.11-6.44-2-6.53-1.79,0,.53-.07.75,4,2.11,4,2.34-.62.27-.71.5.5.71.41.93-3.85-1-3.94-.75,2.5,1.48,2.41,1.71-3.47-.82-3.55-.59,6.18,2.88,6.09,3.11-1.59-.1-1.67.13.3.62.21.85.46.68.38.9.49.69.4.91-3-.61-3.09-.39,3.35,1.89,3.26,2.11-3.81-1-3.91-.81,1.16,1,1.06,1.25-2.24-.47-2.34-.25-.34.36-.44.57.9,1,.8,1.18-5.27-2.12-5.38-1.91,5.53,3.36,5.42,3.57-3.61-1.39-3.73-1.18-.23.38-.34.58,5.09,3.48,5,3.69-.69.2-.81.4-5.22-2.63-5.35-2.43,4.09,3.16,4,3.36.17.73,0,.93-5.18-2.93-5.32-2.74.66,1,.53,1.19-1.78-.75-1.92-.56,4.71,4.18,4.56,4.37-1.76-.73-1.91-.55,1.17,1.73,1,1.91-1.1-.25-1.26-.07-3.68-2.9-3.85-2.73-.89-.34-1.07-.18,4,5.06,3.85,5.22,0,.92-.15,1.08-5.51-5.95-5.7-5.8,1.72,2.88,1.53,3,2.4,4.11,2.2,4.25-4.74-6-4.94-5.82,2.77,5,2.57,5.13-2.45-3-2.66-2.88,2.67,5.47,2.46,5.6-1-.63-1.21-.52,0,1.13-.24,1.24-.89-.53-1.11-.42-3.3-5.75-3.52-5.65,1.61,4.7,1.39,4.8-1.92-3.42-2.15-3.33,1.73,6,1.5,6-1.73-3.31-2-3.23-1.06-1.77-1.29-1.7.52,3.43.28,3.5-1.66-4.32-1.9-4.26-.13,1.26-.37,1.31-.31.64-.55.69-.26,1.05-.5,1.1-.32.87-.57.91-1.08-3.63-1.33-3.59.52,6.49.28,6.53-1.48-7.2-1.72-7.17.31,6.38.07,6.41-.92-3.94-1.17-3.91-.46,0-.7,0-.34,1.61-.58,1.63-.24,3.89-.48,3.9-.75-4.24-1-4.22-.39,2.22-.63,2.23-.65-4.95-.9-4.95-.34,5.39-.59,5.39-.51-.48-.76-.47S248.49,145.39,248.24,145.39Z"/></g></g></svg>