<svg xmlns="http://www.w3.org/2000/svg" viewBox="0 0 280.6 139.82"><g id="Layer_2" data-name="Layer 2"><g id="Layer_1-2" data-name="Layer 1"><path id="Icon" d="M280.54,53.69h0a18.51,18.51,0,0,0-19.76-17v-13A23.7,23.7,0,0,0,237.11,0H150.76a13.4,13.4,0,0,0-10.23,4.75A13.42,13.42,0,0,0,130.29,0H43.94A23.69,23.69,0,0,0,20.28,23.67v13a19.09,19.09,0,0,0-2.93,0,18.56,18.56,0,0,0-14.5,28.4,41,41,0,0,1,6.08,22v34.34a3.2,3.2,0,0,0,3.2,3.2H18.3a1.93,1.93,0,0,0,0,.24v6.65a8.33,8.33,0,0,0,8.31,8.32h4.1A8.33,8.33,0,0,0,39,131.5v-6.65a1.93,1.93,0,0,0,0-.24H242.05c0,.08,0,.16,0,.24v6.65a8.33,8.33,0,0,0,8.32,8.32h4.09a8.33,8.33,0,0,0,8.32-8.32v-6.65c0-.08,0-.16,0-.24h5.71a3.2,3.2,0,0,0,3.2-3.2V87.07a41.1,41.1,0,0,1,6.07-22A18.44,18.44,0,0,0,280.54,53.69ZM150.76,6.4h86.35a17.29,17.29,0,0,1,17.27,17.27V38.29a18.58,18.58,0,0,0-10.89,16.9c0,.14,0,.27,0,.4s0,.17,0,.26V66.29a16.81,16.81,0,0,0-10.74-3.85H154a16.8,16.8,0,0,0-10.28,3.49V13.43A7,7,0,0,1,150.76,6.4ZM137.1,87.5H37.56V79.34A10.53,10.53,0,0,1,48.07,68.83h78.75a10.53,10.53,0,0,1,10.37,8.8,16.18,16.18,0,0,0-.09,1.71Zm6.54-9.87A10.53,10.53,0,0,1,154,68.83h78.74a10.52,10.52,0,0,1,10.51,10.51V87.5H143.73V79.34A16.18,16.18,0,0,0,143.64,77.63Zm-117-54A17.29,17.29,0,0,1,43.94,6.4h86.35a7,7,0,0,1,7,7V66.11a16.81,16.81,0,0,0-10.51-3.67H48.07a16.88,16.88,0,0,0-11,4V55.19a18.64,18.64,0,0,0-5.85-13.53,19.12,19.12,0,0,0-4.58-3.16Zm5.95,101.18v6.65a1.92,1.92,0,0,1-1.92,1.92H26.6a1.93,1.93,0,0,1-1.92-1.92v-6.65a1.93,1.93,0,0,0,0-.24h8A1.93,1.93,0,0,0,32.62,124.85Zm223.75,0v6.65a1.92,1.92,0,0,1-1.92,1.92h-4.09a1.92,1.92,0,0,1-1.92-1.92v-6.65c0-.08,0-.16,0-.24h7.95C256.38,124.69,256.37,124.77,256.37,124.85Zm16-63.18a47.4,47.4,0,0,0-7.06,25.4v31.14H15.33V87.07a47.41,47.41,0,0,0-7.07-25.4,12.16,12.16,0,1,1,22.45-6.48c0,.07,0,.13,0,.19v.31a1.85,1.85,0,0,0,0,.23V90.7a3.2,3.2,0,0,0,3.2,3.2H246.69a3.2,3.2,0,0,0,3.2-3.2V55.92a1.69,1.69,0,0,0,0-.23v-.3a1.34,1.34,0,0,1,0-.2,12.15,12.15,0,0,1,13-12.12,12.15,12.15,0,0,1,9.48,18.6Z"/></g></g></svg>