<svg xmlns="http://www.w3.org/2000/svg" viewBox="0 0 1061.32 2138.83"><defs><style>.cls-1,.cls-8{fill:#ffcd00;}.cls-1,.cls-2,.cls-3,.cls-4,.cls-5,.cls-6{stroke:#000;}.cls-1,.cls-2,.cls-3,.cls-5,.cls-6{stroke-linecap:round;}.cls-1,.cls-2,.cls-3,.cls-5{stroke-linejoin:bevel;}.cls-2{fill:#e2b700;}.cls-3{fill:#f4c500;}.cls-4,.cls-5,.cls-6{fill:none;}.cls-4,.cls-6{stroke-linejoin:round;}.cls-4{stroke-width:37px;}.cls-5{stroke-width:55px;}.cls-6{stroke-width:49px;}.cls-7{fill:#fff;}.cls-7,.cls-8,.cls-9{stroke:#231f20;stroke-miterlimit:10;stroke-width:14px;}.cls-9{fill:#231f20;}</style></defs><g id="Layer_2" data-name="Layer 2"><g id="Layer_1-2" data-name="Layer 1"><polygon class="cls-1" points="244.16 238.52 1032.86 95.84 1020.97 1903.1 263.98 2113.16 244.16 238.52"/><polygon class="cls-2" points="26.18 147.36 53.92 1974.44 263.98 2113.16 228.31 230.59 26.18 147.36"/><polygon class="cls-3" points="810.91 24.5 1036.82 79.99 244.16 238.52 26.18 131.51 810.91 24.5"/><path class="cls-4" d="M294,2119.45,1000,1924.74a28.91,28.91,0,0,0,21.23-27.56L1041,98.48,235.11,225.31l28.6,1871.41A24,24,0,0,0,294,2119.45Z"/><polyline class="cls-5" points="27.5 156.61 55.45 1969.16 254.73 2094.66"/><polyline class="cls-6" points="27.5 135.47 809.59 24.5 1036.82 85.27"/><line class="cls-4" x1="7.89" y1="135.47" x2="235.11" y2="233.23"/><path class="cls-7" d="M661.74,420.67c-8.25,7.08-16.16,15.27-22,24.76A110.08,110.08,0,0,0,628,471.2c-2.26,7.81-3.94,14.09-4.86,18.6-3,11.83-6,23.66-9.14,35.47a139,139,0,0,1-6.9,20.72c-2.52,5.6-4.68,7.8-5.73,8.61a19,19,0,0,1-8.26,3.21c-3.9.68-7.07.46-9.4-.63a17.5,17.5,0,0,1-6.67-5.39,22,22,0,0,1-3.87-8.44,47.42,47.42,0,0,1-1.24-10.62,78.14,78.14,0,0,1,1.5-15.9,39.29,39.29,0,0,1,4.83-12.48,28.85,28.85,0,0,1,8.82-9,46.53,46.53,0,0,1,15.17-6.13,7,7,0,0,0,5.4-6.42q-.06-23.73-.14-47.44c0-3-2.61-5-5.79-4.42-13.18,2.22-26.28,6.34-37.74,13.31-10,6.05-19.36,14.07-25.66,23.46a99.57,99.57,0,0,0-14.24,30.93c-2.94,11.26-3.92,23.08-4.21,35.2-.24,10.26,1.83,22,4.61,31.81a90.62,90.62,0,0,0,14.22,28.48c5.76,7.46,15.47,15.14,24.28,18.74a51.21,51.21,0,0,0,5.19,1.85c-9.62,7.59-18.18,14.92-25.22,24.13A109.2,109.2,0,0,0,526,670.66a118.28,118.28,0,0,0-5.65,35.4c-.32,16,2.72,34.13,10.26,48.52,6.92,13.22,15.42,25.17,28.12,34s26.9,13,41.64,15a96.31,96.31,0,0,0,15.06.61c-27.74,16.25-55.75,31.62-85.27,44.42a5.88,5.88,0,0,0-3.74,5.35q.06,25.43.14,50.83a5.1,5.1,0,0,0,3.75,4.91c46.74,12.56,94.35,15.93,142.38,20a90.16,90.16,0,0,0-13.17,10,82.25,82.25,0,0,0-19.86,27.89,39.94,39.94,0,0,0-15.25-10.25c-10.8-4-22.87-2.51-33.15-.28a100,100,0,0,0-30.38,11.81c-7.42,4.55-15.5,12-20.29,19.34A78.67,78.67,0,0,0,530,1014a135.1,135.1,0,0,0-3,30.75q.12,43.88.25,87.75l0,18.31q.24,83.16.47,166.32a4.88,4.88,0,0,0,5.8,4.77c14.79-2.3,29.26-5.23,43.81-8.72,3.19-.81,5.77-3.93,5.76-7q-.08-30.76-.17-61.54c30-7.94,59.5-17.44,89.14-26.58-15.74,21.4-30.68,43.36-45.49,65.38-6.28,9.32-12.55,18.68-19,27.87a31.13,31.13,0,0,0-14,.91c-14.91,4.26-30.47,19-30.26,35.64a26.63,26.63,0,0,0,.31,3.62c-15.9,6.66-32.27,11.75-49,7.49a3.24,3.24,0,0,0-3,.79,2.78,2.78,0,0,0-.77,2.85c5.43,15.86,17.57,29.13,30.12,39.48a91,91,0,0,0,23.22,13.33,26,26,0,0,0-.64,5.92c.32,15.1,16.26,24.33,30.42,19.69,8.16-2.67,18-9.57,23-17,18-.61,35.53-3.76,53.11-7.52,3.3,3.77,6.78,7.43,10.36,11-.23,0-.47.11-.72.19-3.19,1-5.77,4.32-5.76,7.29h0q.06,23.49.13,47c0,2.72,2.22,4.28,5.08,3.63,11.52-2.63,24.76-3.12,35.35,2.73,9.55,5.28,12.94,16.76,12.82,27.08-.11,9.73-2,18.83-6,26.69A79.91,79.91,0,0,1,705,1563.56a126.25,126.25,0,0,1-23.51,17.4,184.18,184.18,0,0,1-27.64,13,137.15,137.15,0,0,1-28.87,7.36c-9,1.17-17.18.77-24.21-1.3a30.5,30.5,0,0,1-16.46-11.64c-4.05-5.64-6.12-13.66-6.15-23.74a50.24,50.24,0,0,1,2.77-16.36,65.17,65.17,0,0,1,7.81-15.61,74.92,74.92,0,0,1,11.64-13.39,58.53,58.53,0,0,1,14.21-9.52c2.83-1.35,4.92-4.35,4.92-7l-.14-47.33a3.64,3.64,0,0,0-1.94-3.41,5.33,5.33,0,0,0-4.51.13c-13.6,6.14-26.75,13.44-38.66,22.93a146.76,146.76,0,0,0-28.37,29.63c-7.44,10.5-13.76,22.34-17.28,34.37a140.55,140.55,0,0,0-5.82,37.74c-.3,15.51,2.9,32.93,10.25,47.18,6.39,12.37,15.9,23.46,28.12,30.46q2.85,1.63,5.9,3a113.27,113.27,0,0,0-25.32,27.72,105.75,105.75,0,0,0-14.24,33.45,186.21,186.21,0,0,0-4.21,36c-.25,10,1.81,21.49,4.61,31,2.59,8.74,8.13,19.13,14.23,25.93a52.47,52.47,0,0,0,24.27,14.44c11.61,2.75,23.83,0,34.62-3.47s21.58-10.17,30.43-17.93a114.35,114.35,0,0,0,20.89-24.72,144.69,144.69,0,0,0,13.19-27.55c3.13-9,5.93-18.63,8.25-27.8,2.23-8.83,4.63-17.81,6.6-26.4a183.77,183.77,0,0,1,6.66-22.64,61.86,61.86,0,0,1,8.69-16.26,22.86,22.86,0,0,1,11.44-7.89c4.67-1.52,8.32-1.62,11.17-.38a16.15,16.15,0,0,1,7.54,6.64,31.22,31.22,0,0,1,4,11.14,78.31,78.31,0,0,1,1.14,12.72,70.25,70.25,0,0,1-2.26,17.72,54.85,54.85,0,0,1-6.68,15.7,51.11,51.11,0,0,1-11.39,12.61,59.6,59.6,0,0,1-17.57,9.44c-3.2,1.14-5.78,4.49-5.77,7.46l.14,46.88c0,2.94,2.62,4.42,5.71,3.28,14.29-5.3,28.16-11.89,40.57-21.37a127.91,127.91,0,0,0,28.15-29.2c7.18-10.5,12.95-22.37,15.93-34.45a166.12,166.12,0,0,0,4.9-36.87c.28-13.22-1.32-27.78-6-40-3.78-9.82-8.74-19.89-16.9-27.43a49.75,49.75,0,0,0-15.79-10l1-1.09c11.11-11.9,20.92-25.68,27.38-40.75s10.39-32.08,9.8-48.25c-.41-11.48-1.46-23.09-5.64-34.17,4.3-4.78,5.45-12.88,3.6-24.25-8.66-53.2-8.19-105.34-1.14-158.89,2.59-19.59,4.9-39.23,5.08-58.78.14-15.47-1.9-31.1-4.73-46.27a78.34,78.34,0,0,0-3.47-12.61c0-11,0-16.58-.08-27.63a5.07,5.07,0,0,0-5.79-4.86c-64.47,7.15-124.9,31-187.38,47q-.06-19-.11-37.94c62.49-15.67,123-39.23,187.38-46.05a6.09,6.09,0,0,0,5.76-5.74q-.15-52.75-.31-105.5a102,102,0,0,0-4.26-29.65,78.64,78.64,0,0,0-6.39-15.37l2.69.73a6.45,6.45,0,0,0,5.33-.92,5.53,5.53,0,0,0,2.49-4.49l-.15-48.18a5.07,5.07,0,0,0-3.87-4.85,381.26,381.26,0,0,0-49-9.84l-.21-74.38c16-7.67,32.12-14.64,48.8-20.76a5.58,5.58,0,0,0,3.91-5.14l-.15-49.71a5.12,5.12,0,0,0-2.5-4.33,6.09,6.09,0,0,0-5.32-.44l-2.45,1a95.36,95.36,0,0,0,5.6-10.6,115.54,115.54,0,0,0,9.8-47.19c-.19-11.82-3-22.09-7.69-33.48-3.38-8.2-10.65-17-17.76-22.54,6.12-1.52,9.18-2.21,15.3-3.41a5.5,5.5,0,0,0,4.65-5.25l-.09-30.5a5.54,5.54,0,0,0-5.8-5.29c-4.55.06-6.83.14-11.38.37.49-.61,1-1.23,1.44-1.85a91.27,91.27,0,0,0,15.93-32,156.06,156.06,0,0,0,4.9-36.14c.29-13.52-1.43-28.31-6-40.9-3.87-10.62-9.14-21.43-16.9-30.07C750,417,739.36,410,730.2,407.17c-10.6-3.3-21.92-3.24-32.6-1.89C685,406.87,671.49,412.31,661.74,420.67Zm-25.3,1238.45a112,112,0,0,0-5,13.94c-2.31,8.23-3.94,14.76-4.86,19.42-3,12.34-6,24.69-9.14,37a161.77,161.77,0,0,1-6.9,21.9c-2.52,6-4.67,8.6-5.73,9.59a23.17,23.17,0,0,1-8.26,4.62c-3.9,1.36-7.07,1.69-9.4,1a13.81,13.81,0,0,1-6.67-4.22,18,18,0,0,1-3.87-7.76,44.74,44.74,0,0,1-1.24-10.41,82,82,0,0,1,1.5-16.15,46.73,46.73,0,0,1,4.83-13.32,37.33,37.33,0,0,1,8.82-10.53,57.12,57.12,0,0,1,15.17-8.75c3-1.25,5.41-4.47,5.4-7.34,0-9.7,0-14.55-.07-24.26A144.78,144.78,0,0,0,636.44,1659.12Zm-57.28-571.78-.12-40.59a67,67,0,0,1,1-12,31.49,31.49,0,0,1,3.39-9.71,22.42,22.42,0,0,1,6.16-7,29.37,29.37,0,0,1,10.76-4.72c8.09-2,13.64-1.48,17,1.81,3.66,3.64,5.53,9.26,5.55,16.75q.06,22,.13,44.08C608.45,1080.06,593.87,1083.88,579.16,1087.34ZM710.52,977.4a13.83,13.83,0,0,1,7.34,4.45,21.36,21.36,0,0,1,4.18,8.69,51.63,51.63,0,0,1,1.41,12.11l.13,46.23c-18,4-35.74,8.57-53.48,13.53q-.08-23.75-.14-47.49c0-9.26,2.18-17.33,6.56-23.92,4.07-6.11,11.08-10.44,21.42-13C703.16,976.77,707.39,976.57,710.52,977.4Zm-38.6-105.58c-21.56-1.54-43.12-2.93-64.65-4.83,21.6-12.25,43-24.83,64.53-37.2Zm-37.08-187c0,3,2.61,4.81,5.8,4,12.93-3.09,25.86-6.18,38.83-9.1,3.2-.71,5.78-3.68,5.77-6.65l-.13-42.64c8.84-1,21,1.43,28,7.38,9,7.67,11.73,20.25,11.65,31.51-.06,9.79-2,18.61-6,26a66.64,66.64,0,0,1-16.22,19.63,109.75,109.75,0,0,1-23.51,14.67,156.28,156.28,0,0,1-27.65,9.73,128.33,128.33,0,0,1-28.86,3.89,61.49,61.49,0,0,1-24.22-4.26,36.06,36.06,0,0,1-16.45-13.67c-4.06-6.15-5.92-14.64-6.16-24.51-.22-9.17,3.26-21.13,8.73-28.62,6.56-9,16.28-15.69,26.51-20.07a7.21,7.21,0,0,0,4.46-6.25q-.06-18-.11-36A70,70,0,0,0,628,602.67q3.43-2.49,6.57-5.23Q634.71,641.17,634.84,684.87Zm80.07-221.58a20.37,20.37,0,0,1,7.54,7.84,36.8,36.8,0,0,1,4,11.79,81.89,81.89,0,0,1,1.14,12.91,66.2,66.2,0,0,1-2.26,17.37,46.32,46.32,0,0,1-6.68,14.64,40.22,40.22,0,0,1-11.39,10.78,49.42,49.42,0,0,1-17.57,6.6c-3.2.62-5.78,3.55-5.77,6.52,0,9.45,0,14.18.07,23.64-12.17,2.5-24.29,5.19-36.4,7.91l1.3-1.83a114.14,114.14,0,0,0,13.19-25.37c3.17-8.67,5.93-17.77,8.25-26.46,2.25-8.44,4.62-17,6.6-25.32a161.11,161.11,0,0,1,6.66-21.56,50.43,50.43,0,0,1,8.69-14.85,18.58,18.58,0,0,1,11.44-6C708.41,461.1,712.06,461.59,714.91,463.29Z"/><path class="cls-8" d="M661.74,420.67c-8.25,7.08-16.16,15.27-22,24.76A110.08,110.08,0,0,0,628,471.2c-2.26,7.81-3.94,14.09-4.86,18.6-3,11.83-6,23.66-9.14,35.47a139,139,0,0,1-6.9,20.72c-2.52,5.6-4.68,7.8-5.73,8.61a19,19,0,0,1-8.26,3.21c-3.9.68-7.07.46-9.4-.63a17.5,17.5,0,0,1-6.67-5.39,22,22,0,0,1-3.87-8.44,47.42,47.42,0,0,1-1.24-10.62,78.14,78.14,0,0,1,1.5-15.9,39.29,39.29,0,0,1,4.83-12.48,28.85,28.85,0,0,1,8.82-9,46.53,46.53,0,0,1,15.17-6.13,7,7,0,0,0,5.4-6.42q-.06-23.73-.14-47.44c0-3-2.61-5-5.79-4.42-13.18,2.22-26.28,6.34-37.74,13.31-10,6.05-19.36,14.07-25.66,23.46a99.57,99.57,0,0,0-14.24,30.93c-2.94,11.26-3.92,23.08-4.21,35.2-.24,10.26,1.83,22,4.61,31.81a90.62,90.62,0,0,0,14.22,28.48c5.76,7.46,15.47,15.14,24.28,18.74a51.21,51.21,0,0,0,5.19,1.85c-9.62,7.59-18.18,14.92-25.22,24.13A109.2,109.2,0,0,0,526,670.66a118.28,118.28,0,0,0-5.65,35.4c-.32,16,2.72,34.13,10.26,48.52,6.92,13.22,15.42,25.17,28.12,34s26.9,13,41.64,15a96.31,96.31,0,0,0,15.06.61c-27.74,16.25-55.75,31.62-85.27,44.42a5.88,5.88,0,0,0-3.74,5.35q.06,25.43.14,50.83a5.1,5.1,0,0,0,3.75,4.91c46.74,12.56,94.35,15.93,142.38,20a90.16,90.16,0,0,0-13.17,10,82.25,82.25,0,0,0-19.86,27.89,39.94,39.94,0,0,0-15.25-10.25c-10.8-4-22.87-2.51-33.15-.28a100,100,0,0,0-30.38,11.81c-7.42,4.55-15.5,12-20.29,19.34A78.67,78.67,0,0,0,530,1014a135.1,135.1,0,0,0-3,30.75q.12,43.88.25,87.75l0,18.31q.24,83.16.47,166.32a4.88,4.88,0,0,0,5.8,4.77c14.79-2.3,29.26-5.23,43.81-8.72,3.19-.81,5.77-3.93,5.76-7q-.08-30.76-.17-61.54c30-7.94,59.5-17.44,89.14-26.58-15.74,21.4-30.68,43.36-45.49,65.38-6.28,9.32-12.55,18.68-19,27.87a31.13,31.13,0,0,0-14,.91c-14.91,4.26-30.47,19-30.26,35.64a26.63,26.63,0,0,0,.31,3.62c-15.9,6.66-32.27,11.75-49,7.49a3.24,3.24,0,0,0-3,.79,2.78,2.78,0,0,0-.77,2.85c5.43,15.86,17.57,29.13,30.12,39.48a91,91,0,0,0,23.22,13.33,26,26,0,0,0-.64,5.92c.32,15.1,16.26,24.33,30.42,19.69,8.16-2.67,18-9.57,23-17,18-.61,35.53-3.76,53.11-7.52,3.3,3.77,6.78,7.43,10.36,11-.23,0-.47.11-.72.19-3.19,1-5.77,4.32-5.76,7.29h0q.06,23.49.13,47c0,2.72,2.22,4.28,5.08,3.63,11.52-2.63,24.76-3.12,35.35,2.73,9.55,5.28,12.94,16.76,12.82,27.08-.11,9.73-2,18.83-6,26.69A79.91,79.91,0,0,1,705,1563.56a126.25,126.25,0,0,1-23.51,17.4,184.18,184.18,0,0,1-27.64,13,137.15,137.15,0,0,1-28.87,7.36c-9,1.17-17.18.77-24.21-1.3a30.5,30.5,0,0,1-16.46-11.64c-4.05-5.64-6.12-13.66-6.15-23.74a50.24,50.24,0,0,1,2.77-16.36,65.17,65.17,0,0,1,7.81-15.61,74.92,74.92,0,0,1,11.64-13.39,58.53,58.53,0,0,1,14.21-9.52c2.83-1.35,4.92-4.35,4.92-7l-.14-47.33a3.64,3.64,0,0,0-1.94-3.41,5.33,5.33,0,0,0-4.51.13c-13.6,6.14-26.75,13.44-38.66,22.93a146.76,146.76,0,0,0-28.37,29.63c-7.44,10.5-13.76,22.34-17.28,34.37a140.55,140.55,0,0,0-5.82,37.74c-.3,15.51,2.9,32.93,10.25,47.18,6.39,12.37,15.9,23.46,28.12,30.46q2.85,1.63,5.9,3a113.27,113.27,0,0,0-25.32,27.72,105.75,105.75,0,0,0-14.24,33.45,186.21,186.21,0,0,0-4.21,36c-.25,10,1.81,21.49,4.61,31,2.59,8.74,8.13,19.13,14.23,25.93a52.47,52.47,0,0,0,24.27,14.44c11.61,2.75,23.83,0,34.62-3.47s21.58-10.17,30.43-17.93a114.35,114.35,0,0,0,20.89-24.72,144.69,144.69,0,0,0,13.19-27.55c3.13-9,5.93-18.63,8.25-27.8,2.23-8.83,4.63-17.81,6.6-26.4a183.77,183.77,0,0,1,6.66-22.64,61.86,61.86,0,0,1,8.69-16.26,22.86,22.86,0,0,1,11.44-7.89c4.67-1.52,8.32-1.62,11.17-.38a16.15,16.15,0,0,1,7.54,6.64,31.22,31.22,0,0,1,4,11.14,78.31,78.31,0,0,1,1.14,12.72,70.25,70.25,0,0,1-2.26,17.72,54.85,54.85,0,0,1-6.68,15.7,51.11,51.11,0,0,1-11.39,12.61,59.6,59.6,0,0,1-17.57,9.44c-3.2,1.14-5.78,4.49-5.77,7.46l.14,46.88c0,2.94,2.62,4.42,5.71,3.28,14.29-5.3,28.16-11.89,40.57-21.37a127.91,127.91,0,0,0,28.15-29.2c7.18-10.5,12.95-22.37,15.93-34.45a166.12,166.12,0,0,0,4.9-36.87c.28-13.22-1.32-27.78-6-40-3.78-9.82-8.74-19.89-16.9-27.43a49.75,49.75,0,0,0-15.79-10l1-1.09c11.11-11.9,20.92-25.68,27.38-40.75s10.39-32.08,9.8-48.25c-.41-11.48-1.46-23.09-5.64-34.17,4.3-4.78,5.45-12.88,3.6-24.25-8.66-53.2-8.19-105.34-1.14-158.89,2.59-19.59,4.9-39.23,5.08-58.78.14-15.47-1.9-31.1-4.73-46.27a78.34,78.34,0,0,0-3.47-12.61c0-11,0-16.58-.08-27.63a5.07,5.07,0,0,0-5.79-4.86c-64.47,7.15-124.9,31-187.38,47q-.06-19-.11-37.94c62.49-15.67,123-39.23,187.38-46.05a6.09,6.09,0,0,0,5.76-5.74q-.15-52.75-.31-105.5a102,102,0,0,0-4.26-29.65,78.64,78.64,0,0,0-6.39-15.37l2.69.73a6.45,6.45,0,0,0,5.33-.92,5.53,5.53,0,0,0,2.49-4.49l-.15-48.18a5.07,5.07,0,0,0-3.87-4.85,381.26,381.26,0,0,0-49-9.84l-.21-74.38c16-7.67,32.12-14.64,48.8-20.76a5.58,5.58,0,0,0,3.91-5.14l-.15-49.71a5.12,5.12,0,0,0-2.5-4.33,6.09,6.09,0,0,0-5.32-.44l-2.45,1a95.36,95.36,0,0,0,5.6-10.6,115.54,115.54,0,0,0,9.8-47.19c-.19-11.82-3-22.09-7.69-33.48-3.38-8.2-10.65-17-17.76-22.54,6.12-1.52,9.18-2.21,15.3-3.41a5.5,5.5,0,0,0,4.65-5.25l-.09-30.5a5.54,5.54,0,0,0-5.8-5.29c-4.55.06-6.83.14-11.38.37.49-.61,1-1.23,1.44-1.85a91.27,91.27,0,0,0,15.93-32,156.06,156.06,0,0,0,4.9-36.14c.29-13.52-1.43-28.31-6-40.9-3.87-10.62-9.14-21.43-16.9-30.07C750,417,739.36,410,730.2,407.17c-10.6-3.3-21.92-3.24-32.6-1.89C685,406.87,671.49,412.31,661.74,420.67Zm-25.3,1238.45a112,112,0,0,0-5,13.94c-2.31,8.23-3.94,14.76-4.86,19.42-3,12.34-6,24.69-9.14,37a161.77,161.77,0,0,1-6.9,21.9c-2.52,6-4.67,8.6-5.73,9.59a23.17,23.17,0,0,1-8.26,4.62c-3.9,1.36-7.07,1.69-9.4,1a13.81,13.81,0,0,1-6.67-4.22,18,18,0,0,1-3.87-7.76,44.74,44.74,0,0,1-1.24-10.41,82,82,0,0,1,1.5-16.15,46.73,46.73,0,0,1,4.83-13.32,37.33,37.33,0,0,1,8.82-10.53,57.12,57.12,0,0,1,15.17-8.75c3-1.25,5.41-4.47,5.4-7.34,0-9.7,0-14.55-.07-24.26A144.78,144.78,0,0,0,636.44,1659.12Zm-57.28-571.78-.12-40.59a67,67,0,0,1,1-12,31.49,31.49,0,0,1,3.39-9.71,22.42,22.42,0,0,1,6.16-7,29.37,29.37,0,0,1,10.76-4.72c8.09-2,13.64-1.48,17,1.81,3.66,3.64,5.53,9.26,5.55,16.75q.06,22,.13,44.08C608.45,1080.06,593.87,1083.88,579.16,1087.34ZM710.52,977.4a13.83,13.83,0,0,1,7.34,4.45,21.36,21.36,0,0,1,4.18,8.69,51.63,51.63,0,0,1,1.41,12.11l.13,46.23c-18,4-35.74,8.57-53.48,13.53q-.08-23.75-.14-47.49c0-9.26,2.18-17.33,6.56-23.92,4.07-6.11,11.08-10.44,21.42-13C703.16,976.77,707.39,976.57,710.52,977.4Zm-38.6-105.58c-21.56-1.54-43.12-2.93-64.65-4.83,21.6-12.25,43-24.83,64.53-37.2Zm-37.08-187c0,3,2.61,4.81,5.8,4,12.93-3.09,25.86-6.18,38.83-9.1,3.2-.71,5.78-3.68,5.77-6.65l-.13-42.64c8.84-1,21,1.43,28,7.38,9,7.67,11.73,20.25,11.65,31.51-.06,9.79-2,18.61-6,26a66.64,66.64,0,0,1-16.22,19.63,109.75,109.75,0,0,1-23.51,14.67,156.28,156.28,0,0,1-27.65,9.73,128.33,128.33,0,0,1-28.86,3.89,61.49,61.49,0,0,1-24.22-4.26,36.06,36.06,0,0,1-16.45-13.67c-4.06-6.15-5.92-14.64-6.16-24.51-.22-9.17,3.26-21.13,8.73-28.62,6.56-9,16.28-15.69,26.51-20.07a7.21,7.21,0,0,0,4.46-6.25q-.06-18-.11-36A70,70,0,0,0,628,602.67q3.43-2.49,6.57-5.23Q634.71,641.17,634.84,684.87Zm80.07-221.58a20.37,20.37,0,0,1,7.54,7.84,36.8,36.8,0,0,1,4,11.79,81.89,81.89,0,0,1,1.14,12.91,66.2,66.2,0,0,1-2.26,17.37,46.32,46.32,0,0,1-6.68,14.64,40.22,40.22,0,0,1-11.39,10.78,49.42,49.42,0,0,1-17.57,6.6c-3.2.62-5.78,3.55-5.77,6.52,0,9.45,0,14.18.07,23.64-12.17,2.5-24.29,5.19-36.4,7.91l1.3-1.83a114.14,114.14,0,0,0,13.19-25.37c3.17-8.67,5.93-17.77,8.25-26.46,2.25-8.44,4.62-17,6.6-25.32a161.11,161.11,0,0,1,6.66-21.56,50.43,50.43,0,0,1,8.69-14.85,18.58,18.58,0,0,1,11.44-6C708.41,461.1,712.06,461.59,714.91,463.29Z"/><path class="cls-9" d="M626.57,1283.45c-6.27,9.33-12.54,18.68-19,27.87h0a31.13,31.13,0,0,0-14,.91c-14.91,4.26-30.47,19-30.26,35.64a26.63,26.63,0,0,0,.31,3.62h0c-15.9,6.66-32.27,11.74-49,7.49a3.24,3.24,0,0,0-3,.79,2.78,2.78,0,0,0-.77,2.85c5.46,15.88,17.57,29.13,30.12,39.48a91,91,0,0,0,23.22,13.33,26,26,0,0,0-.64,5.92c.32,15.1,16.26,24.33,30.42,19.69,8.16-2.67,18-9.57,23-17,18-.62,35.53-3.76,53.11-7.52,19.72,21.28,68,70.24,100.89,58.24,10.89-4,11.16-18.56,9.37-28.15-9.66-51.76-8.19-105.34-1.14-158.89,2.59-19.59,4.9-39.23,5.08-58.78.14-15.47-2-31-4.73-46.27-2.47-13.83-9.59-32.13-25.28-33.72-24.22-2.47-47.72,26.94-61.88,43.58C668.08,1221,647.4,1252.5,626.57,1283.45Zm-33.05,34.18c11-3.12,24.61,1.87,24.67,15,.06,13.74-12.45,25.88-24.54,29.84-11.48,3.76-25-3.15-24.66-15.94S581.09,1321.18,593.52,1317.63ZM564.09,1354Zm29.77,81.62c-11.42,3.87-25-2.87-24.66-15.68s12.11-25.48,24.53-29.17c10.9-3.23,24.63,1.59,24.67,14.75C618.44,1419.32,606,1431.54,593.86,1435.64Zm24.93-14.48,0,0Zm134-266.85c12.81,1.31,19.14,18.27,21,29.69,5.67,34.82,4.24,68.48-.39,103.56-3.48,26.26-6.11,52.59-6.23,79-.12,27.19,3,54.62,7.39,81.48,1.38,8.49,1.51,19.54-5.2,21.85-17.07,5.86-42.67-13.76-55.72-22.78a202.15,202.15,0,0,1-39.49-35.82l-.1-.12c-7.9-9.85-14.91-19.37-20.75-30.2-14.81-27.45-15.12-61.61,11.32-83.6,1.39-1.16,1.89-3,1.11-4s-2.54-1-3.93.2c-27.93,23.34-29.89,60.44-13.85,91.26a150.93,150.93,0,0,0,18.18,27.18c-15.15,3-30.23,5.67-45.71,6.29a35.81,35.81,0,0,0,3.72-14.56c.54-16.18-17.82-21.91-30.42-18.28A44.23,44.23,0,0,0,566,1409.58h0a97.6,97.6,0,0,1-20.76-11.88,92.6,92.6,0,0,1-26.87-32.27,73.86,73.86,0,0,0,27.5-1.79,89.67,89.67,0,0,0,19-7.24c4.72,11.37,17.85,14.66,28.79,11.49,15.38-4.45,30.1-20.74,30.26-37.06.08-8.62-4.51-15.08-11.45-18,6.33-9,12.47-18.2,18.61-27.35,19.72-29.36,39.44-59.05,62.13-86.27C706.38,1183.36,730.19,1152,752.79,1154.31ZM564.9,1412.48h0Z"/><path class="cls-9" d="M595.57,1425.26c7.59-2.28,13.72-9.87,13.7-16.79s-6.18-10.58-13.77-8.33-13.72,9.56-13.7,16.51S588,1427.53,595.57,1425.26Z"/><path class="cls-9" d="M595.36,1352.12c7.59-2.2,13.72-9.72,13.7-16.64s-6.18-10.65-13.77-8.48-13.72,9.41-13.7,16.36S587.78,1354.32,595.36,1352.12Z"/><path class="cls-9" d="M600.38,1007.93a37,37,0,0,0-13.6,6.07,30.4,30.4,0,0,0-8.28,9.36,37.7,37.7,0,0,0-4.12,11.69,72,72,0,0,0-1.12,12.93q.06,23.05.13,46.09c18.64-4.21,37-9.08,55.43-14.29l-.15-49.46q0-13.06-6.69-19.63C617.53,1006.29,610.34,1005.44,600.38,1007.93Zm17,7.25c3.66,3.64,5.53,9.26,5.55,16.75q.06,22,.13,44.08c-14.57,4-29.15,7.87-43.86,11.33l-.12-40.59a66.91,66.91,0,0,1,1-12,31.49,31.49,0,0,1,3.39-9.71,22.42,22.42,0,0,1,6.16-7,29.37,29.37,0,0,1,10.76-4.72C608.48,1011.34,614,1011.89,617.34,1015.18Z"/><path class="cls-9" d="M771.62,1474.43a88.93,88.93,0,0,1,4.91,31.21,132.55,132.55,0,0,1-9.32,46.29c-5.7,14.25-15.4,27.62-26,39-2.31,2.5-4.75,4.93-7.25,7.33a45.17,45.17,0,0,1,21.42,11.08c7,6.34,12.94,16.75,15.85,25.55a116.54,116.54,0,0,1,5.76,38.34,161.59,161.59,0,0,1-4.71,35.64,104.16,104.16,0,0,1-15,32.79,118.86,118.86,0,0,1-26.15,27.38c-11.55,8.89-24.33,14.68-37.82,19.94l-.14-46.85a68.69,68.69,0,0,0,20.24-10.93,59.4,59.4,0,0,0,21-32.43,75.27,75.27,0,0,0,2.43-19.06,82.52,82.52,0,0,0-1.2-13.48,35.54,35.54,0,0,0-4.52-12.57,20,20,0,0,0-9.16-8.13c-3.88-1.72-8.81-1.65-14.78.28a31.24,31.24,0,0,0-15.58,10.94,70.25,70.25,0,0,0-9.92,18.49,193.76,193.76,0,0,0-6.91,23.55c-2,8.57-4.33,17.43-6.56,26.29s-5,18.42-8.07,27.24a135.68,135.68,0,0,1-12.38,25.9,107.74,107.74,0,0,1-19,22.5A85.71,85.71,0,0,1,601,1817c-9.47,3.36-20.93,6-31.71,3.29a44.59,44.59,0,0,1-22.46-13.13c-6-6.51-10.4-14.72-13.35-24.13a95.21,95.21,0,0,1-4.4-29.45c.3-11.93,1.28-23.52,4-34.68a115.43,115.43,0,0,1,13.36-31.63c5.86-9.87,14.45-18.73,23.67-26a95.41,95.41,0,0,1,8.59-6.06,68.17,68.17,0,0,1-13.77-5.84c-11.58-6.52-20.66-16.74-26.65-28.54-7.24-14.24-9.74-29.87-9.76-44.82a126.8,126.8,0,0,1,5.54-36.08c3.34-11.46,9.31-22.73,16.35-32.75A138.08,138.08,0,0,1,577.15,1479a158.36,158.36,0,0,1,36.48-21.73q.06,23.68.13,47.37a67.7,67.7,0,0,0-16.41,11,83.78,83.78,0,0,0-13.08,15,72.35,72.35,0,0,0-8.75,17.41,56,56,0,0,0-3.1,18.28c0,11.08,2.33,19.87,6.89,26.25a33.79,33.79,0,0,0,18.3,13.07c7.65,2.28,16.38,2.72,26.09,1.47a143.29,143.29,0,0,0,30.21-7.71,195.45,195.45,0,0,0,29-13.65A145,145,0,0,0,708.3,1567a93,93,0,0,0,18-23.72c4.28-8.27,6.78-20.18,6.72-29.38-.07-11.55-3.95-24.58-14.7-30.63-12.16-6.86-25.23-5.31-38.54-3.26q-.07-23.48-.14-46.94c1.78-.44,3.53-.83,5.27-1.19q-2.31-2.16-4.57-4.39c-.23,0-.47.11-.72.19-3.19,1-5.77,4.32-5.76,7.29h0l.13,47c0,2.72,2.22,4.28,5.08,3.63,11.52-2.63,24.76-3.12,35.35,2.73,9.55,5.28,12.94,16.76,12.82,27.08-.11,9.73-2,18.83-6,26.69a80.08,80.08,0,0,1-16.22,21.48,126.91,126.91,0,0,1-23.51,17.4,184.29,184.29,0,0,1-27.65,13,137.15,137.15,0,0,1-28.87,7.36c-9,1.16-17.18.77-24.21-1.31a30.37,30.37,0,0,1-16.45-11.63c-4.06-5.65-6.13-13.66-6.16-23.74a50.51,50.51,0,0,1,2.77-16.36,65.17,65.17,0,0,1,7.81-15.61,74.92,74.92,0,0,1,11.64-13.39,58.53,58.53,0,0,1,14.21-9.52c2.83-1.35,4.93-4.35,4.92-7q-.07-23.67-.14-47.33a3.64,3.64,0,0,0-1.94-3.41,5.3,5.3,0,0,0-4.51.13c-13.6,6.14-26.75,13.44-38.66,22.93a146.76,146.76,0,0,0-28.37,29.63c-7.43,10.5-13.76,22.34-17.28,34.37a140.55,140.55,0,0,0-5.82,37.74c-.3,15.51,2.9,32.93,10.26,47.18,6.38,12.37,15.89,23.46,28.11,30.46q2.85,1.63,5.9,3a113.27,113.27,0,0,0-25.32,27.72,105.72,105.72,0,0,0-14.23,33.45,185.44,185.44,0,0,0-4.22,36c-.25,10,1.81,21.49,4.61,31,2.59,8.74,8.13,19.13,14.23,25.92a52.4,52.4,0,0,0,24.27,14.45c11.61,2.75,23.84,0,34.62-3.47s21.58-10.17,30.43-17.93a114.59,114.59,0,0,0,20.89-24.72,144.69,144.69,0,0,0,13.19-27.55c3.13-9,5.93-18.63,8.25-27.8,2.23-8.83,4.63-17.81,6.61-26.4a183.82,183.82,0,0,1,6.65-22.64,61.86,61.86,0,0,1,8.69-16.26,22.8,22.8,0,0,1,11.44-7.89c4.67-1.52,8.32-1.62,11.17-.38a16.15,16.15,0,0,1,7.54,6.64,31.22,31.22,0,0,1,4,11.14,78.31,78.31,0,0,1,1.14,12.72,70.25,70.25,0,0,1-2.26,17.72,54.85,54.85,0,0,1-6.68,15.7,51.28,51.28,0,0,1-11.39,12.61,59.83,59.83,0,0,1-17.57,9.44c-3.2,1.14-5.78,4.49-5.77,7.46l.14,46.88c0,2.94,2.62,4.42,5.71,3.28,14.29-5.3,28.16-11.89,40.57-21.37a127.91,127.91,0,0,0,28.15-29.2c7.18-10.5,12.95-22.37,15.93-34.45a166.13,166.13,0,0,0,4.9-36.88c.29-13.21-1.32-27.78-6-40-3.78-9.82-8.74-19.9-16.89-27.43a49.91,49.91,0,0,0-15.8-10l1-1.09c11.11-11.9,20.92-25.69,27.38-40.75s10.39-32.08,9.8-48.25c-.41-11.48-1.46-23.09-5.64-34.17A14.53,14.53,0,0,1,771.62,1474.43Z"/><path class="cls-9" d="M661.74,420.67c-8.25,7.08-16.16,15.27-22,24.76A110.08,110.08,0,0,0,628,471.2c-2.26,7.81-3.94,14.09-4.86,18.6-3,11.83-6,23.66-9.14,35.47a139,139,0,0,1-6.9,20.72c-2.52,5.6-4.67,7.8-5.73,8.61a19,19,0,0,1-8.26,3.21c-3.9.68-7.07.46-9.4-.63a17.57,17.57,0,0,1-6.67-5.39,21.94,21.94,0,0,1-3.87-8.44,47.42,47.42,0,0,1-1.24-10.62,78.14,78.14,0,0,1,1.5-15.9,39.29,39.29,0,0,1,4.83-12.48,28.85,28.85,0,0,1,8.82-9,46.53,46.53,0,0,1,15.17-6.13,7,7,0,0,0,5.4-6.42q-.06-23.73-.13-47.44c0-3-2.61-5-5.8-4.43-13.18,2.23-26.28,6.35-37.74,13.32-10,6.05-19.36,14.07-25.66,23.46a99.57,99.57,0,0,0-14.24,30.93c-2.94,11.26-3.91,23.08-4.21,35.2-.24,10.26,1.83,22,4.61,31.81a90.62,90.62,0,0,0,14.22,28.48c5.76,7.46,15.47,15.14,24.28,18.74a52.1,52.1,0,0,0,5.19,1.85c-9.62,7.59-18.18,14.92-25.22,24.13A109.2,109.2,0,0,0,526,670.66a118.28,118.28,0,0,0-5.65,35.4c-.32,16,2.73,34.13,10.26,48.52,6.92,13.22,15.42,25.17,28.12,34s26.9,13,41.64,15a96.31,96.31,0,0,0,15.06.61c-27.74,16.25-55.75,31.62-85.27,44.42a5.88,5.88,0,0,0-3.74,5.35q.06,25.43.14,50.83a5.1,5.1,0,0,0,3.75,4.91c46.74,12.56,94.35,15.93,142.38,20a90.16,90.16,0,0,0-13.17,10,82.25,82.25,0,0,0-19.86,27.89,40,40,0,0,0-15.24-10.25c-10.81-4-22.88-2.51-33.16-.28a100.05,100.05,0,0,0-30.38,11.81c-7.42,4.55-15.5,12-20.29,19.34A78.44,78.44,0,0,0,530,1014a134.55,134.55,0,0,0-3,30.75l.25,87.75,0,18.31q.24,83.16.47,166.32a4.88,4.88,0,0,0,5.8,4.77c14.79-2.3,29.26-5.23,43.81-8.72,3.19-.81,5.77-3.93,5.77-7l-.18-61.54c30-7.94,59.5-17.44,89.15-26.58q2.64-3.52,5.29-7c-33.34,10.15-66.45,21-100.24,29.55q.11,33.52.19,67c-14.55,3.48-29,6.4-43.8,8.68L533,1150.18l0-18.29q-.12-43.85-.25-87.68a129.64,129.64,0,0,1,2.9-29.61,70.88,70.88,0,0,1,9.73-23.81,59.54,59.54,0,0,1,18-17.37,82.38,82.38,0,0,1,27.86-10.85c9.66-1.76,20.16-3.47,29.89.19,8,3,14.53,8.67,19.65,17.2,4-13.69,11.17-27.63,22-36.63,9.42-7.85,18.08-12.56,29.71-17.36-53.86-5.39-107.56-7.7-160.17-21.48q-.08-25.4-.14-50.78c36.9-16.28,71.51-36.52,106-57.27-12.48,1.7-23.73,2.61-36,1.66A82.48,82.48,0,0,1,562.54,784a77.92,77.92,0,0,1-26.65-31.91A113.47,113.47,0,0,1,526.13,706a107.47,107.47,0,0,1,5.38-33.79c3.63-10.95,9.1-20.71,16-30.34S563.8,624,573.68,617.18c3.08-2.12,6.31-4.09,9.65-5.93a49.4,49.4,0,0,1-17.47-3.49c-8.13-3.26-17.12-10.28-22.46-17.1a83.52,83.52,0,0,1-13.35-26.52c-2.65-9.31-4.64-20.5-4.4-30.26a175.82,175.82,0,0,1,4.05-34c2.15-9.91,7.54-21.07,13.36-29.27a84.4,84.4,0,0,1,23.67-21.89,100.34,100.34,0,0,1,35-12.39q.07,23.73.14,47.47A53.68,53.68,0,0,0,584.28,491a35.86,35.86,0,0,0-10.92,11.11,44.55,44.55,0,0,0-5.61,14.36,82.42,82.42,0,0,0-1.61,17,52.78,52.78,0,0,0,1.36,11.76,26.82,26.82,0,0,0,4.68,10.22,22.18,22.18,0,0,0,8.32,6.78c3.32,1.57,7.53,1.93,12.62,1a25.38,25.38,0,0,0,11.28-4.59c2.87-2.21,5.52-6,7.94-11.39a145.93,145.93,0,0,0,7.24-21.74q4.71-17.81,9.19-35.68,1.32-6.5,4.77-18.25a105,105,0,0,1,11.05-24.18A91.13,91.13,0,0,1,665,424.54c9.33-7.42,21.12-11.83,32.67-13.89a70.72,70.72,0,0,1,30.22,1.64A59.45,59.45,0,0,1,752,427.69c7.28,8,12.22,18.12,15.85,28,4.42,12.09,6,26.28,5.75,39.26-.26,12-1.48,23.72-4.71,34.92a99.29,99.29,0,0,1-15,30.47,73.83,73.83,0,0,1-10,11c9.84-.9,14.76-1.19,24.6-1.34l.09,30.53c-10.75,2.15-16.13,3.5-26.87,6.56,10.6,6.42,19.72,15.65,25.14,26.76,4.4,9,7.55,21.26,7.23,31.3-.52,16.08-3.18,30.55-9.33,45.28A100.78,100.78,0,0,1,749.47,735c7.78-3.45,11.67-5.07,19.46-8q.08,24.87.14,49.75c-18,6.75-35.42,14.46-52.72,22.94l.24,82.07a505.89,505.89,0,0,1,52.82,10q.08,24.11.14,48.21c-7.5-2.13-11.26-3.07-18.77-4.77.87.88,1.7,1.78,2.5,2.72a66.24,66.24,0,0,1,12.35,23.55,96.23,96.23,0,0,1,4.07,28.24q.15,52.8.31,105.58c-66.4,7-128.6,31.8-193.16,47.27q.07,24.43.14,48.88c64.56-15.92,126.7-41.17,193.16-48.55l.05,15.82a46.33,46.33,0,0,1,5.82,11.35c0-11,0-16.58-.09-27.63a5.07,5.07,0,0,0-5.79-4.86c-64.47,7.15-124.9,31-187.38,47q-.06-19-.11-37.94c62.49-15.67,123-39.23,187.38-46.05a6.09,6.09,0,0,0,5.76-5.74q-.15-52.75-.31-105.5a102,102,0,0,0-4.26-29.65,78.64,78.64,0,0,0-6.39-15.37l2.69.73a6.47,6.47,0,0,0,5.34-.92,5.54,5.54,0,0,0,2.48-4.49q-.08-24.09-.14-48.18a5.08,5.08,0,0,0-3.88-4.85,381.26,381.26,0,0,0-49-9.84l-.21-74.38c16-7.67,32.12-14.64,48.8-20.76a5.58,5.58,0,0,0,3.91-5.14l-.15-49.71a5.12,5.12,0,0,0-2.5-4.33,6.09,6.09,0,0,0-5.32-.44l-2.45,1a92.13,92.13,0,0,0,5.6-10.6,115.54,115.54,0,0,0,9.8-47.19c-.19-11.82-3-22.09-7.69-33.48-3.38-8.2-10.65-17-17.76-22.54,6.12-1.52,9.18-2.21,15.3-3.41a5.5,5.5,0,0,0,4.65-5.25l-.09-30.5a5.54,5.54,0,0,0-5.8-5.29c-4.55.06-6.83.14-11.38.37.49-.61,1-1.23,1.44-1.85a91.27,91.27,0,0,0,15.93-32,156.06,156.06,0,0,0,4.9-36.14c.29-13.52-1.43-28.31-6-40.9-3.86-10.62-9.14-21.43-16.9-30.07C750,417,739.36,410,730.2,407.17c-10.6-3.3-21.92-3.24-32.6-1.89C685,406.87,671.49,412.31,661.74,420.67Z"/><path class="cls-9" d="M587.75,1700.33a46.35,46.35,0,0,0-10.92,13,53.07,53.07,0,0,0-5.61,15.34,87.06,87.06,0,0,0-1.61,17.26,49.1,49.1,0,0,0,1.37,11.52,21.81,21.81,0,0,0,4.67,9.4,17.5,17.5,0,0,0,8.32,5.33c3.33,1,7.54.62,12.62-1.16a31.23,31.23,0,0,0,11.28-6.52q4.3-4.07,7.94-12.75a168.44,168.44,0,0,0,7.24-23c3.14-12.39,6.17-24.81,9.19-37.22q1.32-6.72,4.77-19a116,116,0,0,1,8.72-21.64c-13.07,4.33-26.7,7.25-40.49,7.59l.09,31.67A65.77,65.77,0,0,0,587.75,1700.33Zm48.69-41.21a112,112,0,0,0-5,13.94c-2.3,8.23-3.94,14.76-4.86,19.42-3,12.34-6,24.69-9.14,37a160.81,160.81,0,0,1-6.9,21.9c-2.52,6-4.67,8.6-5.73,9.59a23.12,23.12,0,0,1-8.25,4.62c-3.91,1.36-7.08,1.69-9.41,1a13.86,13.86,0,0,1-6.67-4.22,18.15,18.15,0,0,1-3.87-7.76,44.74,44.74,0,0,1-1.23-10.41,81.29,81.29,0,0,1,1.49-16.15,46.73,46.73,0,0,1,4.83-13.32,37.55,37.55,0,0,1,8.83-10.54,57.15,57.15,0,0,1,15.16-8.74c3-1.25,5.41-4.47,5.4-7.34,0-9.7,0-14.55-.07-24.26A144.78,144.78,0,0,0,636.44,1659.12Z"/><path class="cls-9" d="M590.69,871c28.95,3.15,58,4.83,87,7q-.08-28.58-.16-57.16c-29,16.51-57.63,33.55-86.88,49.57C590.68,870.63,590.68,870.76,590.69,871Zm81.23.81c-21.56-1.54-43.12-2.93-64.65-4.83,21.6-12.25,43-24.83,64.53-37.2Z"/><path class="cls-9" d="M689.72,550.59A57,57,0,0,0,710,542.94a47.93,47.93,0,0,0,13.41-12.62A52,52,0,0,0,731,513.85a71,71,0,0,0,2.43-18.68,86.07,86.07,0,0,0-1.2-13.68,41.27,41.27,0,0,0-4.52-13.3,25.35,25.35,0,0,0-9.16-9.59c-3.88-2.34-8.81-3.07-14.78-2.1a25.48,25.48,0,0,0-15.59,8.41,57.44,57.44,0,0,0-9.91,16.88,167.36,167.36,0,0,0-6.91,22.43c-2,8.24-4.31,16.73-6.57,25.21s-4.87,17.36-8.06,25.91a107.89,107.89,0,0,1-12.38,23.85,79.41,79.41,0,0,1-19,19.3,63.9,63.9,0,0,1-15.75,8.23q.06,20.25.11,40.5c-11.61,4.88-22.5,12.24-29.82,22.61-6.58,9.33-9.68,20.87-9.87,32-.14,8.43,2,19.84,6.89,27.12a40.77,40.77,0,0,0,18.31,15.34c7.64,3.22,16.39,4.73,26.08,4.66a134,134,0,0,0,30.21-4.09,171.88,171.88,0,0,0,29-10.23,122.82,122.82,0,0,0,25.36-15.77,79.11,79.11,0,0,0,18-21.66c4.34-8,7.23-19.61,6.72-28.63-.74-12.93-2.54-26.16-13.22-35-10.93-9.08-24.45-8.74-38-7.93l.14,48.81c-13,2.9-25.9,6-38.84,9.07l-.26-93.19c16.45-3.69,32.9-7.45,49.45-10.73ZM634.84,684.87c0,3,2.61,4.81,5.8,4,12.93-3.09,25.86-6.18,38.83-9.1,3.2-.71,5.78-3.68,5.77-6.65l-.12-42.65c8.83-1,21,1.44,28,7.39,9,7.67,11.73,20.25,11.66,31.51-.07,9.79-2,18.61-6,26a66.64,66.64,0,0,1-16.22,19.63,109.75,109.75,0,0,1-23.51,14.67,156.46,156.46,0,0,1-27.64,9.73,128.49,128.49,0,0,1-28.87,3.89,61.49,61.49,0,0,1-24.22-4.26,36.06,36.06,0,0,1-16.45-13.67c-4.06-6.15-5.92-14.64-6.16-24.51-.22-9.17,3.27-21.13,8.73-28.62,6.56-9,16.28-15.69,26.52-20.07a7.22,7.22,0,0,0,4.45-6.25l-.11-36A70,70,0,0,0,628,602.67q3.43-2.49,6.57-5.23Q634.71,641.17,634.84,684.87Zm12.77-101.58,1.3-1.83a114.14,114.14,0,0,0,13.19-25.37c3.17-8.68,5.93-17.77,8.25-26.46,2.25-8.44,4.63-17,6.6-25.32a161.11,161.11,0,0,1,6.66-21.56,50.43,50.43,0,0,1,8.69-14.85,18.53,18.53,0,0,1,11.44-6c4.67-.76,8.32-.27,11.17,1.42a20.47,20.47,0,0,1,7.54,7.85,36.32,36.32,0,0,1,4,11.79,81.89,81.89,0,0,1,1.14,12.91,66.2,66.2,0,0,1-2.26,17.37,46.1,46.1,0,0,1-6.68,14.64,40.22,40.22,0,0,1-11.39,10.78,49.42,49.42,0,0,1-17.57,6.6c-3.2.62-5.78,3.55-5.77,6.52,0,9.45,0,14.18.07,23.64C671.85,577.87,659.72,580.57,647.61,583.29Z"/><path class="cls-9" d="M729.38,1053.06l-.15-51.54a56.31,56.31,0,0,0-1.54-13.22,25.35,25.35,0,0,0-5-10.38,18.08,18.08,0,0,0-9.48-5.86c-4-1.07-9.11-.85-15.27.61-10.09,2.39-20,7.66-26,16.33-5.07,7.34-8.11,18.61-7.72,27.53l.15,52.93C685.88,1063.33,707.44,1057.65,729.38,1053.06Zm-59.28,9.35-.14-47.5c0-9.25,2.18-17.32,6.56-23.91,4.07-6.11,11.08-10.44,21.42-13,5.22-1.27,9.45-1.47,12.58-.64a13.83,13.83,0,0,1,7.34,4.45,21.23,21.23,0,0,1,4.18,8.69,51.63,51.63,0,0,1,1.41,12.11q.06,23.11.13,46.23C705.59,1052.85,687.84,1057.45,670.1,1062.41Z"/><path class="cls-8" d="M625.28,1327.75c-.91,17.31-16.4,35.23-32.35,40.73-14.81,5.11-31.07-4.48-31.48-20.4-.44-17.59,15.92-33.78,31.48-38.89C606.2,1304.84,626.2,1310.11,625.28,1327.75Z"/><path class="cls-8" d="M624,1404.27c-.93,17.35-16.41,35.39-32.35,41-14.76,5.23-31.08-4.21-31.48-20.15-.43-17.63,15.92-33.91,31.48-39.15C604.85,1381.56,625,1386.59,624,1404.27Z"/><path d="M603.83,1415.8c0,6.46-4.93,12-11,12.37S582,1423.64,582,1417.26s4.83-11.91,10.83-12.36S603.83,1409.33,603.83,1415.8Z"/><path d="M603.83,1332.57c0,6.46-4.93,12-11,12.37S582,1340.41,582,1334s4.83-11.91,10.83-12.36S603.83,1326.1,603.83,1332.57Z"/></g></g></svg>